STARTFONT 2.1
COMMENT
COMMENT Converted from OpenType font "JF-Dot-Shinonome12.ttf" by "otf2bdf 3.0".
COMMENT
FONT -FreeType-JF Dot Shinonome Gothic 12-Medium-R-Normal--17-120-100-100-P-122-ISO10646-1
SIZE 12 100 100
FONTBOUNDINGBOX 12 12 0 -2
STARTPROPERTIES 19
FOUNDRY "FreeType"
FAMILY_NAME "JF Dot Shinonome Gothic 12"
WEIGHT_NAME "Medium"
SLANT "R"
SETWIDTH_NAME "Normal"
ADD_STYLE_NAME ""
PIXEL_SIZE 17
POINT_SIZE 120
RESOLUTION_X 100
RESOLUTION_Y 100
SPACING "P"
AVERAGE_WIDTH 122
CHARSET_REGISTRY "ISO10646"
CHARSET_ENCODING "1"
FONT_ASCENT 10
FONT_DESCENT 1
COPYRIGHT "-FreeType-JF Dot Shinonome Gothic 12-Medium-R-Normal--17-120-100-100-P-122-ISO10646-1"
_OTF_FONTFILE "JF-Dot-Shinonome12.ttf"
_OTF_PSNAME "JF-Dot-Shinonome-12-Regular"
ENDPROPERTIES
CHARS 7146
STARTCHAR 0020
ENCODING 32
SWIDTH 360 0
DWIDTH 6 0
BBX 6 12 0 -2
BITMAP
00
00
00
00
00
00
00
00
00
00
00
00
ENDCHAR
STARTCHAR 0021
ENCODING 33
SWIDTH 360 0
DWIDTH 6 0
BBX 6 12 0 -2
BITMAP
00
20
20
20
20
20
20
20
00
20
00
00
ENDCHAR
STARTCHAR 0022
ENCODING 34
SWIDTH 360 0
DWIDTH 6 0
BBX 6 12 0 -2
BITMAP
00
50
50
50
00
00
00
00
00
00
00
00
ENDCHAR
STARTCHAR 0023
ENCODING 35
SWIDTH 360 0
DWIDTH 6 0
BBX 6 12 0 -2
BITMAP
00
50
50
F8
50
50
50
F8
50
50
00
00
ENDCHAR
STARTCHAR 0024
ENCODING 36
SWIDTH 360 0
DWIDTH 6 0
BBX 6 12 0 -2
BITMAP
00
20
70
A8
A8
60
30
28
A8
70
20
00
ENDCHAR
STARTCHAR 0025
ENCODING 37
SWIDTH 360 0
DWIDTH 6 0
BBX 6 12 0 -2
BITMAP
00
48
A8
50
10
20
20
50
68
90
80
00
ENDCHAR
STARTCHAR 0026
ENCODING 38
SWIDTH 360 0
DWIDTH 6 0
BBX 6 12 0 -2
BITMAP
00
60
90
90
60
40
A8
90
90
68
00
00
ENDCHAR
STARTCHAR 0027
ENCODING 39
SWIDTH 360 0
DWIDTH 6 0
BBX 6 12 0 -2
BITMAP
00
30
10
20
00
00
00
00
00
00
00
00
ENDCHAR
STARTCHAR 0028
ENCODING 40
SWIDTH 360 0
DWIDTH 6 0
BBX 6 12 0 -2
BITMAP
00
08
10
10
20
20
20
20
10
10
08
00
ENDCHAR
STARTCHAR 0029
ENCODING 41
SWIDTH 360 0
DWIDTH 6 0
BBX 6 12 0 -2
BITMAP
00
80
40
40
20
20
20
20
40
40
80
00
ENDCHAR
STARTCHAR 002A
ENCODING 42
SWIDTH 360 0
DWIDTH 6 0
BBX 6 12 0 -2
BITMAP
00
00
00
20
A8
70
A8
20
00
00
00
00
ENDCHAR
STARTCHAR 002B
ENCODING 43
SWIDTH 360 0
DWIDTH 6 0
BBX 6 12 0 -2
BITMAP
00
00
00
20
20
F8
20
20
00
00
00
00
ENDCHAR
STARTCHAR 002C
ENCODING 44
SWIDTH 360 0
DWIDTH 6 0
BBX 6 12 0 -2
BITMAP
00
00
00
00
00
00
00
00
20
20
40
00
ENDCHAR
STARTCHAR 002D
ENCODING 45
SWIDTH 360 0
DWIDTH 6 0
BBX 6 12 0 -2
BITMAP
00
00
00
00
00
F8
00
00
00
00
00
00
ENDCHAR
STARTCHAR 002E
ENCODING 46
SWIDTH 360 0
DWIDTH 6 0
BBX 6 12 0 -2
BITMAP
00
00
00
00
00
00
00
00
20
00
00
00
ENDCHAR
STARTCHAR 002F
ENCODING 47
SWIDTH 360 0
DWIDTH 6 0
BBX 6 12 0 -2
BITMAP
00
08
08
10
10
20
20
40
40
80
80
00
ENDCHAR
STARTCHAR 0030
ENCODING 48
SWIDTH 360 0
DWIDTH 6 0
BBX 6 12 0 -2
BITMAP
00
30
48
48
48
48
48
48
48
30
00
00
ENDCHAR
STARTCHAR 0031
ENCODING 49
SWIDTH 360 0
DWIDTH 6 0
BBX 6 12 0 -2
BITMAP
00
20
E0
20
20
20
20
20
20
20
00
00
ENDCHAR
STARTCHAR 0032
ENCODING 50
SWIDTH 360 0
DWIDTH 6 0
BBX 6 12 0 -2
BITMAP
00
70
88
88
08
10
20
40
80
F8
00
00
ENDCHAR
STARTCHAR 0033
ENCODING 51
SWIDTH 360 0
DWIDTH 6 0
BBX 6 12 0 -2
BITMAP
00
70
88
08
30
08
08
88
88
70
00
00
ENDCHAR
STARTCHAR 0034
ENCODING 52
SWIDTH 360 0
DWIDTH 6 0
BBX 6 12 0 -2
BITMAP
00
10
30
30
50
50
90
F8
10
10
00
00
ENDCHAR
STARTCHAR 0035
ENCODING 53
SWIDTH 360 0
DWIDTH 6 0
BBX 6 12 0 -2
BITMAP
00
F0
80
80
F0
88
08
08
88
70
00
00
ENDCHAR
STARTCHAR 0036
ENCODING 54
SWIDTH 360 0
DWIDTH 6 0
BBX 6 12 0 -2
BITMAP
00
30
40
80
F0
88
88
88
88
70
00
00
ENDCHAR
STARTCHAR 0037
ENCODING 55
SWIDTH 360 0
DWIDTH 6 0
BBX 6 12 0 -2
BITMAP
00
F8
08
10
10
10
20
20
20
20
00
00
ENDCHAR
STARTCHAR 0038
ENCODING 56
SWIDTH 360 0
DWIDTH 6 0
BBX 6 12 0 -2
BITMAP
00
70
88
88
70
88
88
88
88
70
00
00
ENDCHAR
STARTCHAR 0039
ENCODING 57
SWIDTH 360 0
DWIDTH 6 0
BBX 6 12 0 -2
BITMAP
00
70
88
88
88
78
08
08
10
60
00
00
ENDCHAR
STARTCHAR 003A
ENCODING 58
SWIDTH 360 0
DWIDTH 6 0
BBX 6 12 0 -2
BITMAP
00
00
00
00
20
00
00
20
00
00
00
00
ENDCHAR
STARTCHAR 003B
ENCODING 59
SWIDTH 360 0
DWIDTH 6 0
BBX 6 12 0 -2
BITMAP
00
00
00
20
00
00
20
20
40
00
00
00
ENDCHAR
STARTCHAR 003C
ENCODING 60
SWIDTH 360 0
DWIDTH 6 0
BBX 6 12 0 -2
BITMAP
00
00
08
10
20
40
20
10
08
00
00
00
ENDCHAR
STARTCHAR 003D
ENCODING 61
SWIDTH 360 0
DWIDTH 6 0
BBX 6 12 0 -2
BITMAP
00
00
00
00
F8
00
F8
00
00
00
00
00
ENDCHAR
STARTCHAR 003E
ENCODING 62
SWIDTH 360 0
DWIDTH 6 0
BBX 6 12 0 -2
BITMAP
00
00
40
20
10
08
10
20
40
00
00
00
ENDCHAR
STARTCHAR 003F
ENCODING 63
SWIDTH 360 0
DWIDTH 6 0
BBX 6 12 0 -2
BITMAP
00
70
88
88
10
10
20
20
00
20
00
00
ENDCHAR
STARTCHAR 0040
ENCODING 64
SWIDTH 360 0
DWIDTH 6 0
BBX 6 12 0 -2
BITMAP
00
70
88
98
A8
A8
A8
90
88
70
00
00
ENDCHAR
STARTCHAR 0041
ENCODING 65
SWIDTH 360 0
DWIDTH 6 0
BBX 6 12 0 -2
BITMAP
00
20
20
50
50
50
F8
88
88
88
00
00
ENDCHAR
STARTCHAR 0042
ENCODING 66
SWIDTH 360 0
DWIDTH 6 0
BBX 6 12 0 -2
BITMAP
00
F0
88
88
90
F0
88
88
88
F0
00
00
ENDCHAR
STARTCHAR 0043
ENCODING 67
SWIDTH 360 0
DWIDTH 6 0
BBX 6 12 0 -2
BITMAP
00
30
48
88
80
80
80
88
48
30
00
00
ENDCHAR
STARTCHAR 0044
ENCODING 68
SWIDTH 360 0
DWIDTH 6 0
BBX 6 12 0 -2
BITMAP
00
E0
90
88
88
88
88
88
90
E0
00
00
ENDCHAR
STARTCHAR 0045
ENCODING 69
SWIDTH 360 0
DWIDTH 6 0
BBX 6 12 0 -2
BITMAP
00
F8
80
80
80
F0
80
80
80
F8
00
00
ENDCHAR
STARTCHAR 0046
ENCODING 70
SWIDTH 360 0
DWIDTH 6 0
BBX 6 12 0 -2
BITMAP
00
F8
80
80
80
F0
80
80
80
80
00
00
ENDCHAR
STARTCHAR 0047
ENCODING 71
SWIDTH 360 0
DWIDTH 6 0
BBX 6 12 0 -2
BITMAP
00
30
48
80
80
B8
88
88
48
38
00
00
ENDCHAR
STARTCHAR 0048
ENCODING 72
SWIDTH 360 0
DWIDTH 6 0
BBX 6 12 0 -2
BITMAP
00
88
88
88
88
F8
88
88
88
88
00
00
ENDCHAR
STARTCHAR 0049
ENCODING 73
SWIDTH 360 0
DWIDTH 6 0
BBX 6 12 0 -2
BITMAP
00
70
20
20
20
20
20
20
20
70
00
00
ENDCHAR
STARTCHAR 004A
ENCODING 74
SWIDTH 360 0
DWIDTH 6 0
BBX 6 12 0 -2
BITMAP
00
10
10
10
10
10
10
90
90
60
00
00
ENDCHAR
STARTCHAR 004B
ENCODING 75
SWIDTH 360 0
DWIDTH 6 0
BBX 6 12 0 -2
BITMAP
00
88
90
A0
C0
A0
A0
90
90
88
00
00
ENDCHAR
STARTCHAR 004C
ENCODING 76
SWIDTH 360 0
DWIDTH 6 0
BBX 6 12 0 -2
BITMAP
00
80
80
80
80
80
80
80
80
F8
00
00
ENDCHAR
STARTCHAR 004D
ENCODING 77
SWIDTH 360 0
DWIDTH 6 0
BBX 6 12 0 -2
BITMAP
00
88
88
D8
D8
D8
A8
A8
A8
88
00
00
ENDCHAR
STARTCHAR 004E
ENCODING 78
SWIDTH 360 0
DWIDTH 6 0
BBX 6 12 0 -2
BITMAP
00
88
C8
C8
A8
A8
98
98
88
88
00
00
ENDCHAR
STARTCHAR 004F
ENCODING 79
SWIDTH 360 0
DWIDTH 6 0
BBX 6 12 0 -2
BITMAP
00
70
88
88
88
88
88
88
88
70
00
00
ENDCHAR
STARTCHAR 0050
ENCODING 80
SWIDTH 360 0
DWIDTH 6 0
BBX 6 12 0 -2
BITMAP
00
F0
88
88
88
F0
80
80
80
80
00
00
ENDCHAR
STARTCHAR 0051
ENCODING 81
SWIDTH 360 0
DWIDTH 6 0
BBX 6 12 0 -2
BITMAP
00
70
88
88
88
88
88
A8
90
68
00
00
ENDCHAR
STARTCHAR 0052
ENCODING 82
SWIDTH 360 0
DWIDTH 6 0
BBX 6 12 0 -2
BITMAP
00
F0
88
88
88
F0
90
88
88
88
00
00
ENDCHAR
STARTCHAR 0053
ENCODING 83
SWIDTH 360 0
DWIDTH 6 0
BBX 6 12 0 -2
BITMAP
00
70
88
80
60
10
08
88
88
70
00
00
ENDCHAR
STARTCHAR 0054
ENCODING 84
SWIDTH 360 0
DWIDTH 6 0
BBX 6 12 0 -2
BITMAP
00
F8
20
20
20
20
20
20
20
20
00
00
ENDCHAR
STARTCHAR 0055
ENCODING 85
SWIDTH 360 0
DWIDTH 6 0
BBX 6 12 0 -2
BITMAP
00
88
88
88
88
88
88
88
88
70
00
00
ENDCHAR
STARTCHAR 0056
ENCODING 86
SWIDTH 360 0
DWIDTH 6 0
BBX 6 12 0 -2
BITMAP
00
88
88
88
88
50
50
50
20
20
00
00
ENDCHAR
STARTCHAR 0057
ENCODING 87
SWIDTH 360 0
DWIDTH 6 0
BBX 6 12 0 -2
BITMAP
00
A8
A8
A8
A8
A8
A8
50
50
50
00
00
ENDCHAR
STARTCHAR 0058
ENCODING 88
SWIDTH 360 0
DWIDTH 6 0
BBX 6 12 0 -2
BITMAP
00
88
88
50
50
20
50
50
88
88
00
00
ENDCHAR
STARTCHAR 0059
ENCODING 89
SWIDTH 360 0
DWIDTH 6 0
BBX 6 12 0 -2
BITMAP
00
88
88
50
50
20
20
20
20
20
00
00
ENDCHAR
STARTCHAR 005A
ENCODING 90
SWIDTH 360 0
DWIDTH 6 0
BBX 6 12 0 -2
BITMAP
00
F8
08
10
10
20
40
40
80
F8
00
00
ENDCHAR
STARTCHAR 005B
ENCODING 91
SWIDTH 360 0
DWIDTH 6 0
BBX 6 12 0 -2
BITMAP
00
38
20
20
20
20
20
20
20
20
20
38
ENDCHAR
STARTCHAR 005C
ENCODING 92
SWIDTH 360 0
DWIDTH 6 0
BBX 6 12 0 -2
BITMAP
00
88
88
50
F8
20
F8
20
20
20
00
00
ENDCHAR
STARTCHAR 005D
ENCODING 93
SWIDTH 360 0
DWIDTH 6 0
BBX 6 12 0 -2
BITMAP
00
70
10
10
10
10
10
10
10
10
10
70
ENDCHAR
STARTCHAR 005E
ENCODING 94
SWIDTH 360 0
DWIDTH 6 0
BBX 6 12 0 -2
BITMAP
00
20
50
88
00
00
00
00
00
00
00
00
ENDCHAR
STARTCHAR 005F
ENCODING 95
SWIDTH 360 0
DWIDTH 6 0
BBX 6 12 0 -2
BITMAP
00
00
00
00
00
00
00
00
00
F8
00
00
ENDCHAR
STARTCHAR 0060
ENCODING 96
SWIDTH 360 0
DWIDTH 6 0
BBX 6 12 0 -2
BITMAP
00
30
20
10
00
00
00
00
00
00
00
00
ENDCHAR
STARTCHAR 0061
ENCODING 97
SWIDTH 360 0
DWIDTH 6 0
BBX 6 12 0 -2
BITMAP
00
00
00
70
88
18
68
88
98
68
00
00
ENDCHAR
STARTCHAR 0062
ENCODING 98
SWIDTH 360 0
DWIDTH 6 0
BBX 6 12 0 -2
BITMAP
00
80
80
B0
C8
88
88
88
C8
B0
00
00
ENDCHAR
STARTCHAR 0063
ENCODING 99
SWIDTH 360 0
DWIDTH 6 0
BBX 6 12 0 -2
BITMAP
00
00
00
70
88
80
80
80
88
70
00
00
ENDCHAR
STARTCHAR 0064
ENCODING 100
SWIDTH 360 0
DWIDTH 6 0
BBX 6 12 0 -2
BITMAP
00
08
08
68
98
88
88
88
98
68
00
00
ENDCHAR
STARTCHAR 0065
ENCODING 101
SWIDTH 360 0
DWIDTH 6 0
BBX 6 12 0 -2
BITMAP
00
00
00
70
88
88
F8
80
88
70
00
00
ENDCHAR
STARTCHAR 0066
ENCODING 102
SWIDTH 360 0
DWIDTH 6 0
BBX 6 12 0 -2
BITMAP
00
18
20
70
20
20
20
20
20
20
00
00
ENDCHAR
STARTCHAR 0067
ENCODING 103
SWIDTH 360 0
DWIDTH 6 0
BBX 6 12 0 -2
BITMAP
00
00
00
78
88
88
88
98
68
08
88
70
ENDCHAR
STARTCHAR 0068
ENCODING 104
SWIDTH 360 0
DWIDTH 6 0
BBX 6 12 0 -2
BITMAP
00
80
80
B0
C8
88
88
88
88
88
00
00
ENDCHAR
STARTCHAR 0069
ENCODING 105
SWIDTH 360 0
DWIDTH 6 0
BBX 6 12 0 -2
BITMAP
00
20
00
20
20
20
20
20
20
20
00
00
ENDCHAR
STARTCHAR 006A
ENCODING 106
SWIDTH 360 0
DWIDTH 6 0
BBX 6 12 0 -2
BITMAP
00
20
00
20
20
20
20
20
20
20
20
40
ENDCHAR
STARTCHAR 006B
ENCODING 107
SWIDTH 360 0
DWIDTH 6 0
BBX 6 12 0 -2
BITMAP
00
80
80
80
90
A0
C0
A0
90
88
00
00
ENDCHAR
STARTCHAR 006C
ENCODING 108
SWIDTH 360 0
DWIDTH 6 0
BBX 6 12 0 -2
BITMAP
00
20
20
20
20
20
20
20
20
20
00
00
ENDCHAR
STARTCHAR 006D
ENCODING 109
SWIDTH 360 0
DWIDTH 6 0
BBX 6 12 0 -2
BITMAP
00
00
00
F0
A8
A8
A8
A8
A8
A8
00
00
ENDCHAR
STARTCHAR 006E
ENCODING 110
SWIDTH 360 0
DWIDTH 6 0
BBX 6 12 0 -2
BITMAP
00
00
00
B0
C8
88
88
88
88
88
00
00
ENDCHAR
STARTCHAR 006F
ENCODING 111
SWIDTH 360 0
DWIDTH 6 0
BBX 6 12 0 -2
BITMAP
00
00
00
70
88
88
88
88
88
70
00
00
ENDCHAR
STARTCHAR 0070
ENCODING 112
SWIDTH 360 0
DWIDTH 6 0
BBX 6 12 0 -2
BITMAP
00
00
00
B0
C8
88
88
88
C8
B0
80
80
ENDCHAR
STARTCHAR 0071
ENCODING 113
SWIDTH 360 0
DWIDTH 6 0
BBX 6 12 0 -2
BITMAP
00
00
00
68
98
88
88
88
98
68
08
08
ENDCHAR
STARTCHAR 0072
ENCODING 114
SWIDTH 360 0
DWIDTH 6 0
BBX 6 12 0 -2
BITMAP
00
00
00
58
60
40
40
40
40
40
00
00
ENDCHAR
STARTCHAR 0073
ENCODING 115
SWIDTH 360 0
DWIDTH 6 0
BBX 6 12 0 -2
BITMAP
00
00
00
70
88
40
30
08
88
70
00
00
ENDCHAR
STARTCHAR 0074
ENCODING 116
SWIDTH 360 0
DWIDTH 6 0
BBX 6 12 0 -2
BITMAP
00
40
40
F0
40
40
40
40
40
60
00
00
ENDCHAR
STARTCHAR 0075
ENCODING 117
SWIDTH 360 0
DWIDTH 6 0
BBX 6 12 0 -2
BITMAP
00
00
00
88
88
88
88
88
98
68
00
00
ENDCHAR
STARTCHAR 0076
ENCODING 118
SWIDTH 360 0
DWIDTH 6 0
BBX 6 12 0 -2
BITMAP
00
00
00
88
88
88
50
50
20
20
00
00
ENDCHAR
STARTCHAR 0077
ENCODING 119
SWIDTH 360 0
DWIDTH 6 0
BBX 6 12 0 -2
BITMAP
00
00
00
88
A8
A8
A8
A8
A8
50
00
00
ENDCHAR
STARTCHAR 0078
ENCODING 120
SWIDTH 360 0
DWIDTH 6 0
BBX 6 12 0 -2
BITMAP
00
00
00
88
50
50
20
50
50
88
00
00
ENDCHAR
STARTCHAR 0079
ENCODING 121
SWIDTH 360 0
DWIDTH 6 0
BBX 6 12 0 -2
BITMAP
00
00
00
88
88
48
50
50
20
20
40
80
ENDCHAR
STARTCHAR 007A
ENCODING 122
SWIDTH 360 0
DWIDTH 6 0
BBX 6 12 0 -2
BITMAP
00
00
00
F8
10
10
20
40
40
F8
00
00
ENDCHAR
STARTCHAR 007B
ENCODING 123
SWIDTH 360 0
DWIDTH 6 0
BBX 6 12 0 -2
BITMAP
00
08
10
10
10
10
20
10
10
10
10
08
ENDCHAR
STARTCHAR 007C
ENCODING 124
SWIDTH 360 0
DWIDTH 6 0
BBX 6 12 0 -2
BITMAP
00
20
20
20
20
20
20
20
20
20
20
20
ENDCHAR
STARTCHAR 007D
ENCODING 125
SWIDTH 360 0
DWIDTH 6 0
BBX 6 12 0 -2
BITMAP
00
40
20
20
20
20
10
20
20
20
20
40
ENDCHAR
STARTCHAR 007E
ENCODING 126
SWIDTH 360 0
DWIDTH 6 0
BBX 6 12 0 -2
BITMAP
FC
00
00
00
00
00
00
00
00
00
00
00
ENDCHAR
STARTCHAR 00A0
ENCODING 160
SWIDTH 360 0
DWIDTH 6 0
BBX 6 12 0 -2
BITMAP
00
00
00
00
00
00
00
00
00
00
00
00
ENDCHAR
STARTCHAR 00A1
ENCODING 161
SWIDTH 360 0
DWIDTH 6 0
BBX 6 12 0 -2
BITMAP
00
20
00
20
20
20
20
20
20
20
00
00
ENDCHAR
STARTCHAR 00A2
ENCODING 162
SWIDTH 360 0
DWIDTH 6 0
BBX 6 12 0 -2
BITMAP
00
00
10
70
98
A0
A0
A0
C8
70
40
00
ENDCHAR
STARTCHAR 00A3
ENCODING 163
SWIDTH 360 0
DWIDTH 6 0
BBX 6 12 0 -2
BITMAP
00
10
28
20
78
20
20
20
68
A8
50
00
ENDCHAR
STARTCHAR 00A4
ENCODING 164
SWIDTH 360 0
DWIDTH 6 0
BBX 6 12 0 -2
BITMAP
00
00
00
88
70
50
70
88
00
00
00
00
ENDCHAR
STARTCHAR 00A5
ENCODING 165
SWIDTH 360 0
DWIDTH 6 0
BBX 6 12 0 -2
BITMAP
00
80
80
40
40
20
20
10
10
08
08
00
ENDCHAR
STARTCHAR 00A6
ENCODING 166
SWIDTH 360 0
DWIDTH 6 0
BBX 6 12 0 -2
BITMAP
00
20
20
20
20
00
00
20
20
20
20
00
ENDCHAR
STARTCHAR 00A7
ENCODING 167
SWIDTH 720 0
DWIDTH 12 0
BBX 5 12 3 -2
BITMAP
70
88
C0
60
70
98
C8
70
30
18
88
70
ENDCHAR
STARTCHAR 00A8
ENCODING 168
SWIDTH 720 0
DWIDTH 12 0
BBX 6 2 3 8
BITMAP
CC
CC
ENDCHAR
STARTCHAR 00A9
ENCODING 169
SWIDTH 360 0
DWIDTH 6 0
BBX 5 8 0 1
BITMAP
70
88
B8
C8
C8
B8
88
70
ENDCHAR
STARTCHAR 00AA
ENCODING 170
SWIDTH 360 0
DWIDTH 6 0
BBX 4 6 0 3
BITMAP
60
A0
A0
50
00
F0
ENDCHAR
STARTCHAR 00AB
ENCODING 171
SWIDTH 360 0
DWIDTH 6 0
BBX 5 5 0 1
BITMAP
28
50
A0
50
28
ENDCHAR
STARTCHAR 00AC
ENCODING 172
SWIDTH 360 0
DWIDTH 6 0
BBX 5 3 0 2
BITMAP
F8
08
08
ENDCHAR
STARTCHAR 00AD
ENCODING 173
SWIDTH 360 0
DWIDTH 6 0
BBX 3 1 1 3
BITMAP
E0
ENDCHAR
STARTCHAR 00AE
ENCODING 174
SWIDTH 360 0
DWIDTH 6 0
BBX 6 8 0 1
BITMAP
78
84
B4
AC
B4
AC
AC
78
ENDCHAR
STARTCHAR 00AF
ENCODING 175
SWIDTH 360 0
DWIDTH 6 0
BBX 3 1 1 8
BITMAP
E0
ENDCHAR
STARTCHAR 00B0
ENCODING 176
SWIDTH 720 0
DWIDTH 12 0
BBX 4 4 1 5
BITMAP
60
90
90
60
ENDCHAR
STARTCHAR 00B1
ENCODING 177
SWIDTH 720 0
DWIDTH 12 0
BBX 9 10 1 -1
BITMAP
0800
0800
0800
0800
FF80
0800
0800
0800
0000
FF80
ENDCHAR
STARTCHAR 00B2
ENCODING 178
SWIDTH 360 0
DWIDTH 6 0
BBX 3 5 0 5
BITMAP
40
A0
20
40
E0
ENDCHAR
STARTCHAR 00B3
ENCODING 179
SWIDTH 360 0
DWIDTH 6 0
BBX 3 5 0 5
BITMAP
C0
20
C0
20
C0
ENDCHAR
STARTCHAR 00B4
ENCODING 180
SWIDTH 720 0
DWIDTH 12 0
BBX 3 3 4 7
BITMAP
20
40
80
ENDCHAR
STARTCHAR 00B5
ENCODING 181
SWIDTH 360 0
DWIDTH 6 0
BBX 6 8 0 -2
BITMAP
48
48
48
48
74
40
40
80
ENDCHAR
STARTCHAR 00B6
ENCODING 182
SWIDTH 720 0
DWIDTH 12 0
BBX 5 11 3 -1
BITMAP
78
E8
E8
E8
68
28
28
28
28
28
28
ENDCHAR
STARTCHAR 00B7
ENCODING 183
SWIDTH 360 0
DWIDTH 6 0
BBX 6 12 0 -2
BITMAP
00
00
00
00
00
30
30
00
00
00
00
00
ENDCHAR
STARTCHAR 00B8
ENCODING 184
SWIDTH 360 0
DWIDTH 6 0
BBX 6 12 0 -2
BITMAP
00
00
00
00
00
00
00
00
40
60
10
60
ENDCHAR
STARTCHAR 00B9
ENCODING 185
SWIDTH 360 0
DWIDTH 6 0
BBX 6 12 0 -2
BITMAP
40
C0
40
40
40
00
00
00
00
00
00
00
ENDCHAR
STARTCHAR 00BA
ENCODING 186
SWIDTH 360 0
DWIDTH 6 0
BBX 6 12 0 -2
BITMAP
00
60
90
90
60
00
F0
00
00
00
00
00
ENDCHAR
STARTCHAR 00BB
ENCODING 187
SWIDTH 360 0
DWIDTH 6 0
BBX 6 12 0 -2
BITMAP
00
00
00
A0
50
28
50
A0
00
00
00
00
ENDCHAR
STARTCHAR 00BC
ENCODING 188
SWIDTH 360 0
DWIDTH 6 0
BBX 6 12 0 -2
BITMAP
80
90
A0
50
B0
38
10
00
00
00
00
00
ENDCHAR
STARTCHAR 00BD
ENCODING 189
SWIDTH 360 0
DWIDTH 6 0
BBX 6 12 0 -2
BITMAP
80
90
A0
58
88
10
38
00
00
00
00
00
ENDCHAR
STARTCHAR 00BE
ENCODING 190
SWIDTH 360 0
DWIDTH 6 0
BBX 6 12 0 -2
BITMAP
C0
20
E0
28
D8
28
3C
08
00
00
00
00
ENDCHAR
STARTCHAR 00BF
ENCODING 191
SWIDTH 360 0
DWIDTH 6 0
BBX 6 12 0 -2
BITMAP
00
20
00
20
20
40
40
88
88
70
00
00
ENDCHAR
STARTCHAR 00C0
ENCODING 192
SWIDTH 360 0
DWIDTH 6 0
BBX 6 12 0 -2
BITMAP
20
10
20
20
50
50
88
F8
88
88
00
00
ENDCHAR
STARTCHAR 00C1
ENCODING 193
SWIDTH 360 0
DWIDTH 6 0
BBX 6 12 0 -2
BITMAP
20
40
20
20
50
50
88
F8
88
88
00
00
ENDCHAR
STARTCHAR 00C2
ENCODING 194
SWIDTH 360 0
DWIDTH 6 0
BBX 6 12 0 -2
BITMAP
20
50
20
20
50
50
88
F8
88
88
00
00
ENDCHAR
STARTCHAR 00C3
ENCODING 195
SWIDTH 360 0
DWIDTH 6 0
BBX 6 12 0 -2
BITMAP
50
A0
20
20
50
50
88
F8
88
88
00
00
ENDCHAR
STARTCHAR 00C4
ENCODING 196
SWIDTH 360 0
DWIDTH 6 0
BBX 6 12 0 -2
BITMAP
50
00
20
20
50
50
88
F8
88
88
00
00
ENDCHAR
STARTCHAR 00C5
ENCODING 197
SWIDTH 360 0
DWIDTH 6 0
BBX 6 12 0 -2
BITMAP
20
50
20
20
50
50
88
F8
88
88
00
00
ENDCHAR
STARTCHAR 00C6
ENCODING 198
SWIDTH 360 0
DWIDTH 6 0
BBX 6 12 0 -2
BITMAP
00
78
60
A0
A0
F8
A0
A0
A0
B8
00
00
ENDCHAR
STARTCHAR 00C7
ENCODING 199
SWIDTH 360 0
DWIDTH 6 0
BBX 6 12 0 -2
BITMAP
00
30
48
80
80
80
80
48
30
10
60
00
ENDCHAR
STARTCHAR 00C8
ENCODING 200
SWIDTH 360 0
DWIDTH 6 0
BBX 6 12 0 -2
BITMAP
40
20
F8
80
80
F0
80
80
80
F8
00
00
ENDCHAR
STARTCHAR 00C9
ENCODING 201
SWIDTH 360 0
DWIDTH 6 0
BBX 6 12 0 -2
BITMAP
10
20
F8
80
80
F0
80
80
80
F8
00
00
ENDCHAR
STARTCHAR 00CA
ENCODING 202
SWIDTH 360 0
DWIDTH 6 0
BBX 6 12 0 -2
BITMAP
20
50
F8
80
80
F0
80
80
80
F8
00
00
ENDCHAR
STARTCHAR 00CB
ENCODING 203
SWIDTH 360 0
DWIDTH 6 0
BBX 6 12 0 -2
BITMAP
50
00
F8
80
80
F0
80
80
80
F8
00
00
ENDCHAR
STARTCHAR 00CC
ENCODING 204
SWIDTH 360 0
DWIDTH 6 0
BBX 6 12 0 -2
BITMAP
40
20
70
20
20
20
20
20
20
70
00
00
ENDCHAR
STARTCHAR 00CD
ENCODING 205
SWIDTH 360 0
DWIDTH 6 0
BBX 6 12 0 -2
BITMAP
10
20
70
20
20
20
20
20
20
70
00
00
ENDCHAR
STARTCHAR 00CE
ENCODING 206
SWIDTH 360 0
DWIDTH 6 0
BBX 6 12 0 -2
BITMAP
20
50
00
70
20
20
20
20
20
70
00
00
ENDCHAR
STARTCHAR 00CF
ENCODING 207
SWIDTH 360 0
DWIDTH 6 0
BBX 6 12 0 -2
BITMAP
50
00
70
20
20
20
20
20
20
70
00
00
ENDCHAR
STARTCHAR 00D0
ENCODING 208
SWIDTH 360 0
DWIDTH 6 0
BBX 6 12 0 -2
BITMAP
00
E0
90
88
88
C8
88
88
90
E0
00
00
ENDCHAR
STARTCHAR 00D1
ENCODING 209
SWIDTH 360 0
DWIDTH 6 0
BBX 6 12 0 -2
BITMAP
50
A0
88
C8
A8
A8
98
98
88
88
00
00
ENDCHAR
STARTCHAR 00D2
ENCODING 210
SWIDTH 360 0
DWIDTH 6 0
BBX 6 12 0 -2
BITMAP
40
20
70
88
88
88
88
88
88
70
00
00
ENDCHAR
STARTCHAR 00D3
ENCODING 211
SWIDTH 360 0
DWIDTH 6 0
BBX 6 12 0 -2
BITMAP
10
20
70
88
88
88
88
88
88
70
00
00
ENDCHAR
STARTCHAR 00D4
ENCODING 212
SWIDTH 360 0
DWIDTH 6 0
BBX 6 12 0 -2
BITMAP
20
50
70
88
88
88
88
88
88
70
00
00
ENDCHAR
STARTCHAR 00D5
ENCODING 213
SWIDTH 360 0
DWIDTH 6 0
BBX 6 12 0 -2
BITMAP
28
50
70
88
88
88
88
88
88
70
00
00
ENDCHAR
STARTCHAR 00D6
ENCODING 214
SWIDTH 360 0
DWIDTH 6 0
BBX 6 12 0 -2
BITMAP
50
00
70
88
88
88
88
88
88
70
00
00
ENDCHAR
STARTCHAR 00D7
ENCODING 215
SWIDTH 720 0
DWIDTH 12 0
BBX 8 8 2 0
BITMAP
81
42
24
18
18
24
42
81
ENDCHAR
STARTCHAR 00D8
ENCODING 216
SWIDTH 360 0
DWIDTH 6 0
BBX 6 12 0 -2
BITMAP
00
34
4C
48
58
68
68
48
C8
B0
00
00
ENDCHAR
STARTCHAR 00D9
ENCODING 217
SWIDTH 360 0
DWIDTH 6 0
BBX 6 12 0 -2
BITMAP
40
20
88
88
88
88
88
88
88
70
00
00
ENDCHAR
STARTCHAR 00DA
ENCODING 218
SWIDTH 360 0
DWIDTH 6 0
BBX 6 12 0 -2
BITMAP
10
20
88
88
88
88
88
88
88
70
00
00
ENDCHAR
STARTCHAR 00DB
ENCODING 219
SWIDTH 360 0
DWIDTH 6 0
BBX 6 12 0 -2
BITMAP
20
50
00
88
88
88
88
88
88
70
00
00
ENDCHAR
STARTCHAR 00DC
ENCODING 220
SWIDTH 360 0
DWIDTH 6 0
BBX 6 12 0 -2
BITMAP
50
A0
00
88
88
88
88
88
88
70
00
00
ENDCHAR
STARTCHAR 00DD
ENCODING 221
SWIDTH 360 0
DWIDTH 6 0
BBX 6 12 0 -2
BITMAP
10
20
88
88
50
50
20
20
20
20
00
00
ENDCHAR
STARTCHAR 00DE
ENCODING 222
SWIDTH 360 0
DWIDTH 6 0
BBX 6 12 0 -2
BITMAP
00
40
40
70
48
48
48
48
70
40
40
00
ENDCHAR
STARTCHAR 00DF
ENCODING 223
SWIDTH 360 0
DWIDTH 6 0
BBX 6 12 0 -2
BITMAP
00
30
48
48
48
70
48
48
48
50
40
40
ENDCHAR
STARTCHAR 00E0
ENCODING 224
SWIDTH 360 0
DWIDTH 6 0
BBX 6 12 0 -2
BITMAP
40
20
00
70
88
18
68
88
98
68
00
00
ENDCHAR
STARTCHAR 00E1
ENCODING 225
SWIDTH 360 0
DWIDTH 6 0
BBX 6 12 0 -2
BITMAP
10
20
00
70
88
18
68
88
98
68
00
00
ENDCHAR
STARTCHAR 00E2
ENCODING 226
SWIDTH 360 0
DWIDTH 6 0
BBX 6 12 0 -2
BITMAP
20
50
00
70
88
18
68
88
98
68
00
00
ENDCHAR
STARTCHAR 00E3
ENCODING 227
SWIDTH 360 0
DWIDTH 6 0
BBX 6 12 0 -2
BITMAP
50
A0
00
70
88
18
68
88
98
68
00
00
ENDCHAR
STARTCHAR 00E4
ENCODING 228
SWIDTH 360 0
DWIDTH 6 0
BBX 6 12 0 -2
BITMAP
00
50
00
70
88
18
68
88
98
68
00
00
ENDCHAR
STARTCHAR 00E5
ENCODING 229
SWIDTH 360 0
DWIDTH 6 0
BBX 6 12 0 -2
BITMAP
20
50
20
70
88
18
68
88
98
68
00
00
ENDCHAR
STARTCHAR 00E6
ENCODING 230
SWIDTH 360 0
DWIDTH 6 0
BBX 6 12 0 -2
BITMAP
00
00
00
50
A8
28
78
A0
A8
70
00
00
ENDCHAR
STARTCHAR 00E7
ENCODING 231
SWIDTH 360 0
DWIDTH 6 0
BBX 6 12 0 -2
BITMAP
00
00
00
70
88
80
80
88
70
10
60
00
ENDCHAR
STARTCHAR 00E8
ENCODING 232
SWIDTH 360 0
DWIDTH 6 0
BBX 6 12 0 -2
BITMAP
40
20
00
70
88
88
F8
80
88
70
00
00
ENDCHAR
STARTCHAR 00E9
ENCODING 233
SWIDTH 360 0
DWIDTH 6 0
BBX 6 12 0 -2
BITMAP
10
20
00
70
88
88
F8
80
88
70
00
00
ENDCHAR
STARTCHAR 00EA
ENCODING 234
SWIDTH 360 0
DWIDTH 6 0
BBX 6 12 0 -2
BITMAP
20
50
00
70
88
88
F8
80
88
70
00
00
ENDCHAR
STARTCHAR 00EB
ENCODING 235
SWIDTH 360 0
DWIDTH 6 0
BBX 6 12 0 -2
BITMAP
00
50
00
70
88
88
F8
80
88
70
00
00
ENDCHAR
STARTCHAR 00EC
ENCODING 236
SWIDTH 360 0
DWIDTH 6 0
BBX 6 12 0 -2
BITMAP
40
20
00
00
20
20
20
20
20
20
00
00
ENDCHAR
STARTCHAR 00ED
ENCODING 237
SWIDTH 360 0
DWIDTH 6 0
BBX 6 12 0 -2
BITMAP
10
20
00
00
20
20
20
20
20
20
00
00
ENDCHAR
STARTCHAR 00EE
ENCODING 238
SWIDTH 360 0
DWIDTH 6 0
BBX 6 12 0 -2
BITMAP
20
50
00
00
20
20
20
20
20
20
00
00
ENDCHAR
STARTCHAR 00EF
ENCODING 239
SWIDTH 360 0
DWIDTH 6 0
BBX 6 12 0 -2
BITMAP
00
50
00
00
20
20
20
20
20
20
00
00
ENDCHAR
STARTCHAR 00F0
ENCODING 240
SWIDTH 360 0
DWIDTH 6 0
BBX 6 12 0 -2
BITMAP
A0
40
A0
10
70
88
88
88
88
70
00
00
ENDCHAR
STARTCHAR 00F1
ENCODING 241
SWIDTH 360 0
DWIDTH 6 0
BBX 6 12 0 -2
BITMAP
50
A0
00
00
B0
C8
88
88
88
88
00
00
ENDCHAR
STARTCHAR 00F2
ENCODING 242
SWIDTH 360 0
DWIDTH 6 0
BBX 6 12 0 -2
BITMAP
40
20
00
70
88
88
88
88
88
70
00
00
ENDCHAR
STARTCHAR 00F3
ENCODING 243
SWIDTH 360 0
DWIDTH 6 0
BBX 6 12 0 -2
BITMAP
10
20
00
70
88
88
88
88
88
70
00
00
ENDCHAR
STARTCHAR 00F4
ENCODING 244
SWIDTH 360 0
DWIDTH 6 0
BBX 6 12 0 -2
BITMAP
20
50
00
70
88
88
88
88
88
70
00
00
ENDCHAR
STARTCHAR 00F5
ENCODING 245
SWIDTH 360 0
DWIDTH 6 0
BBX 6 12 0 -2
BITMAP
50
A0
00
70
88
88
88
88
88
70
00
00
ENDCHAR
STARTCHAR 00F6
ENCODING 246
SWIDTH 360 0
DWIDTH 6 0
BBX 6 12 0 -2
BITMAP
00
50
00
70
88
88
88
88
88
70
00
00
ENDCHAR
STARTCHAR 00F7
ENCODING 247
SWIDTH 720 0
DWIDTH 12 0
BBX 9 9 1 -1
BITMAP
1800
1800
0000
0000
FF80
0000
0000
1800
1800
ENDCHAR
STARTCHAR 00F8
ENCODING 248
SWIDTH 360 0
DWIDTH 6 0
BBX 6 7 0 0
BITMAP
34
48
58
68
48
C8
30
ENDCHAR
STARTCHAR 00F9
ENCODING 249
SWIDTH 360 0
DWIDTH 6 0
BBX 5 10 0 0
BITMAP
40
20
00
88
88
88
88
88
98
68
ENDCHAR
STARTCHAR 00FA
ENCODING 250
SWIDTH 360 0
DWIDTH 6 0
BBX 5 10 0 0
BITMAP
10
20
00
88
88
88
88
88
98
68
ENDCHAR
STARTCHAR 00FB
ENCODING 251
SWIDTH 360 0
DWIDTH 6 0
BBX 5 10 0 0
BITMAP
20
50
00
88
88
88
88
88
98
68
ENDCHAR
STARTCHAR 00FC
ENCODING 252
SWIDTH 360 0
DWIDTH 6 0
BBX 5 9 0 0
BITMAP
50
00
88
88
88
88
88
98
68
ENDCHAR
STARTCHAR 00FD
ENCODING 253
SWIDTH 360 0
DWIDTH 6 0
BBX 5 12 0 -2
BITMAP
10
20
00
88
88
48
50
50
20
20
40
80
ENDCHAR
STARTCHAR 00FE
ENCODING 254
SWIDTH 360 0
DWIDTH 6 0
BBX 4 10 1 -2
BITMAP
80
80
E0
90
90
90
90
E0
80
80
ENDCHAR
STARTCHAR 00FF
ENCODING 255
SWIDTH 360 0
DWIDTH 6 0
BBX 5 11 0 -2
BITMAP
50
00
88
88
48
50
50
20
20
40
80
ENDCHAR
STARTCHAR 0391
ENCODING 913
SWIDTH 720 0
DWIDTH 12 0
BBX 12 12 0 -2
BITMAP
0000
0400
0400
0A00
0A00
1100
1100
1F00
2080
2080
71C0
0000
ENDCHAR
STARTCHAR 0392
ENCODING 914
SWIDTH 720 0
DWIDTH 12 0
BBX 12 12 0 -2
BITMAP
0000
3E00
1100
1080
1100
1E00
1100
1080
1080
1100
3E00
0000
ENDCHAR
STARTCHAR 0393
ENCODING 915
SWIDTH 720 0
DWIDTH 12 0
BBX 12 12 0 -2
BITMAP
0000
3F00
1100
1080
1000
1000
1000
1000
1000
1000
3800
0000
ENDCHAR
STARTCHAR 0394
ENCODING 916
SWIDTH 720 0
DWIDTH 12 0
BBX 12 12 0 -2
BITMAP
0000
0400
0400
0400
0A00
0A00
1100
1100
2080
2080
7FC0
0000
ENDCHAR
STARTCHAR 0395
ENCODING 917
SWIDTH 720 0
DWIDTH 12 0
BBX 12 12 0 -2
BITMAP
0000
3F80
1040
1000
1100
1F00
1100
1000
1040
1040
3F80
0000
ENDCHAR
STARTCHAR 0396
ENCODING 918
SWIDTH 720 0
DWIDTH 12 0
BBX 12 12 0 -2
BITMAP
0000
3FC0
2080
4100
0200
0400
0400
0800
1040
2040
7FC0
0000
ENDCHAR
STARTCHAR 0397
ENCODING 919
SWIDTH 720 0
DWIDTH 12 0
BBX 12 12 0 -2
BITMAP
0000
71C0
2080
2080
2080
3F80
2080
2080
2080
2080
71C0
0000
ENDCHAR
STARTCHAR 0398
ENCODING 920
SWIDTH 720 0
DWIDTH 12 0
BBX 12 12 0 -2
BITMAP
0000
0E00
1100
2080
5140
5F40
5140
4040
2080
1100
0E00
0000
ENDCHAR
STARTCHAR 0399
ENCODING 921
SWIDTH 720 0
DWIDTH 12 0
BBX 12 12 0 -2
BITMAP
0000
0E00
0400
0400
0400
0400
0400
0400
0400
0400
0E00
0000
ENDCHAR
STARTCHAR 039A
ENCODING 922
SWIDTH 720 0
DWIDTH 12 0
BBX 12 12 0 -2
BITMAP
0000
3B80
1100
1200
1400
1800
1400
1200
1100
1080
39C0
0000
ENDCHAR
STARTCHAR 039B
ENCODING 923
SWIDTH 720 0
DWIDTH 12 0
BBX 12 12 0 -2
BITMAP
0000
0400
0400
0A00
0A00
1100
1100
1100
2080
2080
71C0
0000
ENDCHAR
STARTCHAR 039C
ENCODING 924
SWIDTH 720 0
DWIDTH 12 0
BBX 12 12 0 -2
BITMAP
0000
C060
4040
60C0
60C0
5140
5140
4A40
4A40
4440
E4E0
0000
ENDCHAR
STARTCHAR 039D
ENCODING 925
SWIDTH 720 0
DWIDTH 12 0
BBX 12 12 0 -2
BITMAP
0000
31C0
1880
1480
1480
1280
1280
1180
1180
1080
3880
0000
ENDCHAR
STARTCHAR 039E
ENCODING 926
SWIDTH 720 0
DWIDTH 12 0
BBX 12 12 0 -2
BITMAP
0000
3FC0
2040
0000
1080
1F80
1080
0000
0000
2040
3FC0
0000
ENDCHAR
STARTCHAR 039F
ENCODING 927
SWIDTH 720 0
DWIDTH 12 0
BBX 12 12 0 -2
BITMAP
0000
0E00
1100
2080
4040
4040
4040
4040
2080
1100
0E00
0000
ENDCHAR
STARTCHAR 03A0
ENCODING 928
SWIDTH 720 0
DWIDTH 12 0
BBX 12 12 0 -2
BITMAP
0000
7FC0
2080
2080
2080
2080
2080
2080
2080
2080
71C0
0000
ENDCHAR
STARTCHAR 03A1
ENCODING 929
SWIDTH 720 0
DWIDTH 12 0
BBX 12 12 0 -2
BITMAP
0000
3E00
1100
1080
1080
1100
1E00
1000
1000
1000
3800
0000
ENDCHAR
STARTCHAR 03A3
ENCODING 931
SWIDTH 720 0
DWIDTH 12 0
BBX 12 12 0 -2
BITMAP
0000
7F00
2100
1080
0800
0400
0400
0800
1040
2040
7F80
0000
ENDCHAR
STARTCHAR 03A4
ENCODING 932
SWIDTH 720 0
DWIDTH 12 0
BBX 12 12 0 -2
BITMAP
0000
7FC0
4440
4440
0400
0400
0400
0400
0400
0400
0E00
0000
ENDCHAR
STARTCHAR 03A5
ENCODING 933
SWIDTH 720 0
DWIDTH 12 0
BBX 12 12 0 -2
BITMAP
0000
3B80
4440
4440
0400
0400
0400
0400
0400
0400
0E00
0000
ENDCHAR
STARTCHAR 03A6
ENCODING 934
SWIDTH 720 0
DWIDTH 12 0
BBX 12 12 0 -2
BITMAP
0000
0E00
0400
1F00
2480
2480
2480
1F00
0400
0400
0E00
0000
ENDCHAR
STARTCHAR 03A7
ENCODING 935
SWIDTH 720 0
DWIDTH 12 0
BBX 12 12 0 -2
BITMAP
0000
71C0
2080
1100
0A00
0400
0400
0A00
1100
2080
71C0
0000
ENDCHAR
STARTCHAR 03A8
ENCODING 936
SWIDTH 720 0
DWIDTH 12 0
BBX 12 12 0 -2
BITMAP
0000
0E00
4440
2480
2480
2480
1500
0E00
0400
0400
0E00
0000
ENDCHAR
STARTCHAR 03A9
ENCODING 937
SWIDTH 720 0
DWIDTH 12 0
BBX 12 12 0 -2
BITMAP
0000
0E00
1100
2080
2080
2080
2080
1100
4A40
4A40
7BC0
0000
ENDCHAR
STARTCHAR 03B1
ENCODING 945
SWIDTH 720 0
DWIDTH 12 0
BBX 12 12 0 -2
BITMAP
0000
0000
0000
0000
0C80
1280
2300
2200
2400
2600
1980
0000
ENDCHAR
STARTCHAR 03B2
ENCODING 946
SWIDTH 720 0
DWIDTH 12 0
BBX 12 12 0 -2
BITMAP
0000
0300
0480
0480
0900
0A00
1100
1100
3200
2C00
4000
4000
ENDCHAR
STARTCHAR 03B3
ENCODING 947
SWIDTH 720 0
DWIDTH 12 0
BBX 12 12 0 -2
BITMAP
0000
0000
0000
18C0
2500
0200
0400
0400
0800
0800
1000
0000
ENDCHAR
STARTCHAR 03B4
ENCODING 948
SWIDTH 720 0
DWIDTH 12 0
BBX 12 12 0 -2
BITMAP
0000
0600
0980
0400
0200
0600
0900
1100
2100
2200
1C00
0000
ENDCHAR
STARTCHAR 03B5
ENCODING 949
SWIDTH 720 0
DWIDTH 12 0
BBX 12 12 0 -2
BITMAP
0000
0000
0000
0E00
1100
1000
0C00
1000
2100
2200
1C00
0000
ENDCHAR
STARTCHAR 03B6
ENCODING 950
SWIDTH 720 0
DWIDTH 12 0
BBX 12 12 0 -2
BITMAP
0000
0800
0980
0700
0400
0800
1000
1000
1000
0C00
2200
1C00
ENDCHAR
STARTCHAR 03B7
ENCODING 951
SWIDTH 720 0
DWIDTH 12 0
BBX 12 12 0 -2
BITMAP
0000
0000
0000
0000
1300
2C80
0880
1100
1100
2200
0200
0200
ENDCHAR
STARTCHAR 03B8
ENCODING 952
SWIDTH 720 0
DWIDTH 12 0
BBX 12 12 0 -2
BITMAP
0000
0300
0480
0880
1080
1F80
2100
2100
2200
2400
1800
0000
ENDCHAR
STARTCHAR 03B9
ENCODING 953
SWIDTH 720 0
DWIDTH 12 0
BBX 12 12 0 -2
BITMAP
0000
0000
0000
0200
0400
0800
0800
1000
1080
1300
0C00
0000
ENDCHAR
STARTCHAR 03BA
ENCODING 954
SWIDTH 720 0
DWIDTH 12 0
BBX 12 12 0 -2
BITMAP
0000
0000
0000
1080
0900
0A00
1C00
1400
2480
2480
4300
0000
ENDCHAR
STARTCHAR 03BB
ENCODING 955
SWIDTH 720 0
DWIDTH 12 0
BBX 12 12 0 -2
BITMAP
0000
0000
0C00
0200
0200
0200
0600
0A00
1100
2100
20C0
0000
ENDCHAR
STARTCHAR 03BC
ENCODING 956
SWIDTH 720 0
DWIDTH 12 0
BBX 12 12 0 -2
BITMAP
0000
0000
0000
0880
0880
1080
1100
2100
3300
2CC0
4000
4000
ENDCHAR
STARTCHAR 03BD
ENCODING 957
SWIDTH 720 0
DWIDTH 12 0
BBX 12 12 0 -2
BITMAP
0000
0000
0000
0000
1080
0880
0900
1100
1200
1400
3800
0000
ENDCHAR
STARTCHAR 03BE
ENCODING 958
SWIDTH 720 0
DWIDTH 12 0
BBX 12 12 0 -2
BITMAP
0000
0400
0380
0400
0800
0600
0800
1000
0E00
0100
1100
0E00
ENDCHAR
STARTCHAR 03BF
ENCODING 959
SWIDTH 720 0
DWIDTH 12 0
BBX 12 12 0 -2
BITMAP
0000
0000
0000
0000
0E00
1100
2100
2100
2100
2200
1C00
0000
ENDCHAR
STARTCHAR 03C0
ENCODING 960
SWIDTH 720 0
DWIDTH 12 0
BBX 12 12 0 -2
BITMAP
0000
0000
0000
0040
1F80
2900
0A00
1200
1400
2480
4300
0000
ENDCHAR
STARTCHAR 03C1
ENCODING 961
SWIDTH 720 0
DWIDTH 12 0
BBX 12 12 0 -2
BITMAP
0000
0000
0000
0700
0880
1080
1080
1900
1600
2000
2000
2000
ENDCHAR
STARTCHAR 03C3
ENCODING 963
SWIDTH 720 0
DWIDTH 12 0
BBX 12 12 0 -2
BITMAP
0000
0000
0000
0040
0780
1A00
2100
2100
2100
1200
0C00
0000
ENDCHAR
STARTCHAR 03C4
ENCODING 964
SWIDTH 720 0
DWIDTH 12 0
BBX 12 12 0 -2
BITMAP
0000
0000
0080
1F00
2400
0400
0800
0800
1000
1200
0C00
0000
ENDCHAR
STARTCHAR 03C5
ENCODING 965
SWIDTH 720 0
DWIDTH 12 0
BBX 12 12 0 -2
BITMAP
0000
0000
0000
0000
2100
5080
1080
1100
2100
2600
1800
0000
ENDCHAR
STARTCHAR 03C6
ENCODING 966
SWIDTH 720 0
DWIDTH 12 0
BBX 12 12 0 -2
BITMAP
0000
0100
0100
0200
0F00
1280
2240
2440
2480
1F00
0800
0800
ENDCHAR
STARTCHAR 03C7
ENCODING 967
SWIDTH 720 0
DWIDTH 12 0
BBX 12 12 0 -2
BITMAP
0000
0000
0080
1080
2900
2600
0400
0C00
1400
2280
2100
0000
ENDCHAR
STARTCHAR 03C8
ENCODING 968
SWIDTH 720 0
DWIDTH 12 0
BBX 12 12 0 -2
BITMAP
0000
0100
0100
2280
1240
1240
2440
2480
1F00
0800
0800
0800
ENDCHAR
STARTCHAR 03C9
ENCODING 969
SWIDTH 720 0
DWIDTH 12 0
BBX 12 12 0 -2
BITMAP
0000
0000
0000
0000
1080
2040
2040
4440
4440
4C80
3300
0000
ENDCHAR
STARTCHAR 0401
ENCODING 1025
SWIDTH 720 0
DWIDTH 12 0
BBX 12 12 0 -2
BITMAP
1980
0000
3F80
1040
1000
1100
1F00
1100
1040
1040
3F80
0000
ENDCHAR
STARTCHAR 0410
ENCODING 1040
SWIDTH 720 0
DWIDTH 12 0
BBX 12 12 0 -2
BITMAP
0000
0400
0400
0A00
0A00
1100
1100
1F00
2080
2080
71C0
0000
ENDCHAR
STARTCHAR 0411
ENCODING 1041
SWIDTH 720 0
DWIDTH 12 0
BBX 12 12 0 -2
BITMAP
0000
3F80
1080
1000
1000
1E00
1100
1080
1080
1100
3E00
0000
ENDCHAR
STARTCHAR 0412
ENCODING 1042
SWIDTH 720 0
DWIDTH 12 0
BBX 12 12 0 -2
BITMAP
0000
3E00
1100
1080
1100
1E00
1100
1080
1080
1100
3E00
0000
ENDCHAR
STARTCHAR 0413
ENCODING 1043
SWIDTH 720 0
DWIDTH 12 0
BBX 12 12 0 -2
BITMAP
0000
3F00
1100
1080
1000
1000
1000
1000
1000
1000
3800
0000
ENDCHAR
STARTCHAR 0414
ENCODING 1044
SWIDTH 720 0
DWIDTH 12 0
BBX 12 12 0 -2
BITMAP
0000
1FC0
0900
0900
0900
0900
0900
1100
1100
2100
7FC0
4040
ENDCHAR
STARTCHAR 0415
ENCODING 1045
SWIDTH 720 0
DWIDTH 12 0
BBX 12 12 0 -2
BITMAP
0000
3F80
1040
1000
1100
1F00
1100
1000
1040
1040
3F80
0000
ENDCHAR
STARTCHAR 0416
ENCODING 1046
SWIDTH 720 0
DWIDTH 12 0
BBX 12 12 0 -2
BITMAP
0000
4E40
2480
2480
1500
0E00
1500
2500
2480
2480
6EC0
0000
ENDCHAR
STARTCHAR 0417
ENCODING 1047
SWIDTH 720 0
DWIDTH 12 0
BBX 12 12 0 -2
BITMAP
0000
0E00
1100
2100
0100
0600
0100
0080
2080
3100
2E00
0000
ENDCHAR
STARTCHAR 0418
ENCODING 1048
SWIDTH 720 0
DWIDTH 12 0
BBX 12 12 0 -2
BITMAP
0000
38C0
1180
1280
1280
1480
1480
1880
1880
1080
39C0
0000
ENDCHAR
STARTCHAR 0419
ENCODING 1049
SWIDTH 720 0
DWIDTH 12 0
BBX 12 12 0 -2
BITMAP
0900
0600
38C0
1180
1280
1280
1480
1880
1880
1080
39C0
0000
ENDCHAR
STARTCHAR 041A
ENCODING 1050
SWIDTH 720 0
DWIDTH 12 0
BBX 12 12 0 -2
BITMAP
0000
3880
1140
1200
1400
1800
1400
1200
1100
1080
39C0
0000
ENDCHAR
STARTCHAR 041B
ENCODING 1051
SWIDTH 720 0
DWIDTH 12 0
BBX 12 12 0 -2
BITMAP
0000
1FC0
0480
0480
0480
0480
0880
0880
0880
5080
21C0
0000
ENDCHAR
STARTCHAR 041C
ENCODING 1052
SWIDTH 720 0
DWIDTH 12 0
BBX 12 12 0 -2
BITMAP
0000
60C0
2080
3180
3180
2A80
2A80
4440
4440
4440
E0E0
0000
ENDCHAR
STARTCHAR 041D
ENCODING 1053
SWIDTH 720 0
DWIDTH 12 0
BBX 12 12 0 -2
BITMAP
0000
71C0
2080
2080
2080
3F80
2080
2080
2080
2080
71C0
0000
ENDCHAR
STARTCHAR 041E
ENCODING 1054
SWIDTH 720 0
DWIDTH 12 0
BBX 12 12 0 -2
BITMAP
0000
0E00
1100
2080
4040
4040
4040
4040
2080
1100
0E00
0000
ENDCHAR
STARTCHAR 041F
ENCODING 1055
SWIDTH 720 0
DWIDTH 12 0
BBX 12 12 0 -2
BITMAP
0000
7F80
2100
2100
2100
2100
2100
2100
2100
2100
7380
0000
ENDCHAR
STARTCHAR 0420
ENCODING 1056
SWIDTH 720 0
DWIDTH 12 0
BBX 12 12 0 -2
BITMAP
0000
3E00
1100
1080
1080
1100
1E00
1000
1000
1000
3800
0000
ENDCHAR
STARTCHAR 0421
ENCODING 1057
SWIDTH 720 0
DWIDTH 12 0
BBX 12 12 0 -2
BITMAP
0000
0740
08C0
1040
2000
2000
2000
2000
1040
0880
0700
0000
ENDCHAR
STARTCHAR 0422
ENCODING 1058
SWIDTH 720 0
DWIDTH 12 0
BBX 12 12 0 -2
BITMAP
0000
7FC0
4440
4440
0400
0400
0400
0400
0400
0400
0E00
0000
ENDCHAR
STARTCHAR 0423
ENCODING 1059
SWIDTH 720 0
DWIDTH 12 0
BBX 12 12 0 -2
BITMAP
0000
71C0
2080
1100
1100
0A00
0A00
0400
0400
2400
1800
0000
ENDCHAR
STARTCHAR 0424
ENCODING 1060
SWIDTH 720 0
DWIDTH 12 0
BBX 12 12 0 -2
BITMAP
0000
0E00
0400
1F00
2480
4440
4440
2480
1F00
0400
0E00
0000
ENDCHAR
STARTCHAR 0425
ENCODING 1061
SWIDTH 720 0
DWIDTH 12 0
BBX 12 12 0 -2
BITMAP
0000
71C0
2080
1100
0A00
0400
0400
0A00
1100
2080
71C0
0000
ENDCHAR
STARTCHAR 0426
ENCODING 1062
SWIDTH 720 0
DWIDTH 12 0
BBX 12 12 0 -2
BITMAP
0000
7380
2100
2100
2100
2100
2100
2100
2100
2100
7FC0
0040
ENDCHAR
STARTCHAR 0427
ENCODING 1063
SWIDTH 720 0
DWIDTH 12 0
BBX 12 12 0 -2
BITMAP
0000
7380
2100
2100
2100
2100
1300
0D00
0100
0100
0380
0000
ENDCHAR
STARTCHAR 0428
ENCODING 1064
SWIDTH 720 0
DWIDTH 12 0
BBX 12 12 0 -2
BITMAP
0000
EEE0
4440
4440
4440
4440
4440
4440
4440
4440
FFE0
0000
ENDCHAR
STARTCHAR 0429
ENCODING 1065
SWIDTH 720 0
DWIDTH 12 0
BBX 12 12 0 -2
BITMAP
0000
EEE0
4440
4440
4440
4440
4440
4440
4440
4440
FFF0
0010
ENDCHAR
STARTCHAR 042A
ENCODING 1066
SWIDTH 720 0
DWIDTH 12 0
BBX 12 12 0 -2
BITMAP
0000
3800
4800
0800
0800
0F00
0880
0840
0840
0880
1F00
0000
ENDCHAR
STARTCHAR 042B
ENCODING 1067
SWIDTH 720 0
DWIDTH 12 0
BBX 12 12 0 -2
BITMAP
0000
61C0
2080
2080
2080
3880
2480
2280
2280
2480
79C0
0000
ENDCHAR
STARTCHAR 042C
ENCODING 1068
SWIDTH 720 0
DWIDTH 12 0
BBX 12 12 0 -2
BITMAP
0000
3000
1000
1000
1E00
1100
1080
1080
1080
1100
1E00
0000
ENDCHAR
STARTCHAR 042D
ENCODING 1069
SWIDTH 720 0
DWIDTH 12 0
BBX 12 12 0 -2
BITMAP
0000
2E00
3100
2080
0080
0C80
1380
0080
2080
1100
0E00
0000
ENDCHAR
STARTCHAR 042E
ENCODING 1070
SWIDTH 720 0
DWIDTH 12 0
BBX 12 12 0 -2
BITMAP
0000
E300
4480
4840
4840
7840
4840
4840
4840
4480
E300
0000
ENDCHAR
STARTCHAR 042F
ENCODING 1071
SWIDTH 720 0
DWIDTH 12 0
BBX 12 12 0 -2
BITMAP
0000
0FC0
1080
2080
1080
0F80
0280
0480
0880
1080
71C0
0000
ENDCHAR
STARTCHAR 0430
ENCODING 1072
SWIDTH 720 0
DWIDTH 12 0
BBX 12 12 0 -2
BITMAP
0000
0000
0000
0000
0600
0900
0700
0900
1100
1200
0D80
0000
ENDCHAR
STARTCHAR 0431
ENCODING 1073
SWIDTH 720 0
DWIDTH 12 0
BBX 12 12 0 -2
BITMAP
0000
0300
0C00
1000
2000
2C00
3200
2100
2100
1200
0C00
0000
ENDCHAR
STARTCHAR 0432
ENCODING 1074
SWIDTH 720 0
DWIDTH 12 0
BBX 12 12 0 -2
BITMAP
0000
0000
0000
0000
3E00
1100
1100
1E00
1100
1100
3E00
0000
ENDCHAR
STARTCHAR 0433
ENCODING 1075
SWIDTH 720 0
DWIDTH 12 0
BBX 12 12 0 -2
BITMAP
0000
0000
0000
0000
3E00
1100
1000
1000
1000
1000
3800
0000
ENDCHAR
STARTCHAR 0434
ENCODING 1076
SWIDTH 720 0
DWIDTH 12 0
BBX 12 12 0 -2
BITMAP
0000
0000
0000
0000
1F80
0900
0900
0900
1100
1100
7F80
4080
ENDCHAR
STARTCHAR 0435
ENCODING 1077
SWIDTH 720 0
DWIDTH 12 0
BBX 12 12 0 -2
BITMAP
0000
0000
0000
0000
0C00
1200
2100
3F00
2000
1100
0E00
0000
ENDCHAR
STARTCHAR 0436
ENCODING 1078
SWIDTH 720 0
DWIDTH 12 0
BBX 12 12 0 -2
BITMAP
0000
0000
0000
0000
6EC0
1500
1500
0E00
1500
2480
6EC0
0000
ENDCHAR
STARTCHAR 0437
ENCODING 1079
SWIDTH 720 0
DWIDTH 12 0
BBX 12 12 0 -2
BITMAP
0000
0000
0000
0000
0700
1880
0080
0700
0080
1080
0F00
0000
ENDCHAR
STARTCHAR 0438
ENCODING 1080
SWIDTH 720 0
DWIDTH 12 0
BBX 12 12 0 -2
BITMAP
0000
0000
0000
0000
39C0
1180
1280
1480
1880
1080
39C0
0000
ENDCHAR
STARTCHAR 0439
ENCODING 1081
SWIDTH 720 0
DWIDTH 12 0
BBX 12 12 0 -2
BITMAP
0000
0900
0600
0000
39C0
1180
1280
1480
1880
1080
39C0
0000
ENDCHAR
STARTCHAR 043A
ENCODING 1082
SWIDTH 720 0
DWIDTH 12 0
BBX 12 12 0 -2
BITMAP
0000
0000
0000
0000
3900
1280
1400
1800
1400
1200
3980
0000
ENDCHAR
STARTCHAR 043B
ENCODING 1083
SWIDTH 720 0
DWIDTH 12 0
BBX 12 12 0 -2
BITMAP
0000
0000
0000
0000
1F00
0A00
0A00
0A00
1200
5200
2700
0000
ENDCHAR
STARTCHAR 043C
ENCODING 1084
SWIDTH 720 0
DWIDTH 12 0
BBX 12 12 0 -2
BITMAP
0000
0000
0000
0000
60C0
3180
3180
2A80
2A80
2480
75C0
0000
ENDCHAR
STARTCHAR 043D
ENCODING 1085
SWIDTH 720 0
DWIDTH 12 0
BBX 12 12 0 -2
BITMAP
0000
0000
0000
0000
3B80
1100
1100
1F00
1100
1100
3B80
0000
ENDCHAR
STARTCHAR 043E
ENCODING 1086
SWIDTH 720 0
DWIDTH 12 0
BBX 12 12 0 -2
BITMAP
0000
0000
0000
0000
0E00
1100
2080
2080
2080
1100
0E00
0000
ENDCHAR
STARTCHAR 043F
ENCODING 1087
SWIDTH 720 0
DWIDTH 12 0
BBX 12 12 0 -2
BITMAP
0000
0000
0000
0000
3F80
1100
1100
1100
1100
1100
3B80
0000
ENDCHAR
STARTCHAR 0440
ENCODING 1088
SWIDTH 720 0
DWIDTH 12 0
BBX 12 12 0 -2
BITMAP
0000
0000
0000
0000
3600
1900
1080
1080
1900
1600
1000
3800
ENDCHAR
STARTCHAR 0441
ENCODING 1089
SWIDTH 720 0
DWIDTH 12 0
BBX 12 12 0 -2
BITMAP
0000
0000
0000
0000
0E00
1100
2000
2000
2000
1100
0E00
0000
ENDCHAR
STARTCHAR 0442
ENCODING 1090
SWIDTH 720 0
DWIDTH 12 0
BBX 12 12 0 -2
BITMAP
0000
0000
0000
0000
3F80
2480
0400
0400
0400
0400
0E00
0000
ENDCHAR
STARTCHAR 0443
ENCODING 1091
SWIDTH 720 0
DWIDTH 12 0
BBX 12 12 0 -2
BITMAP
0000
0000
0000
39C0
1080
0880
0500
0300
0200
0400
2400
1800
ENDCHAR
STARTCHAR 0444
ENCODING 1092
SWIDTH 720 0
DWIDTH 12 0
BBX 12 12 0 -2
BITMAP
0000
0E00
0400
1500
2E80
4440
4440
4440
2E80
1500
0400
0E00
ENDCHAR
STARTCHAR 0445
ENCODING 1093
SWIDTH 720 0
DWIDTH 12 0
BBX 12 12 0 -2
BITMAP
0000
0000
0000
0000
3B80
1100
0A00
0400
0A00
1100
3B80
0000
ENDCHAR
STARTCHAR 0446
ENCODING 1094
SWIDTH 720 0
DWIDTH 12 0
BBX 12 12 0 -2
BITMAP
0000
0000
0000
0000
3B80
1100
1100
1100
1100
1100
3F80
0080
ENDCHAR
STARTCHAR 0447
ENCODING 1095
SWIDTH 720 0
DWIDTH 12 0
BBX 12 12 0 -2
BITMAP
0000
0000
0000
0000
3B80
1100
1100
0F00
0100
0100
0380
0000
ENDCHAR
STARTCHAR 0448
ENCODING 1096
SWIDTH 720 0
DWIDTH 12 0
BBX 12 12 0 -2
BITMAP
0000
0000
0000
0000
2480
2480
2480
2480
2480
2480
3F80
0000
ENDCHAR
STARTCHAR 0449
ENCODING 1097
SWIDTH 720 0
DWIDTH 12 0
BBX 12 12 0 -2
BITMAP
0000
0000
0000
0000
4900
4900
4900
4900
4900
4900
7FC0
0040
ENDCHAR
STARTCHAR 044A
ENCODING 1098
SWIDTH 720 0
DWIDTH 12 0
BBX 12 12 0 -2
BITMAP
0000
0000
0000
0000
3000
5000
1E00
1100
1100
1100
3E00
0000
ENDCHAR
STARTCHAR 044B
ENCODING 1099
SWIDTH 720 0
DWIDTH 12 0
BBX 12 12 0 -2
BITMAP
0000
0000
0000
0000
7380
2100
2100
3900
2500
2500
7B80
0000
ENDCHAR
STARTCHAR 044C
ENCODING 1100
SWIDTH 720 0
DWIDTH 12 0
BBX 12 12 0 -2
BITMAP
0000
0000
0000
0000
3800
1000
1E00
1100
1100
1100
3E00
0000
ENDCHAR
STARTCHAR 044D
ENCODING 1101
SWIDTH 720 0
DWIDTH 12 0
BBX 12 12 0 -2
BITMAP
0000
0000
0000
0000
1E00
2100
0B00
1500
0100
2100
1E00
0000
ENDCHAR
STARTCHAR 044E
ENCODING 1102
SWIDTH 720 0
DWIDTH 12 0
BBX 12 12 0 -2
BITMAP
0000
0000
0000
0000
7300
2480
2840
3840
2840
2480
7300
0000
ENDCHAR
STARTCHAR 044F
ENCODING 1103
SWIDTH 720 0
DWIDTH 12 0
BBX 12 12 0 -2
BITMAP
0000
0000
0000
0000
0F80
1100
1100
0F00
0900
1100
3B80
0000
ENDCHAR
STARTCHAR 0451
ENCODING 1105
SWIDTH 720 0
DWIDTH 12 0
BBX 12 12 0 -2
BITMAP
0000
0000
1200
0000
0C00
1200
2100
3F00
2000
1100
0E00
0000
ENDCHAR
STARTCHAR 2000
ENCODING 8192
SWIDTH 720 0
DWIDTH 12 0
BBX 12 12 0 -2
BITMAP
0000
0000
0000
0000
0000
0000
0000
0000
0000
0000
0000
0000
ENDCHAR
STARTCHAR 2001
ENCODING 8193
SWIDTH 720 0
DWIDTH 12 0
BBX 12 12 0 -2
BITMAP
0000
0000
0000
0000
0000
0000
0000
0000
0000
0000
0000
0000
ENDCHAR
STARTCHAR 2002
ENCODING 8194
SWIDTH 720 0
DWIDTH 12 0
BBX 12 12 0 -2
BITMAP
0000
0000
0000
0000
0000
0000
0000
0000
0000
0000
0000
0000
ENDCHAR
STARTCHAR 2003
ENCODING 8195
SWIDTH 720 0
DWIDTH 12 0
BBX 12 12 0 -2
BITMAP
0000
0000
0000
0000
0000
0000
0000
0000
0000
0000
0000
0000
ENDCHAR
STARTCHAR 2004
ENCODING 8196
SWIDTH 720 0
DWIDTH 12 0
BBX 12 12 0 -2
BITMAP
0000
0000
0000
0000
0000
0000
0000
0000
0000
0000
0000
0000
ENDCHAR
STARTCHAR 2005
ENCODING 8197
SWIDTH 720 0
DWIDTH 12 0
BBX 12 12 0 -2
BITMAP
0000
0000
0000
0000
0000
0000
0000
0000
0000
0000
0000
0000
ENDCHAR
STARTCHAR 2006
ENCODING 8198
SWIDTH 720 0
DWIDTH 12 0
BBX 12 12 0 -2
BITMAP
0000
0000
0000
0000
0000
0000
0000
0000
0000
0000
0000
0000
ENDCHAR
STARTCHAR 2007
ENCODING 8199
SWIDTH 720 0
DWIDTH 12 0
BBX 12 12 0 -2
BITMAP
0000
0000
0000
0000
0000
0000
0000
0000
0000
0000
0000
0000
ENDCHAR
STARTCHAR 2008
ENCODING 8200
SWIDTH 720 0
DWIDTH 12 0
BBX 12 12 0 -2
BITMAP
0000
0000
0000
0000
0000
0000
0000
0000
0000
0000
0000
0000
ENDCHAR
STARTCHAR 2009
ENCODING 8201
SWIDTH 720 0
DWIDTH 12 0
BBX 12 12 0 -2
BITMAP
0000
0000
0000
0000
0000
0000
0000
0000
0000
0000
0000
0000
ENDCHAR
STARTCHAR 200A
ENCODING 8202
SWIDTH 720 0
DWIDTH 12 0
BBX 12 12 0 -2
BITMAP
0000
0000
0000
0000
0000
0000
0000
0000
0000
0000
0000
0000
ENDCHAR
STARTCHAR 200B
ENCODING 8203
SWIDTH 360 0
DWIDTH 6 0
BBX 1 1 0 0
BITMAP
00
ENDCHAR
STARTCHAR 200C
ENCODING 8204
SWIDTH 360 0
DWIDTH 6 0
BBX 1 1 0 0
BITMAP
00
ENDCHAR
STARTCHAR 200D
ENCODING 8205
SWIDTH 360 0
DWIDTH 6 0
BBX 1 1 0 0
BITMAP
00
ENDCHAR
STARTCHAR 200E
ENCODING 8206
SWIDTH 360 0
DWIDTH 6 0
BBX 1 1 0 0
BITMAP
00
ENDCHAR
STARTCHAR 200F
ENCODING 8207
SWIDTH 360 0
DWIDTH 6 0
BBX 1 1 0 0
BITMAP
00
ENDCHAR
STARTCHAR 2010
ENCODING 8208
SWIDTH 720 0
DWIDTH 12 0
BBX 12 12 0 -2
BITMAP
0000
0000
0000
0000
0000
0000
0F00
0000
0000
0000
0000
0000
ENDCHAR
STARTCHAR 2014
ENCODING 8212
SWIDTH 720 0
DWIDTH 12 0
BBX 12 12 0 -2
BITMAP
0000
0000
0000
0000
0000
0000
FFF0
0000
0000
0000
0000
0000
ENDCHAR
STARTCHAR 2015
ENCODING 8213
SWIDTH 720 0
DWIDTH 12 0
BBX 12 12 0 -2
BITMAP
0000
0000
0000
0000
0000
0000
FFF0
0000
0000
0000
0000
0000
ENDCHAR
STARTCHAR 2016
ENCODING 8214
SWIDTH 720 0
DWIDTH 12 0
BBX 12 12 0 -2
BITMAP
0900
0900
0900
0900
0900
0900
0900
0900
0900
0900
0900
0900
ENDCHAR
STARTCHAR 2018
ENCODING 8216
SWIDTH 720 0
DWIDTH 12 0
BBX 12 12 0 -2
BITMAP
0020
0040
0040
0060
0000
0000
0000
0000
0000
0000
0000
0000
ENDCHAR
STARTCHAR 2019
ENCODING 8217
SWIDTH 720 0
DWIDTH 12 0
BBX 12 12 0 -2
BITMAP
3000
1000
1000
2000
0000
0000
0000
0000
0000
0000
0000
0000
ENDCHAR
STARTCHAR 201C
ENCODING 8220
SWIDTH 720 0
DWIDTH 12 0
BBX 12 12 0 -2
BITMAP
0120
0240
0240
0360
0000
0000
0000
0000
0000
0000
0000
0000
ENDCHAR
STARTCHAR 201D
ENCODING 8221
SWIDTH 720 0
DWIDTH 12 0
BBX 12 12 0 -2
BITMAP
6C00
2400
2400
4800
0000
0000
0000
0000
0000
0000
0000
0000
ENDCHAR
STARTCHAR 2020
ENCODING 8224
SWIDTH 720 0
DWIDTH 12 0
BBX 12 12 0 -2
BITMAP
0400
0E00
2480
7FC0
2480
0E00
0E00
0400
0400
0400
0400
0400
ENDCHAR
STARTCHAR 2021
ENCODING 8225
SWIDTH 720 0
DWIDTH 12 0
BBX 12 12 0 -2
BITMAP
0E00
0E00
2480
7FC0
2480
0400
0400
2480
7FC0
2480
0E00
0E00
ENDCHAR
STARTCHAR 2025
ENCODING 8229
SWIDTH 720 0
DWIDTH 12 0
BBX 12 12 0 -2
BITMAP
0000
0000
0000
0000
0000
2080
2080
0000
0000
0000
0000
0000
ENDCHAR
STARTCHAR 2026
ENCODING 8230
SWIDTH 720 0
DWIDTH 12 0
BBX 12 12 0 -2
BITMAP
0000
0000
0000
0000
0000
4440
4440
0000
0000
0000
0000
0000
ENDCHAR
STARTCHAR 2030
ENCODING 8240
SWIDTH 720 0
DWIDTH 12 0
BBX 12 12 0 -2
BITMAP
3100
4900
4A00
4C00
3400
0800
1000
1440
2AA0
4AA0
4440
0000
ENDCHAR
STARTCHAR 2032
ENCODING 8242
SWIDTH 720 0
DWIDTH 12 0
BBX 12 12 0 -2
BITMAP
1800
0800
0800
1000
0000
0000
0000
0000
0000
0000
0000
0000
ENDCHAR
STARTCHAR 2033
ENCODING 8243
SWIDTH 720 0
DWIDTH 12 0
BBX 12 12 0 -2
BITMAP
3600
1200
1200
2400
0000
0000
0000
0000
0000
0000
0000
0000
ENDCHAR
STARTCHAR 203B
ENCODING 8251
SWIDTH 720 0
DWIDTH 12 0
BBX 12 12 0 -2
BITMAP
0000
4620
2640
1080
0900
6660
6660
0900
1080
2640
4620
0000
ENDCHAR
STARTCHAR 203E
ENCODING 8254
SWIDTH 720 0
DWIDTH 12 0
BBX 12 12 0 -2
BITMAP
FFF0
0000
0000
0000
0000
0000
0000
0000
0000
0000
0000
0000
ENDCHAR
STARTCHAR 2103
ENCODING 8451
SWIDTH 720 0
DWIDTH 12 0
BBX 12 12 0 -2
BITMAP
0000
2340
54C0
2840
1000
1000
1000
1000
1040
0880
0700
0000
ENDCHAR
STARTCHAR 212B
ENCODING 8491
SWIDTH 720 0
DWIDTH 12 0
BBX 12 12 0 -2
BITMAP
0400
0A00
0A00
0400
0A00
0A00
1100
1F00
2080
2080
71C0
0000
ENDCHAR
STARTCHAR 2190
ENCODING 8592
SWIDTH 720 0
DWIDTH 12 0
BBX 12 12 0 -2
BITMAP
0000
0000
0000
0C00
3000
FFF0
3000
0C00
0000
0000
0000
0000
ENDCHAR
STARTCHAR 2191
ENCODING 8593
SWIDTH 720 0
DWIDTH 12 0
BBX 12 12 0 -2
BITMAP
0200
0200
0700
0700
0A80
0A80
0200
0200
0200
0200
0200
0200
ENDCHAR
STARTCHAR 2192
ENCODING 8594
SWIDTH 720 0
DWIDTH 12 0
BBX 12 12 0 -2
BITMAP
0000
0000
0000
0300
00C0
FFF0
00C0
0300
0000
0000
0000
0000
ENDCHAR
STARTCHAR 2193
ENCODING 8595
SWIDTH 720 0
DWIDTH 12 0
BBX 12 12 0 -2
BITMAP
0200
0200
0200
0200
0200
0200
0A80
0A80
0700
0700
0200
0200
ENDCHAR
STARTCHAR 21D2
ENCODING 8658
SWIDTH 720 0
DWIDTH 12 0
BBX 12 12 0 -2
BITMAP
0000
0000
0080
0040
FFE0
0010
FFE0
0040
0080
0000
0000
0000
ENDCHAR
STARTCHAR 21D4
ENCODING 8660
SWIDTH 720 0
DWIDTH 12 0
BBX 12 12 0 -2
BITMAP
0000
0000
1080
2040
7FE0
8010
7FE0
2040
1080
0000
0000
0000
ENDCHAR
STARTCHAR 2200
ENCODING 8704
SWIDTH 720 0
DWIDTH 12 0
BBX 12 12 0 -2
BITMAP
0000
4040
4040
2080
3F80
1100
1100
0A00
0A00
0400
0400
0000
ENDCHAR
STARTCHAR 2202
ENCODING 8706
SWIDTH 720 0
DWIDTH 12 0
BBX 12 12 0 -2
BITMAP
0000
0700
0880
0080
0680
0980
1180
3100
3300
1200
0C00
0000
ENDCHAR
STARTCHAR 2203
ENCODING 8707
SWIDTH 720 0
DWIDTH 12 0
BBX 12 12 0 -2
BITMAP
0000
3FC0
0040
0040
0040
3FC0
0040
0040
0040
3FC0
0000
0000
ENDCHAR
STARTCHAR 2207
ENCODING 8711
SWIDTH 720 0
DWIDTH 12 0
BBX 12 12 0 -2
BITMAP
0000
FFE0
7FC0
6040
2080
3080
1100
1900
0A00
0E00
0400
0400
ENDCHAR
STARTCHAR 2208
ENCODING 8712
SWIDTH 720 0
DWIDTH 12 0
BBX 12 12 0 -2
BITMAP
0000
0000
0FC0
1000
2000
3FC0
2000
1000
0FC0
0000
0000
0000
ENDCHAR
STARTCHAR 220B
ENCODING 8715
SWIDTH 720 0
DWIDTH 12 0
BBX 12 12 0 -2
BITMAP
0000
0000
3F00
0080
0040
3FC0
0040
0080
3F00
0000
0000
0000
ENDCHAR
STARTCHAR 2212
ENCODING 8722
SWIDTH 720 0
DWIDTH 12 0
BBX 12 12 0 -2
BITMAP
0000
0000
0000
0000
0000
3FC0
0000
0000
0000
0000
0000
0000
ENDCHAR
STARTCHAR 221A
ENCODING 8730
SWIDTH 720 0
DWIDTH 12 0
BBX 12 12 0 -2
BITMAP
03F0
0200
0200
0400
0400
0400
0800
4800
E800
3000
1000
0000
ENDCHAR
STARTCHAR 221D
ENCODING 8733
SWIDTH 720 0
DWIDTH 12 0
BBX 12 12 0 -2
BITMAP
0000
0000
0000
18C0
2520
4200
4200
2520
18C0
0000
0000
0000
ENDCHAR
STARTCHAR 221E
ENCODING 8734
SWIDTH 720 0
DWIDTH 12 0
BBX 12 12 0 -2
BITMAP
0000
0000
0000
3180
4A40
8420
8420
4A40
3180
0000
0000
0000
ENDCHAR
STARTCHAR 2220
ENCODING 8736
SWIDTH 720 0
DWIDTH 12 0
BBX 12 12 0 -2
BITMAP
0000
0040
0080
0100
0200
0400
0800
1000
2000
7FE0
0000
0000
ENDCHAR
STARTCHAR 2225
ENCODING 8741
SWIDTH 720 0
DWIDTH 12 0
BBX 12 12 0 -2
BITMAP
0900
0900
0900
0900
0900
0900
0900
0900
0900
0900
0900
0900
ENDCHAR
STARTCHAR 2227
ENCODING 8743
SWIDTH 720 0
DWIDTH 12 0
BBX 12 12 0 -2
BITMAP
0000
0400
0400
0A00
0A00
1100
1100
2080
2080
4040
4040
0000
ENDCHAR
STARTCHAR 2228
ENCODING 8744
SWIDTH 720 0
DWIDTH 12 0
BBX 12 12 0 -2
BITMAP
0000
4040
4040
2080
2080
1100
1100
0A00
0A00
0400
0400
0000
ENDCHAR
STARTCHAR 2229
ENCODING 8745
SWIDTH 720 0
DWIDTH 12 0
BBX 12 12 0 -2
BITMAP
0000
1E00
2100
4080
4080
4080
4080
4080
4080
4080
4080
0000
ENDCHAR
STARTCHAR 222A
ENCODING 8746
SWIDTH 720 0
DWIDTH 12 0
BBX 12 12 0 -2
BITMAP
0000
4080
4080
4080
4080
4080
4080
4080
4080
2100
1E00
0000
ENDCHAR
STARTCHAR 222B
ENCODING 8747
SWIDTH 720 0
DWIDTH 12 0
BBX 12 12 0 -2
BITMAP
00C0
0100
0200
0200
0300
0300
0100
0180
0180
0080
0100
0600
ENDCHAR
STARTCHAR 222C
ENCODING 8748
SWIDTH 720 0
DWIDTH 12 0
BBX 12 12 0 -2
BITMAP
0660
0880
1100
1100
1980
1980
0880
0CC0
0CC0
0440
0880
3300
ENDCHAR
STARTCHAR 2234
ENCODING 8756
SWIDTH 720 0
DWIDTH 12 0
BBX 12 12 0 -2
BITMAP
0000
0000
0600
0600
0000
0000
0000
0000
30C0
30C0
0000
0000
ENDCHAR
STARTCHAR 2235
ENCODING 8757
SWIDTH 720 0
DWIDTH 12 0
BBX 12 12 0 -2
BITMAP
0000
0000
6180
6180
0000
0000
0000
0000
0C00
0C00
0000
0000
ENDCHAR
STARTCHAR 223D
ENCODING 8765
SWIDTH 720 0
DWIDTH 12 0
BBX 12 12 0 -2
BITMAP
0000
0000
0000
1980
2240
4220
4420
2440
1980
0000
0000
0000
ENDCHAR
STARTCHAR 2252
ENCODING 8786
SWIDTH 720 0
DWIDTH 12 0
BBX 12 12 0 -2
BITMAP
0000
1800
1800
0000
7FE0
0000
0000
7FE0
0000
0180
0180
0000
ENDCHAR
STARTCHAR 2260
ENCODING 8800
SWIDTH 720 0
DWIDTH 12 0
BBX 12 12 0 -2
BITMAP
0000
0100
0100
0200
7FC0
0400
0400
7FC0
0800
1000
1000
0000
ENDCHAR
STARTCHAR 2261
ENCODING 8801
SWIDTH 720 0
DWIDTH 12 0
BBX 12 12 0 -2
BITMAP
0000
0000
0000
7FE0
0000
0000
7FE0
0000
0000
7FE0
0000
0000
ENDCHAR
STARTCHAR 2266
ENCODING 8806
SWIDTH 720 0
DWIDTH 12 0
BBX 12 12 0 -2
BITMAP
0000
0060
0380
1C00
6000
1C00
0380
0060
7FE0
0000
7FE0
0000
ENDCHAR
STARTCHAR 2267
ENCODING 8807
SWIDTH 720 0
DWIDTH 12 0
BBX 12 12 0 -2
BITMAP
0000
6000
1C00
0380
0060
0380
1C00
6000
7FE0
0000
7FE0
0000
ENDCHAR
STARTCHAR 226A
ENCODING 8810
SWIDTH 720 0
DWIDTH 12 0
BBX 12 12 0 -2
BITMAP
0000
0000
0440
0880
1100
2200
4400
2200
1100
0880
0440
0000
ENDCHAR
STARTCHAR 226B
ENCODING 8811
SWIDTH 720 0
DWIDTH 12 0
BBX 12 12 0 -2
BITMAP
0000
0000
4400
2200
1100
0880
0440
0880
1100
2200
4400
0000
ENDCHAR
STARTCHAR 2282
ENCODING 8834
SWIDTH 720 0
DWIDTH 12 0
BBX 12 12 0 -2
BITMAP
0000
0000
1FE0
2000
4000
4000
4000
4000
2000
1FE0
0000
0000
ENDCHAR
STARTCHAR 2283
ENCODING 8835
SWIDTH 720 0
DWIDTH 12 0
BBX 12 12 0 -2
BITMAP
0000
0000
7F80
0040
0020
0020
0020
0020
0040
7F80
0000
0000
ENDCHAR
STARTCHAR 2286
ENCODING 8838
SWIDTH 720 0
DWIDTH 12 0
BBX 12 12 0 -2
BITMAP
0000
0000
1FE0
2000
4000
4000
2000
1FE0
0000
0000
3FE0
0000
ENDCHAR
STARTCHAR 2287
ENCODING 8839
SWIDTH 720 0
DWIDTH 12 0
BBX 12 12 0 -2
BITMAP
0000
0000
7F80
0040
0020
0020
0040
7F80
0000
0000
7FC0
0000
ENDCHAR
STARTCHAR 22A5
ENCODING 8869
SWIDTH 720 0
DWIDTH 12 0
BBX 12 12 0 -2
BITMAP
0000
0400
0400
0400
0400
0400
0400
0400
0400
7FE0
0000
0000
ENDCHAR
STARTCHAR 2312
ENCODING 8978
SWIDTH 720 0
DWIDTH 12 0
BBX 12 12 0 -2
BITMAP
0F00
30C0
4020
0000
0000
0000
0000
0000
0000
0000
0000
0000
ENDCHAR
STARTCHAR 2500
ENCODING 9472
SWIDTH 720 0
DWIDTH 12 0
BBX 12 12 0 -2
BITMAP
0000
0000
0000
0000
0000
FFF0
0000
0000
0000
0000
0000
0000
ENDCHAR
STARTCHAR 2501
ENCODING 9473
SWIDTH 720 0
DWIDTH 12 0
BBX 12 12 0 -2
BITMAP
0000
0000
0000
0000
0000
FFF0
FFF0
0000
0000
0000
0000
0000
ENDCHAR
STARTCHAR 2502
ENCODING 9474
SWIDTH 720 0
DWIDTH 12 0
BBX 12 12 0 -2
BITMAP
0400
0400
0400
0400
0400
0400
0400
0400
0400
0400
0400
0400
ENDCHAR
STARTCHAR 2503
ENCODING 9475
SWIDTH 720 0
DWIDTH 12 0
BBX 12 12 0 -2
BITMAP
0600
0600
0600
0600
0600
0600
0600
0600
0600
0600
0600
0600
ENDCHAR
STARTCHAR 250C
ENCODING 9484
SWIDTH 720 0
DWIDTH 12 0
BBX 12 12 0 -2
BITMAP
0000
0000
0000
0000
0000
07F0
0400
0400
0400
0400
0400
0400
ENDCHAR
STARTCHAR 250F
ENCODING 9487
SWIDTH 720 0
DWIDTH 12 0
BBX 12 12 0 -2
BITMAP
0000
0000
0000
0000
0000
07F0
07F0
0600
0600
0600
0600
0600
ENDCHAR
STARTCHAR 2510
ENCODING 9488
SWIDTH 720 0
DWIDTH 12 0
BBX 12 12 0 -2
BITMAP
0000
0000
0000
0000
0000
FC00
0400
0400
0400
0400
0400
0400
ENDCHAR
STARTCHAR 2513
ENCODING 9491
SWIDTH 720 0
DWIDTH 12 0
BBX 12 12 0 -2
BITMAP
0000
0000
0000
0000
0000
FE00
FE00
0600
0600
0600
0600
0600
ENDCHAR
STARTCHAR 2514
ENCODING 9492
SWIDTH 720 0
DWIDTH 12 0
BBX 12 12 0 -2
BITMAP
0400
0400
0400
0400
0400
07F0
0000
0000
0000
0000
0000
0000
ENDCHAR
STARTCHAR 2517
ENCODING 9495
SWIDTH 720 0
DWIDTH 12 0
BBX 12 12 0 -2
BITMAP
0600
0600
0600
0600
0600
07F0
07F0
0000
0000
0000
0000
0000
ENDCHAR
STARTCHAR 2518
ENCODING 9496
SWIDTH 720 0
DWIDTH 12 0
BBX 12 12 0 -2
BITMAP
0400
0400
0400
0400
0400
FC00
0000
0000
0000
0000
0000
0000
ENDCHAR
STARTCHAR 251B
ENCODING 9499
SWIDTH 720 0
DWIDTH 12 0
BBX 12 12 0 -2
BITMAP
0600
0600
0600
0600
0600
FE00
FE00
0000
0000
0000
0000
0000
ENDCHAR
STARTCHAR 251C
ENCODING 9500
SWIDTH 720 0
DWIDTH 12 0
BBX 12 12 0 -2
BITMAP
0400
0400
0400
0400
0400
07F0
0400
0400
0400
0400
0400
0400
ENDCHAR
STARTCHAR 251D
ENCODING 9501
SWIDTH 720 0
DWIDTH 12 0
BBX 12 12 0 -2
BITMAP
0400
0400
0400
0400
0400
07F0
07F0
0400
0400
0400
0400
0400
ENDCHAR
STARTCHAR 2520
ENCODING 9504
SWIDTH 720 0
DWIDTH 12 0
BBX 12 12 0 -2
BITMAP
0600
0600
0600
0600
0600
07F0
0600
0600
0600
0600
0600
0600
ENDCHAR
STARTCHAR 2523
ENCODING 9507
SWIDTH 720 0
DWIDTH 12 0
BBX 12 12 0 -2
BITMAP
0600
0600
0600
0600
0600
07F0
07F0
0600
0600
0600
0600
0600
ENDCHAR
STARTCHAR 2524
ENCODING 9508
SWIDTH 720 0
DWIDTH 12 0
BBX 12 12 0 -2
BITMAP
0400
0400
0400
0400
0400
FC00
0400
0400
0400
0400
0400
0400
ENDCHAR
STARTCHAR 2525
ENCODING 9509
SWIDTH 720 0
DWIDTH 12 0
BBX 12 12 0 -2
BITMAP
0400
0400
0400
0400
0400
FC00
FC00
0400
0400
0400
0400
0400
ENDCHAR
STARTCHAR 2528
ENCODING 9512
SWIDTH 720 0
DWIDTH 12 0
BBX 12 12 0 -2
BITMAP
0600
0600
0600
0600
0600
FE00
0600
0600
0600
0600
0600
0600
ENDCHAR
STARTCHAR 252B
ENCODING 9515
SWIDTH 720 0
DWIDTH 12 0
BBX 12 12 0 -2
BITMAP
0600
0600
0600
0600
0600
FE00
FE00
0600
0600
0600
0600
0600
ENDCHAR
STARTCHAR 252C
ENCODING 9516
SWIDTH 720 0
DWIDTH 12 0
BBX 12 12 0 -2
BITMAP
0000
0000
0000
0000
0000
FFF0
0400
0400
0400
0400
0400
0400
ENDCHAR
STARTCHAR 252F
ENCODING 9519
SWIDTH 720 0
DWIDTH 12 0
BBX 12 12 0 -2
BITMAP
0000
0000
0000
0000
0000
FFF0
FFF0
0400
0400
0400
0400
0400
ENDCHAR
STARTCHAR 2530
ENCODING 9520
SWIDTH 720 0
DWIDTH 12 0
BBX 12 12 0 -2
BITMAP
0000
0000
0000
0000
0000
FFF0
0600
0600
0600
0600
0600
0600
ENDCHAR
STARTCHAR 2533
ENCODING 9523
SWIDTH 720 0
DWIDTH 12 0
BBX 12 12 0 -2
BITMAP
0000
0000
0000
0000
0000
FFF0
FFF0
0600
0600
0600
0600
0600
ENDCHAR
STARTCHAR 2534
ENCODING 9524
SWIDTH 720 0
DWIDTH 12 0
BBX 12 12 0 -2
BITMAP
0400
0400
0400
0400
0400
FFF0
0000
0000
0000
0000
0000
0000
ENDCHAR
STARTCHAR 2537
ENCODING 9527
SWIDTH 720 0
DWIDTH 12 0
BBX 12 12 0 -2
BITMAP
0400
0400
0400
0400
0400
FFF0
FFF0
0000
0000
0000
0000
0000
ENDCHAR
STARTCHAR 2538
ENCODING 9528
SWIDTH 720 0
DWIDTH 12 0
BBX 12 12 0 -2
BITMAP
0600
0600
0600
0600
0600
FFF0
0000
0000
0000
0000
0000
0000
ENDCHAR
STARTCHAR 253B
ENCODING 9531
SWIDTH 720 0
DWIDTH 12 0
BBX 12 12 0 -2
BITMAP
0600
0600
0600
0600
0600
FFF0
FFF0
0000
0000
0000
0000
0000
ENDCHAR
STARTCHAR 253C
ENCODING 9532
SWIDTH 720 0
DWIDTH 12 0
BBX 12 12 0 -2
BITMAP
0400
0400
0400
0400
0400
FFF0
0400
0400
0400
0400
0400
0400
ENDCHAR
STARTCHAR 253F
ENCODING 9535
SWIDTH 720 0
DWIDTH 12 0
BBX 12 12 0 -2
BITMAP
0400
0400
0400
0400
0400
FFF0
FFF0
0400
0400
0400
0400
0400
ENDCHAR
STARTCHAR 2542
ENCODING 9538
SWIDTH 720 0
DWIDTH 12 0
BBX 12 12 0 -2
BITMAP
0600
0600
0600
0600
0600
FFF0
0600
0600
0600
0600
0600
0600
ENDCHAR
STARTCHAR 254B
ENCODING 9547
SWIDTH 720 0
DWIDTH 12 0
BBX 12 12 0 -2
BITMAP
0600
0600
0600
0600
0600
FFF0
FFF0
0600
0600
0600
0600
0600
ENDCHAR
STARTCHAR 25A0
ENCODING 9632
SWIDTH 720 0
DWIDTH 12 0
BBX 12 12 0 -2
BITMAP
0000
FFE0
FFE0
FFE0
FFE0
FFE0
FFE0
FFE0
FFE0
FFE0
FFE0
FFE0
ENDCHAR
STARTCHAR 25A1
ENCODING 9633
SWIDTH 720 0
DWIDTH 12 0
BBX 12 12 0 -2
BITMAP
0000
FFE0
8020
8020
8020
8020
8020
8020
8020
8020
8020
FFE0
ENDCHAR
STARTCHAR 25B2
ENCODING 9650
SWIDTH 720 0
DWIDTH 12 0
BBX 12 12 0 -2
BITMAP
0400
0400
0E00
0E00
1F00
1F00
3F80
3F80
7FC0
7FC0
FFE0
0000
ENDCHAR
STARTCHAR 25B3
ENCODING 9651
SWIDTH 720 0
DWIDTH 12 0
BBX 12 12 0 -2
BITMAP
0400
0400
0A00
0A00
1100
1100
2080
2080
4040
4040
FFE0
0000
ENDCHAR
STARTCHAR 25BC
ENCODING 9660
SWIDTH 720 0
DWIDTH 12 0
BBX 12 12 0 -2
BITMAP
0000
FFE0
7FC0
7FC0
3F80
3F80
1F00
1F00
0E00
0E00
0400
0400
ENDCHAR
STARTCHAR 25BD
ENCODING 9661
SWIDTH 720 0
DWIDTH 12 0
BBX 12 12 0 -2
BITMAP
0000
FFE0
4040
4040
2080
2080
1100
1100
0A00
0A00
0400
0400
ENDCHAR
STARTCHAR 25C6
ENCODING 9670
SWIDTH 720 0
DWIDTH 12 0
BBX 12 12 0 -2
BITMAP
0000
0400
0E00
1F00
3F80
7FC0
FFE0
7FC0
3F80
1F00
0E00
0400
ENDCHAR
STARTCHAR 25C7
ENCODING 9671
SWIDTH 720 0
DWIDTH 12 0
BBX 12 12 0 -2
BITMAP
0000
0400
0A00
1100
2080
4040
8020
4040
2080
1100
0A00
0400
ENDCHAR
STARTCHAR 25CB
ENCODING 9675
SWIDTH 720 0
DWIDTH 12 0
BBX 12 12 0 -2
BITMAP
0000
0E00
3180
4040
4040
8020
8020
8020
4040
4040
3180
0E00
ENDCHAR
STARTCHAR 25CE
ENCODING 9678
SWIDTH 720 0
DWIDTH 12 0
BBX 12 12 0 -2
BITMAP
0000
0E00
3180
4E40
5140
A0A0
A0A0
A0A0
5140
4E40
3180
0E00
ENDCHAR
STARTCHAR 25CF
ENCODING 9679
SWIDTH 720 0
DWIDTH 12 0
BBX 12 12 0 -2
BITMAP
0000
0E00
3F80
7FC0
7FC0
FFE0
FFE0
FFE0
7FC0
7FC0
3F80
0E00
ENDCHAR
STARTCHAR 25EF
ENCODING 9711
SWIDTH 720 0
DWIDTH 12 0
BBX 12 12 0 -2
BITMAP
0F00
30C0
4020
4020
8010
8010
8010
8010
4020
4020
30C0
0F00
ENDCHAR
STARTCHAR 2605
ENCODING 9733
SWIDTH 720 0
DWIDTH 12 0
BBX 12 12 0 -2
BITMAP
0000
0400
0400
0E00
FFE0
7FC0
3F80
1F00
3F80
3B80
60C0
0000
ENDCHAR
STARTCHAR 2606
ENCODING 9734
SWIDTH 720 0
DWIDTH 12 0
BBX 12 12 0 -2
BITMAP
0000
0400
0400
0A00
FBE0
4040
2080
1100
2480
3B80
60C0
0000
ENDCHAR
STARTCHAR 2640
ENCODING 9792
SWIDTH 720 0
DWIDTH 12 0
BBX 12 12 0 -2
BITMAP
0000
0E00
1100
1100
1100
0E00
0400
0400
3F80
0400
0400
0400
ENDCHAR
STARTCHAR 2642
ENCODING 9794
SWIDTH 720 0
DWIDTH 12 0
BBX 12 12 0 -2
BITMAP
0000
03E0
0060
00A0
0120
0220
3C00
4400
4400
4400
3800
0000
ENDCHAR
STARTCHAR 266A
ENCODING 9834
SWIDTH 720 0
DWIDTH 12 0
BBX 12 12 0 -2
BITMAP
0200
0300
0380
02C0
0240
0240
0280
0200
1E00
3E00
1C00
0000
ENDCHAR
STARTCHAR 266D
ENCODING 9837
SWIDTH 720 0
DWIDTH 12 0
BBX 12 12 0 -2
BITMAP
0800
0800
0800
0800
0800
0B00
0D80
0980
0900
0A00
0C00
0000
ENDCHAR
STARTCHAR 266F
ENCODING 9839
SWIDTH 720 0
DWIDTH 12 0
BBX 12 12 0 -2
BITMAP
0100
0100
09C0
0FC0
3F00
3900
09C0
0FC0
3F00
3900
0800
0800
ENDCHAR
STARTCHAR 3000
ENCODING 12288
SWIDTH 720 0
DWIDTH 12 0
BBX 12 12 0 -2
BITMAP
0000
0000
0000
0000
0000
0000
0000
0000
0000
0000
0000
0000
ENDCHAR
STARTCHAR 3001
ENCODING 12289
SWIDTH 720 0
DWIDTH 12 0
BBX 12 12 0 -2
BITMAP
0000
0000
0000
0000
0000
0000
0000
0000
0000
4000
2000
2000
ENDCHAR
STARTCHAR 3002
ENCODING 12290
SWIDTH 720 0
DWIDTH 12 0
BBX 12 12 0 -2
BITMAP
0000
0000
0000
0000
0000
0000
0000
0000
0000
3000
4800
3000
ENDCHAR
STARTCHAR 3003
ENCODING 12291
SWIDTH 720 0
DWIDTH 12 0
BBX 12 12 0 -2
BITMAP
0000
0000
0000
0900
0900
0900
1200
1200
2400
0000
0000
0000
ENDCHAR
STARTCHAR 3005
ENCODING 12293
SWIDTH 720 0
DWIDTH 12 0
BBX 12 12 0 -2
BITMAP
0000
0000
0800
0F80
0880
1100
2100
4A00
0600
0100
0080
0000
ENDCHAR
STARTCHAR 3006
ENCODING 12294
SWIDTH 720 0
DWIDTH 12 0
BBX 12 12 0 -2
BITMAP
0000
0040
0040
0080
0100
1A00
2600
4900
5000
6000
0000
0000
ENDCHAR
STARTCHAR 3007
ENCODING 12295
SWIDTH 720 0
DWIDTH 12 0
BBX 12 12 0 -2
BITMAP
0000
0E00
3180
4040
4040
8020
8020
8020
4040
4040
3180
0E00
ENDCHAR
STARTCHAR 3008
ENCODING 12296
SWIDTH 720 0
DWIDTH 12 0
BBX 12 12 0 -2
BITMAP
0040
0080
0080
0100
0100
0200
0200
0100
0100
0080
0080
0040
ENDCHAR
STARTCHAR 3009
ENCODING 12297
SWIDTH 720 0
DWIDTH 12 0
BBX 12 12 0 -2
BITMAP
2000
1000
1000
0800
0800
0400
0400
0800
0800
1000
1000
2000
ENDCHAR
STARTCHAR 300A
ENCODING 12298
SWIDTH 720 0
DWIDTH 12 0
BBX 12 12 0 -2
BITMAP
0240
0480
0480
0900
0900
1200
1200
0900
0900
0480
0480
0240
ENDCHAR
STARTCHAR 300B
ENCODING 12299
SWIDTH 720 0
DWIDTH 12 0
BBX 12 12 0 -2
BITMAP
2400
1200
1200
0900
0900
0480
0480
0900
0900
1200
1200
2400
ENDCHAR
STARTCHAR 300C
ENCODING 12300
SWIDTH 720 0
DWIDTH 12 0
BBX 12 12 0 -2
BITMAP
03C0
0200
0200
0200
0200
0200
0200
0200
0000
0000
0000
0000
ENDCHAR
STARTCHAR 300D
ENCODING 12301
SWIDTH 720 0
DWIDTH 12 0
BBX 12 12 0 -2
BITMAP
0000
0000
0000
0000
0400
0400
0400
0400
0400
0400
0400
3C00
ENDCHAR
STARTCHAR 300E
ENCODING 12302
SWIDTH 720 0
DWIDTH 12 0
BBX 12 12 0 -2
BITMAP
07C0
0440
05C0
0500
0500
0500
0500
0700
0000
0000
0000
0000
ENDCHAR
STARTCHAR 300F
ENCODING 12303
SWIDTH 720 0
DWIDTH 12 0
BBX 12 12 0 -2
BITMAP
0000
0000
0000
0000
0E00
0A00
0A00
0A00
0A00
3A00
2200
3E00
ENDCHAR
STARTCHAR 3010
ENCODING 12304
SWIDTH 720 0
DWIDTH 12 0
BBX 12 12 0 -2
BITMAP
03C0
0380
0380
0300
0300
0300
0300
0300
0300
0380
0380
03C0
ENDCHAR
STARTCHAR 3011
ENCODING 12305
SWIDTH 720 0
DWIDTH 12 0
BBX 12 12 0 -2
BITMAP
3C00
1C00
1C00
0C00
0C00
0C00
0C00
0C00
0C00
1C00
1C00
3C00
ENDCHAR
STARTCHAR 3012
ENCODING 12306
SWIDTH 720 0
DWIDTH 12 0
BBX 12 12 0 -2
BITMAP
0000
7FE0
7FE0
0000
FFF0
FFF0
0600
0600
0600
0600
0600
0600
ENDCHAR
STARTCHAR 3013
ENCODING 12307
SWIDTH 720 0
DWIDTH 12 0
BBX 12 12 0 -2
BITMAP
0000
0000
0000
FFF0
FFF0
0000
0000
FFF0
FFF0
0000
0000
0000
ENDCHAR
STARTCHAR 3014
ENCODING 12308
SWIDTH 720 0
DWIDTH 12 0
BBX 12 12 0 -2
BITMAP
00C0
0300
0200
0200
0200
0200
0200
0200
0200
0200
0300
00C0
ENDCHAR
STARTCHAR 3015
ENCODING 12309
SWIDTH 720 0
DWIDTH 12 0
BBX 12 12 0 -2
BITMAP
3000
0C00
0400
0400
0400
0400
0400
0400
0400
0400
0C00
3000
ENDCHAR
STARTCHAR 301C
ENCODING 12316
SWIDTH 720 0
DWIDTH 12 0
BBX 12 12 0 -2
BITMAP
0000
0000
0000
0000
3800
4400
0220
01C0
0000
0000
0000
0000
ENDCHAR
STARTCHAR 3041
ENCODING 12353
SWIDTH 720 0
DWIDTH 12 0
BBX 12 12 0 -2
BITMAP
0000
0000
0000
0000
0800
1E00
0A00
1F00
1C80
2880
1100
0000
ENDCHAR
STARTCHAR 3042
ENCODING 12354
SWIDTH 720 0
DWIDTH 12 0
BBX 12 12 0 -2
BITMAP
0800
0800
3F00
0800
0F00
1280
3240
5440
4C40
4880
3300
0000
ENDCHAR
STARTCHAR 3043
ENCODING 12355
SWIDTH 720 0
DWIDTH 12 0
BBX 12 12 0 -2
BITMAP
0000
0000
0000
0000
0000
1000
1200
2100
2900
1000
0000
0000
ENDCHAR
STARTCHAR 3044
ENCODING 12356
SWIDTH 720 0
DWIDTH 12 0
BBX 12 12 0 -2
BITMAP
0000
0000
2000
2100
4080
4080
4040
4840
2840
1000
0000
0000
ENDCHAR
STARTCHAR 3045
ENCODING 12357
SWIDTH 720 0
DWIDTH 12 0
BBX 12 12 0 -2
BITMAP
0000
0000
0000
0000
1000
0C00
1C00
2200
0200
0400
1800
0000
ENDCHAR
STARTCHAR 3046
ENCODING 12358
SWIDTH 720 0
DWIDTH 12 0
BBX 12 12 0 -2
BITMAP
0800
0600
0000
0E00
3100
0080
0080
0080
0100
0600
1800
0000
ENDCHAR
STARTCHAR 3047
ENCODING 12359
SWIDTH 720 0
DWIDTH 12 0
BBX 12 12 0 -2
BITMAP
0000
0000
0000
0000
1000
0800
3E00
0400
1800
2400
4700
0000
ENDCHAR
STARTCHAR 3048
ENCODING 12360
SWIDTH 720 0
DWIDTH 12 0
BBX 12 12 0 -2
BITMAP
0800
0600
0000
1F00
0100
0200
0400
0C00
1200
2200
41C0
0000
ENDCHAR
STARTCHAR 3049
ENCODING 12361
SWIDTH 720 0
DWIDTH 12 0
BBX 12 12 0 -2
BITMAP
0000
0000
0000
0000
0800
3D00
0880
0E00
1900
2900
1200
0000
ENDCHAR
STARTCHAR 304A
ENCODING 12362
SWIDTH 720 0
DWIDTH 12 0
BBX 12 12 0 -2
BITMAP
0800
0800
0E40
7820
0820
0F00
1880
2840
4840
4880
3300
0000
ENDCHAR
STARTCHAR 304B
ENCODING 12363
SWIDTH 720 0
DWIDTH 12 0
BBX 12 12 0 -2
BITMAP
0000
1000
1080
7C40
1240
1220
1220
2200
2200
5200
0C00
0000
ENDCHAR
STARTCHAR 304C
ENCODING 12364
SWIDTH 720 0
DWIDTH 12 0
BBX 12 12 0 -2
BITMAP
0000
10A0
10A0
7C40
1240
1220
1220
2200
2200
5200
0C00
0000
ENDCHAR
STARTCHAR 304D
ENCODING 12365
SWIDTH 720 0
DWIDTH 12 0
BBX 12 12 0 -2
BITMAP
0400
0700
3C00
0380
3E00
0100
0E80
1180
2000
1000
0F00
0000
ENDCHAR
STARTCHAR 304E
ENCODING 12366
SWIDTH 720 0
DWIDTH 12 0
BBX 12 12 0 -2
BITMAP
0540
0740
3C00
0380
3E00
0100
0E80
1180
2000
1000
0F00
0000
ENDCHAR
STARTCHAR 304F
ENCODING 12367
SWIDTH 720 0
DWIDTH 12 0
BBX 12 12 0 -2
BITMAP
0000
0200
0200
0400
0800
1000
1000
0800
0400
0200
0200
0000
ENDCHAR
STARTCHAR 3050
ENCODING 12368
SWIDTH 720 0
DWIDTH 12 0
BBX 12 12 0 -2
BITMAP
0000
0400
0680
0A80
1000
2000
2000
1000
0800
0400
0400
0000
ENDCHAR
STARTCHAR 3051
ENCODING 12369
SWIDTH 720 0
DWIDTH 12 0
BBX 12 12 0 -2
BITMAP
0080
2080
20E0
2780
4080
4080
4080
5080
2080
0100
0600
0000
ENDCHAR
STARTCHAR 3052
ENCODING 12370
SWIDTH 720 0
DWIDTH 12 0
BBX 12 12 0 -2
BITMAP
0150
2150
20E0
2780
4080
4080
4080
5080
2080
0100
0600
0000
ENDCHAR
STARTCHAR 3053
ENCODING 12371
SWIDTH 720 0
DWIDTH 12 0
BBX 12 12 0 -2
BITMAP
0000
1000
0F80
0000
0000
0000
0000
2000
2040
1F80
0000
0000
ENDCHAR
STARTCHAR 3054
ENCODING 12372
SWIDTH 720 0
DWIDTH 12 0
BBX 12 12 0 -2
BITMAP
0000
2140
1F40
0000
0000
0000
0000
4000
4080
3F00
0000
0000
ENDCHAR
STARTCHAR 3055
ENCODING 12373
SWIDTH 720 0
DWIDTH 12 0
BBX 12 12 0 -2
BITMAP
0400
0400
02C0
3F00
0200
0100
1E80
2180
2000
1800
0700
0000
ENDCHAR
STARTCHAR 3056
ENCODING 12374
SWIDTH 720 0
DWIDTH 12 0
BBX 12 12 0 -2
BITMAP
0940
0940
0580
7E00
0400
0200
3D00
4300
4000
3000
0E00
0000
ENDCHAR
STARTCHAR 3057
ENCODING 12375
SWIDTH 720 0
DWIDTH 12 0
BBX 12 12 0 -2
BITMAP
0000
1000
1000
1000
1000
1000
1000
1000
1040
0980
0600
0000
ENDCHAR
STARTCHAR 3058
ENCODING 12376
SWIDTH 720 0
DWIDTH 12 0
BBX 12 12 0 -2
BITMAP
0000
1000
1140
1140
1000
1000
1000
1000
1040
0980
0600
0000
ENDCHAR
STARTCHAR 3059
ENCODING 12377
SWIDTH 720 0
DWIDTH 12 0
BBX 12 12 0 -2
BITMAP
0200
0200
7FC0
0200
0E00
1200
1200
0E00
0200
0400
1800
0000
ENDCHAR
STARTCHAR 305A
ENCODING 12378
SWIDTH 720 0
DWIDTH 12 0
BBX 12 12 0 -2
BITMAP
02A0
02A0
7FC0
0200
0E00
1200
1200
0E00
0200
0400
1800
0000
ENDCHAR
STARTCHAR 305B
ENCODING 12379
SWIDTH 720 0
DWIDTH 12 0
BBX 12 12 0 -2
BITMAP
0000
0100
1100
11E0
7F00
1100
1100
1200
1000
0800
0780
0000
ENDCHAR
STARTCHAR 305C
ENCODING 12380
SWIDTH 720 0
DWIDTH 12 0
BBX 12 12 0 -2
BITMAP
0000
02A0
22A0
2380
FE00
2200
2200
2400
2000
1000
0F00
0000
ENDCHAR
STARTCHAR 305D
ENCODING 12381
SWIDTH 720 0
DWIDTH 12 0
BBX 12 12 0 -2
BITMAP
0000
1F00
0200
0400
09C0
7E00
0400
0800
0800
0400
0300
0000
ENDCHAR
STARTCHAR 305E
ENCODING 12382
SWIDTH 720 0
DWIDTH 12 0
BBX 12 12 0 -2
BITMAP
0000
1FA0
02A0
0400
09C0
7E00
0400
0800
0800
0400
0300
0000
ENDCHAR
STARTCHAR 305F
ENCODING 12383
SWIDTH 720 0
DWIDTH 12 0
BBX 12 12 0 -2
BITMAP
0800
0800
7E00
1000
10C0
1300
2000
2000
2400
4400
43C0
0000
ENDCHAR
STARTCHAR 3060
ENCODING 12384
SWIDTH 720 0
DWIDTH 12 0
BBX 12 12 0 -2
BITMAP
0800
08A0
7EA0
1000
10C0
1300
2000
2000
2400
4400
43C0
0000
ENDCHAR
STARTCHAR 3061
ENCODING 12385
SWIDTH 720 0
DWIDTH 12 0
BBX 12 12 0 -2
BITMAP
1000
1000
7F00
1000
1000
2600
3900
2080
0080
0300
1C00
0000
ENDCHAR
STARTCHAR 3062
ENCODING 12386
SWIDTH 720 0
DWIDTH 12 0
BBX 12 12 0 -2
BITMAP
1000
1140
7F40
1000
1000
2600
3900
2080
0080
0300
1C00
0000
ENDCHAR
STARTCHAR 3063
ENCODING 12387
SWIDTH 720 0
DWIDTH 12 0
BBX 12 12 0 -2
BITMAP
0000
0000
0000
0000
0000
0000
0E00
3100
0100
0200
0C00
0000
ENDCHAR
STARTCHAR 3064
ENCODING 12388
SWIDTH 720 0
DWIDTH 12 0
BBX 12 12 0 -2
BITMAP
0000
0000
0F00
F080
0040
0040
0080
0300
0C00
0000
0000
0000
ENDCHAR
STARTCHAR 3065
ENCODING 12389
SWIDTH 720 0
DWIDTH 12 0
BBX 12 12 0 -2
BITMAP
0000
00A0
1EA0
E100
0080
0080
0100
0600
1800
0000
0000
0000
ENDCHAR
STARTCHAR 3066
ENCODING 12390
SWIDTH 720 0
DWIDTH 12 0
BBX 12 12 0 -2
BITMAP
0000
01C0
7E00
0200
0400
0800
0800
0800
0400
0380
0000
0000
ENDCHAR
STARTCHAR 3067
ENCODING 12391
SWIDTH 720 0
DWIDTH 12 0
BBX 12 12 0 -2
BITMAP
0000
0380
FC00
0540
0940
1000
1000
1000
0800
0700
0000
0000
ENDCHAR
STARTCHAR 3068
ENCODING 12392
SWIDTH 720 0
DWIDTH 12 0
BBX 12 12 0 -2
BITMAP
0000
0800
0800
0800
04C0
0700
0C00
1000
2000
1000
0FC0
0000
ENDCHAR
STARTCHAR 3069
ENCODING 12393
SWIDTH 720 0
DWIDTH 12 0
BBX 12 12 0 -2
BITMAP
0000
08A0
08A0
0800
04C0
0700
0C00
1000
2000
1000
0FC0
0000
ENDCHAR
STARTCHAR 306A
ENCODING 12394
SWIDTH 720 0
DWIDTH 12 0
BBX 12 12 0 -2
BITMAP
0800
0800
3E40
10A0
1080
2080
2080
4780
08C0
08A0
0700
0000
ENDCHAR
STARTCHAR 306B
ENCODING 12395
SWIDTH 720 0
DWIDTH 12 0
BBX 12 12 0 -2
BITMAP
0000
2000
2180
2600
4000
4000
4000
4400
4400
53C0
2000
0000
ENDCHAR
STARTCHAR 306C
ENCODING 12396
SWIDTH 720 0
DWIDTH 12 0
BBX 12 12 0 -2
BITMAP
0000
0200
2200
2F80
3240
2220
3420
5420
49A0
4A40
31C0
0000
ENDCHAR
STARTCHAR 306D
ENCODING 12397
SWIDTH 720 0
DWIDTH 12 0
BBX 12 12 0 -2
BITMAP
1000
1000
1000
7B80
1440
1840
1040
3040
31C0
5260
1180
0000
ENDCHAR
STARTCHAR 306E
ENCODING 12398
SWIDTH 720 0
DWIDTH 12 0
BBX 12 12 0 -2
BITMAP
0000
0F00
1480
2440
4420
4420
4820
4840
3080
0300
0000
0000
ENDCHAR
STARTCHAR 306F
ENCODING 12399
SWIDTH 720 0
DWIDTH 12 0
BBX 12 12 0 -2
BITMAP
0000
2080
20E0
2F80
4080
4080
4080
4780
48C0
58A0
2700
0000
ENDCHAR
STARTCHAR 3070
ENCODING 12400
SWIDTH 720 0
DWIDTH 12 0
BBX 12 12 0 -2
BITMAP
0050
20D0
2080
2FC0
4080
4080
4080
4780
48C0
58A0
2700
0000
ENDCHAR
STARTCHAR 3071
ENCODING 12401
SWIDTH 720 0
DWIDTH 12 0
BBX 12 12 0 -2
BITMAP
0060
2090
20E0
2F80
4080
4080
4080
4780
48C0
58A0
2700
0000
ENDCHAR
STARTCHAR 3072
ENCODING 12402
SWIDTH 720 0
DWIDTH 12 0
BBX 12 12 0 -2
BITMAP
0000
0200
1C00
0880
1080
10C0
20A0
2080
2080
1100
0E00
0000
ENDCHAR
STARTCHAR 3073
ENCODING 12403
SWIDTH 720 0
DWIDTH 12 0
BBX 12 12 0 -2
BITMAP
0000
0450
3850
1100
2100
2180
4140
4100
4100
2200
1C00
0000
ENDCHAR
STARTCHAR 3074
ENCODING 12404
SWIDTH 720 0
DWIDTH 12 0
BBX 12 12 0 -2
BITMAP
0060
0890
7060
1100
2100
2180
4140
4100
4100
2200
1C00
0000
ENDCHAR
STARTCHAR 3075
ENCODING 12405
SWIDTH 720 0
DWIDTH 12 0
BBX 12 12 0 -2
BITMAP
0000
0800
0700
0000
0400
0480
1240
1220
2120
5100
0E00
0000
ENDCHAR
STARTCHAR 3076
ENCODING 12406
SWIDTH 720 0
DWIDTH 12 0
BBX 12 12 0 -2
BITMAP
0000
08A0
07A0
0000
0400
0480
1240
1220
2120
5100
0E00
0000
ENDCHAR
STARTCHAR 3077
ENCODING 12407
SWIDTH 720 0
DWIDTH 12 0
BBX 12 12 0 -2
BITMAP
0000
0860
0790
0060
0400
0480
1240
1220
2120
5100
0E00
0000
ENDCHAR
STARTCHAR 3078
ENCODING 12408
SWIDTH 720 0
DWIDTH 12 0
BBX 12 12 0 -2
BITMAP
0000
0000
0000
0C00
1200
6100
0080
0040
0020
0000
0000
0000
ENDCHAR
STARTCHAR 3079
ENCODING 12409
SWIDTH 720 0
DWIDTH 12 0
BBX 12 12 0 -2
BITMAP
0000
00A0
00A0
0C00
1200
6100
0080
0040
0020
0000
0000
0000
ENDCHAR
STARTCHAR 307A
ENCODING 12410
SWIDTH 720 0
DWIDTH 12 0
BBX 12 12 0 -2
BITMAP
0000
00C0
0120
0CC0
1200
2100
C080
0040
0020
0000
0000
0000
ENDCHAR
STARTCHAR 307B
ENCODING 12411
SWIDTH 720 0
DWIDTH 12 0
BBX 12 12 0 -2
BITMAP
0000
2FE0
2080
2080
47C0
4080
4080
4780
48C0
58A0
2700
0000
ENDCHAR
STARTCHAR 307C
ENCODING 12412
SWIDTH 720 0
DWIDTH 12 0
BBX 12 12 0 -2
BITMAP
0050
2FD0
2080
2080
47C0
4080
4080
4780
48C0
58A0
2700
0000
ENDCHAR
STARTCHAR 307D
ENCODING 12413
SWIDTH 720 0
DWIDTH 12 0
BBX 12 12 0 -2
BITMAP
0060
2F90
20E0
2080
47C0
4080
4080
4780
48C0
58A0
2700
0000
ENDCHAR
STARTCHAR 307E
ENCODING 12414
SWIDTH 720 0
DWIDTH 12 0
BBX 12 12 0 -2
BITMAP
0200
0200
3FC0
0200
0380
3E00
0200
1E00
2380
2240
1C00
0000
ENDCHAR
STARTCHAR 307F
ENCODING 12415
SWIDTH 720 0
DWIDTH 12 0
BBX 12 12 0 -2
BITMAP
0000
3C00
0400
0480
0480
1F80
28C0
48A0
5080
2100
0200
0000
ENDCHAR
STARTCHAR 3080
ENCODING 12416
SWIDTH 720 0
DWIDTH 12 0
BBX 12 12 0 -2
BITMAP
0800
0800
7CC0
0820
3800
4800
4800
5040
3040
1040
0F80
0000
ENDCHAR
STARTCHAR 3081
ENCODING 12417
SWIDTH 720 0
DWIDTH 12 0
BBX 12 12 0 -2
BITMAP
0000
0200
2700
2A80
3240
2420
5420
4820
4840
3080
0300
0000
ENDCHAR
STARTCHAR 3082
ENCODING 12418
SWIDTH 720 0
DWIDTH 12 0
BBX 12 12 0 -2
BITMAP
0800
0800
3E00
0800
1100
7E00
1000
1080
1080
0900
0600
0000
ENDCHAR
STARTCHAR 3083
ENCODING 12419
SWIDTH 720 0
DWIDTH 12 0
BBX 12 12 0 -2
BITMAP
0000
0000
0000
0000
0A00
0B80
3D40
0840
0580
0400
0400
0000
ENDCHAR
STARTCHAR 3084
ENCODING 12420
SWIDTH 720 0
DWIDTH 12 0
BBX 12 12 0 -2
BITMAP
0400
2400
2380
1640
3A20
D040
0980
0800
0800
0400
0400
0000
ENDCHAR
STARTCHAR 3085
ENCODING 12421
SWIDTH 720 0
DWIDTH 12 0
BBX 12 12 0 -2
BITMAP
0000
0000
0000
0000
0200
1380
1640
1A40
1380
0200
0400
0000
ENDCHAR
STARTCHAR 3086
ENCODING 12422
SWIDTH 720 0
DWIDTH 12 0
BBX 12 12 0 -2
BITMAP
0200
0200
4780
4A40
5220
6220
6A40
4780
4200
0400
0800
0000
ENDCHAR
STARTCHAR 3087
ENCODING 12423
SWIDTH 720 0
DWIDTH 12 0
BBX 12 12 0 -2
BITMAP
0000
0000
0000
0000
0400
0700
0400
0400
1E00
2580
1800
0000
ENDCHAR
STARTCHAR 3088
ENCODING 12424
SWIDTH 720 0
DWIDTH 12 0
BBX 12 12 0 -2
BITMAP
0400
0400
0400
0780
0400
0400
0400
3C00
4700
44C0
3800
0000
ENDCHAR
STARTCHAR 3089
ENCODING 12425
SWIDTH 720 0
DWIDTH 12 0
BBX 12 12 0 -2
BITMAP
0800
0600
0000
2000
2000
2F00
3080
2080
0080
0300
1C00
0000
ENDCHAR
STARTCHAR 308A
ENCODING 12426
SWIDTH 720 0
DWIDTH 12 0
BBX 12 12 0 -2
BITMAP
0100
0880
0880
1080
1080
1080
1480
0880
0080
0100
0600
0000
ENDCHAR
STARTCHAR 308B
ENCODING 12427
SWIDTH 720 0
DWIDTH 12 0
BBX 12 12 0 -2
BITMAP
0000
1F00
0200
0400
0F00
1880
2040
4040
0C80
1300
0E00
0000
ENDCHAR
STARTCHAR 308C
ENCODING 12428
SWIDTH 720 0
DWIDTH 12 0
BBX 12 12 0 -2
BITMAP
1000
1000
1300
1480
7880
1080
1080
3080
3080
5060
1000
0000
ENDCHAR
STARTCHAR 308D
ENCODING 12429
SWIDTH 720 0
DWIDTH 12 0
BBX 12 12 0 -2
BITMAP
0000
1F00
0200
0400
0F00
1880
2040
4040
0080
0100
0E00
0000
ENDCHAR
STARTCHAR 308E
ENCODING 12430
SWIDTH 720 0
DWIDTH 12 0
BBX 12 12 0 -2
BITMAP
0000
0000
0000
0000
0800
1C00
0B80
0C40
1840
2880
0900
0000
ENDCHAR
STARTCHAR 308F
ENCODING 12431
SWIDTH 720 0
DWIDTH 12 0
BBX 12 12 0 -2
BITMAP
1000
1000
1000
1B80
7440
1820
1020
3020
5040
1180
1000
0000
ENDCHAR
STARTCHAR 3090
ENCODING 12432
SWIDTH 720 0
DWIDTH 12 0
BBX 12 12 0 -2
BITMAP
0000
1E00
0200
0200
0F80
1440
2420
4820
4B20
34C0
0380
0000
ENDCHAR
STARTCHAR 3091
ENCODING 12433
SWIDTH 720 0
DWIDTH 12 0
BBX 12 12 0 -2
BITMAP
0000
1F80
0200
0F80
1040
2640
0980
0600
0000
2CC0
4320
0000
ENDCHAR
STARTCHAR 3092
ENCODING 12434
SWIDTH 720 0
DWIDTH 12 0
BBX 12 12 0 -2
BITMAP
0400
0400
3F00
0800
10C0
3900
4600
0A00
1200
1000
0F80
0000
ENDCHAR
STARTCHAR 3093
ENCODING 12435
SWIDTH 720 0
DWIDTH 12 0
BBX 12 12 0 -2
BITMAP
0000
0400
0400
0800
0800
1000
1C00
2200
2220
4240
4180
0000
ENDCHAR
STARTCHAR 309B
ENCODING 12443
SWIDTH 720 0
DWIDTH 12 0
BBX 12 12 0 -2
BITMAP
2000
9000
5000
4000
0000
0000
0000
0000
0000
0000
0000
0000
ENDCHAR
STARTCHAR 309C
ENCODING 12444
SWIDTH 720 0
DWIDTH 12 0
BBX 12 12 0 -2
BITMAP
0000
4000
A000
A000
4000
0000
0000
0000
0000
0000
0000
0000
ENDCHAR
STARTCHAR 309D
ENCODING 12445
SWIDTH 720 0
DWIDTH 12 0
BBX 12 12 0 -2
BITMAP
0000
0000
0000
0000
1800
0600
0100
0380
0400
0000
0000
0000
ENDCHAR
STARTCHAR 309E
ENCODING 12446
SWIDTH 720 0
DWIDTH 12 0
BBX 12 12 0 -2
BITMAP
0000
0100
0480
0200
3000
0C00
0200
0700
0800
0000
0000
0000
ENDCHAR
STARTCHAR 30A1
ENCODING 12449
SWIDTH 720 0
DWIDTH 12 0
BBX 12 12 0 -2
BITMAP
0000
0000
0000
0000
0000
3F00
0900
0E00
0800
0800
1000
0000
ENDCHAR
STARTCHAR 30A2
ENCODING 12450
SWIDTH 720 0
DWIDTH 12 0
BBX 12 12 0 -2
BITMAP
0000
0000
FFC0
0040
0880
0900
0E00
0800
0800
1000
2000
0000
ENDCHAR
STARTCHAR 30A3
ENCODING 12451
SWIDTH 720 0
DWIDTH 12 0
BBX 12 12 0 -2
BITMAP
0000
0000
0000
0000
0200
0200
0400
0C00
3400
0400
0400
0000
ENDCHAR
STARTCHAR 30A4
ENCODING 12452
SWIDTH 720 0
DWIDTH 12 0
BBX 12 12 0 -2
BITMAP
0000
0080
0080
0100
0200
0E00
3200
0200
0200
0200
0200
0000
ENDCHAR
STARTCHAR 30A5
ENCODING 12453
SWIDTH 720 0
DWIDTH 12 0
BBX 12 12 0 -2
BITMAP
0000
0000
0000
0000
0800
0800
3F00
2100
2200
0400
1800
0000
ENDCHAR
STARTCHAR 30A6
ENCODING 12454
SWIDTH 720 0
DWIDTH 12 0
BBX 12 12 0 -2
BITMAP
0400
0400
0400
7FC0
4040
4040
4080
0080
0100
0600
1800
0000
ENDCHAR
STARTCHAR 30A7
ENCODING 12455
SWIDTH 720 0
DWIDTH 12 0
BBX 12 12 0 -2
BITMAP
0000
0000
0000
0000
0000
0000
1F00
0400
0400
3F80
0000
0000
ENDCHAR
STARTCHAR 30A8
ENCODING 12456
SWIDTH 720 0
DWIDTH 12 0
BBX 12 12 0 -2
BITMAP
0000
0000
0000
3FC0
0400
0400
0400
0400
0400
7FE0
0000
0000
ENDCHAR
STARTCHAR 30A9
ENCODING 12457
SWIDTH 720 0
DWIDTH 12 0
BBX 12 12 0 -2
BITMAP
0000
0000
0000
0000
0200
0200
3F80
0600
0A00
3200
0600
0000
ENDCHAR
STARTCHAR 30AA
ENCODING 12458
SWIDTH 720 0
DWIDTH 12 0
BBX 12 12 0 -2
BITMAP
0100
0100
0100
3FE0
0300
0300
0500
0900
3100
0100
0300
0000
ENDCHAR
STARTCHAR 30AB
ENCODING 12459
SWIDTH 720 0
DWIDTH 12 0
BBX 12 12 0 -2
BITMAP
0400
0400
0400
3FC0
0440
0440
0440
0840
0840
1040
2180
0000
ENDCHAR
STARTCHAR 30AC
ENCODING 12460
SWIDTH 720 0
DWIDTH 12 0
BBX 12 12 0 -2
BITMAP
04A0
04A0
0400
3FC0
0440
0440
0440
0840
0840
1040
2180
0000
ENDCHAR
STARTCHAR 30AD
ENCODING 12461
SWIDTH 720 0
DWIDTH 12 0
BBX 12 12 0 -2
BITMAP
0400
0400
0780
7C00
0400
07C0
7E00
0200
0200
0200
0200
0000
ENDCHAR
STARTCHAR 30AE
ENCODING 12462
SWIDTH 720 0
DWIDTH 12 0
BBX 12 12 0 -2
BITMAP
04A0
04A0
0780
7C00
0400
07C0
7E00
0200
0200
0200
0200
0000
ENDCHAR
STARTCHAR 30AF
ENCODING 12463
SWIDTH 720 0
DWIDTH 12 0
BBX 12 12 0 -2
BITMAP
0000
0400
07C0
0440
0840
1080
2080
0100
0200
0C00
3000
0000
ENDCHAR
STARTCHAR 30B0
ENCODING 12464
SWIDTH 720 0
DWIDTH 12 0
BBX 12 12 0 -2
BITMAP
0050
0450
07C0
0440
0840
1080
2080
0100
0200
0C00
3000
0000
ENDCHAR
STARTCHAR 30B1
ENCODING 12465
SWIDTH 720 0
DWIDTH 12 0
BBX 12 12 0 -2
BITMAP
0000
1000
1000
1FE0
1100
2100
4100
0100
0200
0400
1800
0000
ENDCHAR
STARTCHAR 30B2
ENCODING 12466
SWIDTH 720 0
DWIDTH 12 0
BBX 12 12 0 -2
BITMAP
0000
1050
1050
1FC0
1100
2100
4100
0100
0200
0400
1800
0000
ENDCHAR
STARTCHAR 30B3
ENCODING 12467
SWIDTH 720 0
DWIDTH 12 0
BBX 12 12 0 -2
BITMAP
0000
0000
3FC0
0040
0040
0040
0040
0040
3FC0
0040
0000
0000
ENDCHAR
STARTCHAR 30B4
ENCODING 12468
SWIDTH 720 0
DWIDTH 12 0
BBX 12 12 0 -2
BITMAP
0000
00A0
00A0
7F80
0080
0080
0080
0080
0080
7F80
0080
0000
ENDCHAR
STARTCHAR 30B5
ENCODING 12469
SWIDTH 720 0
DWIDTH 12 0
BBX 12 12 0 -2
BITMAP
0000
0880
0880
0880
7FE0
0880
0880
0880
0100
0200
0C00
0000
ENDCHAR
STARTCHAR 30B6
ENCODING 12470
SWIDTH 720 0
DWIDTH 12 0
BBX 12 12 0 -2
BITMAP
0000
1150
1150
1100
7FC0
1100
1100
1100
0200
0400
1800
0000
ENDCHAR
STARTCHAR 30B7
ENCODING 12471
SWIDTH 720 0
DWIDTH 12 0
BBX 12 12 0 -2
BITMAP
0000
3000
0800
0040
6040
1080
0080
0100
0200
0C00
7000
0000
ENDCHAR
STARTCHAR 30B8
ENCODING 12472
SWIDTH 720 0
DWIDTH 12 0
BBX 12 12 0 -2
BITMAP
0000
30A0
08A0
0000
6040
1040
0080
0100
0200
0C00
7000
0000
ENDCHAR
STARTCHAR 30B9
ENCODING 12473
SWIDTH 720 0
DWIDTH 12 0
BBX 12 12 0 -2
BITMAP
0000
0000
3F80
0080
0080
0100
0100
0280
0440
1820
6020
0000
ENDCHAR
STARTCHAR 30BA
ENCODING 12474
SWIDTH 720 0
DWIDTH 12 0
BBX 12 12 0 -2
BITMAP
0000
00A0
3FA0
0080
0080
0100
0100
0280
0440
1820
6020
0000
ENDCHAR
STARTCHAR 30BB
ENCODING 12475
SWIDTH 720 0
DWIDTH 12 0
BBX 12 12 0 -2
BITMAP
0000
1000
1000
11C0
1E40
F080
1100
1200
1000
1000
0F80
0000
ENDCHAR
STARTCHAR 30BC
ENCODING 12476
SWIDTH 720 0
DWIDTH 12 0
BBX 12 12 0 -2
BITMAP
0000
10A0
10A0
11C0
1E40
F080
1100
1200
1000
1000
0F80
0000
ENDCHAR
STARTCHAR 30BD
ENCODING 12477
SWIDTH 720 0
DWIDTH 12 0
BBX 12 12 0 -2
BITMAP
0000
0000
2040
1040
1040
0080
0080
0100
0200
0C00
3000
0000
ENDCHAR
STARTCHAR 30BE
ENCODING 12478
SWIDTH 720 0
DWIDTH 12 0
BBX 12 12 0 -2
BITMAP
0000
00A0
20A0
1040
1040
0080
0080
0100
0200
0C00
3000
0000
ENDCHAR
STARTCHAR 30BF
ENCODING 12479
SWIDTH 720 0
DWIDTH 12 0
BBX 12 12 0 -2
BITMAP
0000
0400
07C0
0840
1040
6680
0180
0100
0200
0C00
3000
0000
ENDCHAR
STARTCHAR 30C0
ENCODING 12480
SWIDTH 720 0
DWIDTH 12 0
BBX 12 12 0 -2
BITMAP
0000
0450
07D0
0840
1040
6680
0180
0100
0200
0C00
3000
0000
ENDCHAR
STARTCHAR 30C1
ENCODING 12481
SWIDTH 720 0
DWIDTH 12 0
BBX 12 12 0 -2
BITMAP
0000
0180
3E00
0200
0200
7FE0
0200
0200
0200
0400
1800
0000
ENDCHAR
STARTCHAR 30C2
ENCODING 12482
SWIDTH 720 0
DWIDTH 12 0
BBX 12 12 0 -2
BITMAP
0000
01D0
3E50
0200
0200
7FE0
0200
0200
0200
0400
1800
0000
ENDCHAR
STARTCHAR 30C3
ENCODING 12483
SWIDTH 720 0
DWIDTH 12 0
BBX 12 12 0 -2
BITMAP
0000
0000
0000
0000
0800
2480
1480
1100
0100
0600
1800
0000
ENDCHAR
STARTCHAR 30C4
ENCODING 12484
SWIDTH 720 0
DWIDTH 12 0
BBX 12 12 0 -2
BITMAP
0000
0800
4440
2440
2440
2080
0080
0100
0200
0C00
3000
0000
ENDCHAR
STARTCHAR 30C5
ENCODING 12485
SWIDTH 720 0
DWIDTH 12 0
BBX 12 12 0 -2
BITMAP
00A0
08A0
4400
2440
2440
2080
0080
0100
0200
0C00
3000
0000
ENDCHAR
STARTCHAR 30C6
ENCODING 12486
SWIDTH 720 0
DWIDTH 12 0
BBX 12 12 0 -2
BITMAP
0000
0000
1F80
0000
0000
7FE0
0200
0200
0400
0800
3000
0000
ENDCHAR
STARTCHAR 30C7
ENCODING 12487
SWIDTH 720 0
DWIDTH 12 0
BBX 12 12 0 -2
BITMAP
0000
00A0
1FA0
0000
0000
7FE0
0200
0200
0400
0800
3000
0000
ENDCHAR
STARTCHAR 30C8
ENCODING 12488
SWIDTH 720 0
DWIDTH 12 0
BBX 12 12 0 -2
BITMAP
1000
1000
1000
1000
1C00
1300
1080
1000
1000
1000
1000
0000
ENDCHAR
STARTCHAR 30C9
ENCODING 12489
SWIDTH 720 0
DWIDTH 12 0
BBX 12 12 0 -2
BITMAP
1000
1140
1140
1000
1C00
1300
1080
1000
1000
1000
1000
0000
ENDCHAR
STARTCHAR 30CA
ENCODING 12490
SWIDTH 720 0
DWIDTH 12 0
BBX 12 12 0 -2
BITMAP
0200
0200
0200
7FE0
0200
0200
0200
0400
0400
0800
3000
0000
ENDCHAR
STARTCHAR 30CB
ENCODING 12491
SWIDTH 720 0
DWIDTH 12 0
BBX 12 12 0 -2
BITMAP
0000
0000
0000
1F80
0000
0000
0000
0000
7FE0
0000
0000
0000
ENDCHAR
STARTCHAR 30CC
ENCODING 12492
SWIDTH 720 0
DWIDTH 12 0
BBX 12 12 0 -2
BITMAP
0000
0000
1FC0
0040
0080
0C80
0300
0280
0440
1820
6000
0000
ENDCHAR
STARTCHAR 30CD
ENCODING 12493
SWIDTH 720 0
DWIDTH 12 0
BBX 12 12 0 -2
BITMAP
0400
0400
3F80
0080
0100
0600
1D80
6460
0400
0400
0400
0000
ENDCHAR
STARTCHAR 30CE
ENCODING 12494
SWIDTH 720 0
DWIDTH 12 0
BBX 12 12 0 -2
BITMAP
0000
0000
0040
0040
0080
0080
0100
0200
0C00
3000
0000
0000
ENDCHAR
STARTCHAR 30CF
ENCODING 12495
SWIDTH 720 0
DWIDTH 12 0
BBX 12 12 0 -2
BITMAP
0000
0000
0000
0900
0880
0880
1040
1040
1020
2020
4020
0000
ENDCHAR
STARTCHAR 30D0
ENCODING 12496
SWIDTH 720 0
DWIDTH 12 0
BBX 12 12 0 -2
BITMAP
0000
0050
0050
0900
0880
0880
1040
1040
1020
2020
4020
0000
ENDCHAR
STARTCHAR 30D1
ENCODING 12497
SWIDTH 720 0
DWIDTH 12 0
BBX 12 12 0 -2
BITMAP
0000
0060
0090
0960
0880
0880
1040
1040
1020
2020
4020
0000
ENDCHAR
STARTCHAR 30D2
ENCODING 12498
SWIDTH 720 0
DWIDTH 12 0
BBX 12 12 0 -2
BITMAP
0000
2000
2000
2000
2180
3E00
2000
2000
2000
1FC0
0000
0000
ENDCHAR
STARTCHAR 30D3
ENCODING 12499
SWIDTH 720 0
DWIDTH 12 0
BBX 12 12 0 -2
BITMAP
0000
20A0
20A0
2000
2380
3C00
2000
2000
2000
1FC0
0000
0000
ENDCHAR
STARTCHAR 30D4
ENCODING 12500
SWIDTH 720 0
DWIDTH 12 0
BBX 12 12 0 -2
BITMAP
0000
20C0
2120
20C0
2380
3C00
2000
2000
2000
1FC0
0000
0000
ENDCHAR
STARTCHAR 30D5
ENCODING 12501
SWIDTH 720 0
DWIDTH 12 0
BBX 12 12 0 -2
BITMAP
0000
0000
7FC0
0040
0040
0080
0080
0100
0200
0C00
3000
0000
ENDCHAR
STARTCHAR 30D6
ENCODING 12502
SWIDTH 720 0
DWIDTH 12 0
BBX 12 12 0 -2
BITMAP
0140
0140
7F80
0080
0080
0100
0100
0200
0400
1800
6000
0000
ENDCHAR
STARTCHAR 30D7
ENCODING 12503
SWIDTH 720 0
DWIDTH 12 0
BBX 12 12 0 -2
BITMAP
00C0
0120
7FC0
0080
0080
0100
0100
0200
0400
1800
6000
0000
ENDCHAR
STARTCHAR 30D8
ENCODING 12504
SWIDTH 720 0
DWIDTH 12 0
BBX 12 12 0 -2
BITMAP
0000
0000
0000
0C00
1200
2100
4080
0040
0020
0000
0000
0000
ENDCHAR
STARTCHAR 30D9
ENCODING 12505
SWIDTH 720 0
DWIDTH 12 0
BBX 12 12 0 -2
BITMAP
0000
00A0
00A0
0C00
1200
2100
4080
0040
0020
0000
0000
0000
ENDCHAR
STARTCHAR 30DA
ENCODING 12506
SWIDTH 720 0
DWIDTH 12 0
BBX 12 12 0 -2
BITMAP
0000
00C0
0120
0CC0
1200
2100
4080
0040
0020
0000
0000
0000
ENDCHAR
STARTCHAR 30DB
ENCODING 12507
SWIDTH 720 0
DWIDTH 12 0
BBX 12 12 0 -2
BITMAP
0400
0400
0400
7FC0
0400
1500
1480
2440
2440
4400
0C00
0000
ENDCHAR
STARTCHAR 30DC
ENCODING 12508
SWIDTH 720 0
DWIDTH 12 0
BBX 12 12 0 -2
BITMAP
0800
0940
0940
FF80
0800
2A00
2900
4880
4880
8800
1800
0000
ENDCHAR
STARTCHAR 30DD
ENCODING 12509
SWIDTH 720 0
DWIDTH 12 0
BBX 12 12 0 -2
BITMAP
0800
08C0
0920
FEC0
0800
2A00
2900
4880
4880
8800
1800
0000
ENDCHAR
STARTCHAR 30DE
ENCODING 12510
SWIDTH 720 0
DWIDTH 12 0
BBX 12 12 0 -2
BITMAP
0000
0000
7FC0
0040
0080
0100
3200
0C00
0200
0100
0000
0000
ENDCHAR
STARTCHAR 30DF
ENCODING 12511
SWIDTH 720 0
DWIDTH 12 0
BBX 12 12 0 -2
BITMAP
0000
1C00
0300
0080
0000
1C00
0200
0000
3800
0600
0180
0000
ENDCHAR
STARTCHAR 30E0
ENCODING 12512
SWIDTH 720 0
DWIDTH 12 0
BBX 12 12 0 -2
BITMAP
0000
0400
0400
0400
0800
0A00
1100
1080
2780
7840
0040
0000
ENDCHAR
STARTCHAR 30E1
ENCODING 12513
SWIDTH 720 0
DWIDTH 12 0
BBX 12 12 0 -2
BITMAP
0000
0040
0040
0040
0C40
0380
0080
0140
0220
0C00
3000
0000
ENDCHAR
STARTCHAR 30E2
ENCODING 12514
SWIDTH 720 0
DWIDTH 12 0
BBX 12 12 0 -2
BITMAP
0000
0000
3F80
0800
0800
7FE0
0800
0800
0800
07C0
0000
0000
ENDCHAR
STARTCHAR 30E3
ENCODING 12515
SWIDTH 720 0
DWIDTH 12 0
BBX 12 12 0 -2
BITMAP
0000
0000
0000
0000
0800
0800
0BC0
3C80
0500
0400
0400
0000
ENDCHAR
STARTCHAR 30E4
ENCODING 12516
SWIDTH 720 0
DWIDTH 12 0
BBX 12 12 0 -2
BITMAP
0000
1000
1000
11E0
1E40
E880
0900
0800
0400
0400
0400
0000
ENDCHAR
STARTCHAR 30E5
ENCODING 12517
SWIDTH 720 0
DWIDTH 12 0
BBX 12 12 0 -2
BITMAP
0000
0000
0000
0000
0000
0000
1E00
0200
0200
3F80
0000
0000
ENDCHAR
STARTCHAR 30E6
ENCODING 12518
SWIDTH 720 0
DWIDTH 12 0
BBX 12 12 0 -2
BITMAP
0000
0000
0000
3F80
0080
0080
0100
0100
0100
7FE0
0000
0000
ENDCHAR
STARTCHAR 30E7
ENCODING 12519
SWIDTH 720 0
DWIDTH 12 0
BBX 12 12 0 -2
BITMAP
0000
0000
0000
0000
0000
3F00
0100
1F00
0100
0100
3F00
0000
ENDCHAR
STARTCHAR 30E8
ENCODING 12520
SWIDTH 720 0
DWIDTH 12 0
BBX 12 12 0 -2
BITMAP
0000
0000
7FC0
0040
0040
3FC0
0040
0040
0040
7FC0
0040
0000
ENDCHAR
STARTCHAR 30E9
ENCODING 12521
SWIDTH 720 0
DWIDTH 12 0
BBX 12 12 0 -2
BITMAP
0000
3F80
0000
0000
7FC0
0040
0080
0080
0100
0600
3800
0000
ENDCHAR
STARTCHAR 30EA
ENCODING 12522
SWIDTH 720 0
DWIDTH 12 0
BBX 12 12 0 -2
BITMAP
0000
1080
1080
1080
1080
1080
1080
0100
0100
0200
0C00
0000
ENDCHAR
STARTCHAR 30EB
ENCODING 12523
SWIDTH 720 0
DWIDTH 12 0
BBX 12 12 0 -2
BITMAP
0000
0200
1200
1200
1200
1220
1220
1240
2280
2300
4000
0000
ENDCHAR
STARTCHAR 30EC
ENCODING 12524
SWIDTH 720 0
DWIDTH 12 0
BBX 12 12 0 -2
BITMAP
0000
2000
2000
2000
2000
2000
2080
2100
2200
2C00
3000
0000
ENDCHAR
STARTCHAR 30ED
ENCODING 12525
SWIDTH 720 0
DWIDTH 12 0
BBX 12 12 0 -2
BITMAP
0000
0000
3FC0
2040
2040
2040
2040
2040
3FC0
2040
0000
0000
ENDCHAR
STARTCHAR 30EE
ENCODING 12526
SWIDTH 720 0
DWIDTH 12 0
BBX 12 12 0 -2
BITMAP
0000
0000
0000
0000
0000
3F00
2100
2100
0200
0400
1800
0000
ENDCHAR
STARTCHAR 30EF
ENCODING 12527
SWIDTH 720 0
DWIDTH 12 0
BBX 12 12 0 -2
BITMAP
0000
0000
3FC0
2040
2040
2040
0080
0080
0100
0600
1800
0000
ENDCHAR
STARTCHAR 30F0
ENCODING 12528
SWIDTH 720 0
DWIDTH 12 0
BBX 12 12 0 -2
BITMAP
0100
0100
0100
7FC0
1100
1100
1100
7FE0
0100
0100
0100
0000
ENDCHAR
STARTCHAR 30F1
ENCODING 12529
SWIDTH 720 0
DWIDTH 12 0
BBX 12 12 0 -2
BITMAP
0000
0000
3F80
0080
0500
0600
0400
0400
0400
7FC0
0000
0000
ENDCHAR
STARTCHAR 30F2
ENCODING 12530
SWIDTH 720 0
DWIDTH 12 0
BBX 12 12 0 -2
BITMAP
0000
0000
3FC0
0040
0040
1FC0
0080
0080
0100
0600
3800
0000
ENDCHAR
STARTCHAR 30F3
ENCODING 12531
SWIDTH 720 0
DWIDTH 12 0
BBX 12 12 0 -2
BITMAP
0000
0000
6000
1040
0040
0080
0080
0100
0200
0C00
7000
0000
ENDCHAR
STARTCHAR 30F4
ENCODING 12532
SWIDTH 720 0
DWIDTH 12 0
BBX 12 12 0 -2
BITMAP
04A0
04A0
0400
7FC0
4040
4040
0080
0080
0100
0600
1800
0000
ENDCHAR
STARTCHAR 30F5
ENCODING 12533
SWIDTH 720 0
DWIDTH 12 0
BBX 12 12 0 -2
BITMAP
0000
0000
0000
0000
0800
0800
3F00
0900
0900
1100
2600
0000
ENDCHAR
STARTCHAR 30F6
ENCODING 12534
SWIDTH 720 0
DWIDTH 12 0
BBX 12 12 0 -2
BITMAP
0000
0000
0000
0000
0800
0800
0F80
3200
0200
0400
1800
0000
ENDCHAR
STARTCHAR 30FB
ENCODING 12539
SWIDTH 720 0
DWIDTH 12 0
BBX 12 12 0 -2
BITMAP
0000
0000
0000
0000
0000
0600
0600
0000
0000
0000
0000
0000
ENDCHAR
STARTCHAR 30FC
ENCODING 12540
SWIDTH 720 0
DWIDTH 12 0
BBX 12 12 0 -2
BITMAP
0000
0000
0000
0000
0000
3FC0
0000
0000
0000
0000
0000
0000
ENDCHAR
STARTCHAR 30FD
ENCODING 12541
SWIDTH 720 0
DWIDTH 12 0
BBX 12 12 0 -2
BITMAP
0000
0000
0000
0000
0000
3000
0C00
0200
0100
0000
0000
0000
ENDCHAR
STARTCHAR 30FE
ENCODING 12542
SWIDTH 720 0
DWIDTH 12 0
BBX 12 12 0 -2
BITMAP
0000
0000
0100
0480
0200
3000
0C00
0200
0100
0000
0000
0000
ENDCHAR
STARTCHAR 4E00
ENCODING 19968
SWIDTH 720 0
DWIDTH 12 0
BBX 12 12 0 -2
BITMAP
0000
0000
0000
0000
0000
7FE0
0000
0000
0000
0000
0000
0000
ENDCHAR
STARTCHAR 4E01
ENCODING 19969
SWIDTH 720 0
DWIDTH 12 0
BBX 12 12 0 -2
BITMAP
0000
FFE0
0400
0400
0400
0400
0400
0400
0400
0400
0400
0C00
ENDCHAR
STARTCHAR 4E03
ENCODING 19971
SWIDTH 720 0
DWIDTH 12 0
BBX 12 12 0 -2
BITMAP
1000
1000
1000
1000
11E0
FE00
1000
1000
1000
1040
1040
0FC0
ENDCHAR
STARTCHAR 4E07
ENCODING 19975
SWIDTH 720 0
DWIDTH 12 0
BBX 12 12 0 -2
BITMAP
0000
FFE0
0800
0800
0F80
0880
0880
0880
1080
1080
2080
4300
ENDCHAR
STARTCHAR 4E08
ENCODING 19976
SWIDTH 720 0
DWIDTH 12 0
BBX 12 12 0 -2
BITMAP
0400
0400
0400
FFE0
0400
0400
2400
1400
0C00
0A00
3180
C060
ENDCHAR
STARTCHAR 4E09
ENCODING 19977
SWIDTH 720 0
DWIDTH 12 0
BBX 12 12 0 -2
BITMAP
0000
7FC0
0000
0000
0000
3F80
0000
0000
0000
0000
FFE0
0000
ENDCHAR
STARTCHAR 4E0A
ENCODING 19978
SWIDTH 720 0
DWIDTH 12 0
BBX 12 12 0 -2
BITMAP
0400
0400
0400
0400
0400
07C0
0400
0400
0400
0400
0400
FFE0
ENDCHAR
STARTCHAR 4E0B
ENCODING 19979
SWIDTH 720 0
DWIDTH 12 0
BBX 12 12 0 -2
BITMAP
0000
FFE0
0400
0400
0700
0480
0440
0400
0400
0400
0400
0400
ENDCHAR
STARTCHAR 4E0D
ENCODING 19981
SWIDTH 720 0
DWIDTH 12 0
BBX 12 12 0 -2
BITMAP
0000
7FE0
0200
0400
0600
0D80
3440
C420
0400
0400
0400
0400
ENDCHAR
STARTCHAR 4E0E
ENCODING 19982
SWIDTH 720 0
DWIDTH 12 0
BBX 12 12 0 -2
BITMAP
1000
1000
1FC0
1000
1F00
2100
0100
FFE0
0100
0100
0100
0600
ENDCHAR
STARTCHAR 4E10
ENCODING 19984
SWIDTH 720 0
DWIDTH 12 0
BBX 12 12 0 -2
BITMAP
0000
FFE0
0400
27C0
2400
2400
3FE0
2020
0020
0020
0040
0180
ENDCHAR
STARTCHAR 4E11
ENCODING 19985
SWIDTH 720 0
DWIDTH 12 0
BBX 12 12 0 -2
BITMAP
0000
3F80
0480
0480
0480
7FE0
0480
0880
0880
0880
0880
7FE0
ENDCHAR
STARTCHAR 4E14
ENCODING 19988
SWIDTH 720 0
DWIDTH 12 0
BBX 12 12 0 -2
BITMAP
0000
1F80
1080
1080
1F80
1080
1080
1F80
1080
1080
1080
7FE0
ENDCHAR
STARTCHAR 4E15
ENCODING 19989
SWIDTH 720 0
DWIDTH 12 0
BBX 12 12 0 -2
BITMAP
0000
FFE0
0200
0600
0D80
3440
C420
0400
0400
0400
0000
FFE0
ENDCHAR
STARTCHAR 4E16
ENCODING 19990
SWIDTH 720 0
DWIDTH 12 0
BBX 12 12 0 -2
BITMAP
2480
2480
2480
2480
FFE0
2480
2480
2480
2780
2000
2000
3FC0
ENDCHAR
STARTCHAR 4E17
ENCODING 19991
SWIDTH 720 0
DWIDTH 12 0
BBX 12 12 0 -2
BITMAP
2480
2480
2480
2480
2480
FFE0
2480
2480
2480
2480
2480
3F80
ENDCHAR
STARTCHAR 4E18
ENCODING 19992
SWIDTH 720 0
DWIDTH 12 0
BBX 12 12 0 -2
BITMAP
0000
0180
3E00
2000
2000
3FC0
2100
2100
2100
2100
2100
FFE0
ENDCHAR
STARTCHAR 4E19
ENCODING 19993
SWIDTH 720 0
DWIDTH 12 0
BBX 12 12 0 -2
BITMAP
0000
FFF0
0400
0400
7FE0
4620
4920
50A0
60A0
4020
4020
4060
ENDCHAR
STARTCHAR 4E1E
ENCODING 19998
SWIDTH 720 0
DWIDTH 12 0
BBX 12 12 0 -2
BITMAP
0000
3F00
0200
0440
F680
1700
1500
2480
C460
0C00
0000
FFE0
ENDCHAR
STARTCHAR 4E21
ENCODING 20001
SWIDTH 720 0
DWIDTH 12 0
BBX 12 12 0 -2
BITMAP
0000
FFE0
0400
0400
FFE0
8420
A4A0
A4A0
A4A0
BFA0
A020
8060
ENDCHAR
STARTCHAR 4E26
ENCODING 20006
SWIDTH 720 0
DWIDTH 12 0
BBX 12 12 0 -2
BITMAP
2080
1100
1200
FFE0
0A00
4A40
2A40
2A80
2B00
0A00
FFE0
0000
ENDCHAR
STARTCHAR 4E2A
ENCODING 20010
SWIDTH 720 0
DWIDTH 12 0
BBX 12 12 0 -2
BITMAP
0400
0400
0A00
1100
2480
4440
8420
0400
0400
0400
0400
0400
ENDCHAR
STARTCHAR 4E2D
ENCODING 20013
SWIDTH 720 0
DWIDTH 12 0
BBX 12 12 0 -2
BITMAP
0400
0400
7FC0
4440
4440
4440
7FC0
0400
0400
0400
0400
0400
ENDCHAR
STARTCHAR 4E31
ENCODING 20017
SWIDTH 720 0
DWIDTH 12 0
BBX 12 12 0 -2
BITMAP
0900
0900
4920
4920
4920
4920
4920
79E0
4920
0900
1100
2100
ENDCHAR
STARTCHAR 4E32
ENCODING 20018
SWIDTH 720 0
DWIDTH 12 0
BBX 12 12 0 -2
BITMAP
0400
0400
7FC0
4440
7FC0
0400
FFE0
8420
FFE0
0400
0400
0400
ENDCHAR
STARTCHAR 4E36
ENCODING 20022
SWIDTH 720 0
DWIDTH 12 0
BBX 12 12 0 -2
BITMAP
0000
0000
0000
1000
0800
0400
0400
0200
0200
0000
0000
0000
ENDCHAR
STARTCHAR 4E38
ENCODING 20024
SWIDTH 720 0
DWIDTH 12 0
BBX 12 12 0 -2
BITMAP
1000
1000
1000
FF00
1100
1100
5100
3100
1900
2520
4520
80E0
ENDCHAR
STARTCHAR 4E39
ENCODING 20025
SWIDTH 720 0
DWIDTH 12 0
BBX 12 12 0 -2
BITMAP
0000
3F80
2080
2880
2480
2480
FFE0
2080
2080
4080
4080
8180
ENDCHAR
STARTCHAR 4E3B
ENCODING 20027
SWIDTH 720 0
DWIDTH 12 0
BBX 12 12 0 -2
BITMAP
0800
0400
7FC0
0400
0400
0400
3F80
0400
0400
0400
0400
FFE0
ENDCHAR
STARTCHAR 4E3C
ENCODING 20028
SWIDTH 720 0
DWIDTH 12 0
BBX 12 12 0 -2
BITMAP
1100
1100
1100
FFC0
1100
1500
1300
FFE0
1100
1100
2100
4100
ENDCHAR
STARTCHAR 4E3F
ENCODING 20031
SWIDTH 720 0
DWIDTH 12 0
BBX 12 12 0 -2
BITMAP
0200
0200
0200
0200
0200
0200
0200
0200
0400
0400
0800
3000
ENDCHAR
STARTCHAR 4E42
ENCODING 20034
SWIDTH 720 0
DWIDTH 12 0
BBX 12 12 0 -2
BITMAP
0080
1080
1080
1080
2880
0900
0500
0200
0500
0880
3040
C030
ENDCHAR
STARTCHAR 4E43
ENCODING 20035
SWIDTH 720 0
DWIDTH 12 0
BBX 12 12 0 -2
BITMAP
0000
7F00
0900
0900
0BC0
0840
0840
0840
1040
1040
2040
4180
ENDCHAR
STARTCHAR 4E45
ENCODING 20037
SWIDTH 720 0
DWIDTH 12 0
BBX 12 12 0 -2
BITMAP
0800
0800
0F00
1100
1100
2200
4200
0400
0A00
1100
2080
C060
ENDCHAR
STARTCHAR 4E4B
ENCODING 20043
SWIDTH 720 0
DWIDTH 12 0
BBX 12 12 0 -2
BITMAP
0400
0400
3FC0
0040
0080
0100
0200
2400
2800
3000
4C00
83F0
ENDCHAR
STARTCHAR 4E4D
ENCODING 20045
SWIDTH 720 0
DWIDTH 12 0
BBX 12 12 0 -2
BITMAP
2000
2000
3FE0
2400
4400
47C0
8400
0400
07C0
0400
0400
0400
ENDCHAR
STARTCHAR 4E4E
ENCODING 20046
SWIDTH 720 0
DWIDTH 12 0
BBX 12 12 0 -2
BITMAP
0180
7E00
0480
2480
1500
1400
FFE0
0400
0400
0400
0400
0C00
ENDCHAR
STARTCHAR 4E4F
ENCODING 20047
SWIDTH 720 0
DWIDTH 12 0
BBX 12 12 0 -2
BITMAP
03C0
7C00
0400
0400
7FC0
0080
0100
4600
5800
6000
9800
87E0
ENDCHAR
STARTCHAR 4E55
ENCODING 20053
SWIDTH 720 0
DWIDTH 12 0
BBX 12 12 0 -2
BITMAP
01C0
7E00
4200
7FE0
4200
7FE0
4200
5FC0
5240
9240
9380
0200
ENDCHAR
STARTCHAR 4E56
ENCODING 20054
SWIDTH 720 0
DWIDTH 12 0
BBX 12 12 0 -2
BITMAP
0380
7C00
0400
FFE0
0400
1500
F560
1580
1520
3520
D4E0
0400
ENDCHAR
STARTCHAR 4E57
ENCODING 20055
SWIDTH 720 0
DWIDTH 12 0
BBX 12 12 0 -2
BITMAP
0380
3E00
0400
FFE0
2480
7FC0
2480
FFE0
0E00
3580
C460
0400
ENDCHAR
STARTCHAR 4E58
ENCODING 20056
SWIDTH 720 0
DWIDTH 12 0
BBX 12 12 0 -2
BITMAP
0380
3C00
0400
FFE0
1500
7560
1580
3520
D4E0
0E00
3580
C460
ENDCHAR
STARTCHAR 4E59
ENCODING 20057
SWIDTH 720 0
DWIDTH 12 0
BBX 12 12 0 -2
BITMAP
0000
3F80
0080
0100
0200
0400
0800
1000
2000
4020
4020
3FE0
ENDCHAR
STARTCHAR 4E5D
ENCODING 20061
SWIDTH 720 0
DWIDTH 12 0
BBX 12 12 0 -2
BITMAP
0800
0800
0800
7F00
0900
0900
0900
0900
1100
1120
2120
40E0
ENDCHAR
STARTCHAR 4E5E
ENCODING 20062
SWIDTH 720 0
DWIDTH 12 0
BBX 12 12 0 -2
BITMAP
1000
1000
3FE0
2000
5F80
8100
0200
0C00
1000
2020
2020
1FE0
ENDCHAR
STARTCHAR 4E5F
ENCODING 20063
SWIDTH 720 0
DWIDTH 12 0
BBX 12 12 0 -2
BITMAP
0400
2400
2400
2780
3C80
E480
2480
2480
2700
2020
2020
1FE0
ENDCHAR
STARTCHAR 4E62
ENCODING 20066
SWIDTH 720 0
DWIDTH 12 0
BBX 12 12 0 -2
BITMAP
2200
2200
2200
AA00
AA00
AA00
AA00
AA00
AA00
FA20
8220
01E0
ENDCHAR
STARTCHAR 4E71
ENCODING 20081
SWIDTH 720 0
DWIDTH 12 0
BBX 12 12 0 -2
BITMAP
0500
0900
7100
1100
1100
FF00
1100
1100
7D00
4520
4520
7CE0
ENDCHAR
STARTCHAR 4E73
ENCODING 20083
SWIDTH 720 0
DWIDTH 12 0
BBX 12 12 0 -2
BITMAP
0D00
F500
9500
5900
0100
7D00
0900
1100
FD00
1120
1120
30E0
ENDCHAR
STARTCHAR 4E7E
ENCODING 20094
SWIDTH 720 0
DWIDTH 12 0
BBX 12 12 0 -2
BITMAP
2200
FA00
23E0
FC00
8BC0
F840
8880
F900
2200
FC20
2420
23E0
ENDCHAR
STARTCHAR 4E80
ENCODING 20096
SWIDTH 720 0
DWIDTH 12 0
BBX 12 12 0 -2
BITMAP
0800
1F00
2200
FF80
2480
3F80
2480
7FC0
4440
7FC0
0420
03E0
ENDCHAR
STARTCHAR 4E82
ENCODING 20098
SWIDTH 720 0
DWIDTH 12 0
BBX 12 12 0 -2
BITMAP
0E80
F480
5480
9280
7C80
2880
FE80
AA80
FA80
AA90
9290
AE70
ENDCHAR
STARTCHAR 4E85
ENCODING 20101
SWIDTH 720 0
DWIDTH 12 0
BBX 12 12 0 -2
BITMAP
0400
0400
0400
0400
0400
0400
0400
0400
0400
0400
0400
0C00
ENDCHAR
STARTCHAR 4E86
ENCODING 20102
SWIDTH 720 0
DWIDTH 12 0
BBX 12 12 0 -2
BITMAP
0000
7FC0
0080
0100
0600
0400
0400
0400
0400
0400
0400
0C00
ENDCHAR
STARTCHAR 4E88
ENCODING 20104
SWIDTH 720 0
DWIDTH 12 0
BBX 12 12 0 -2
BITMAP
0000
3F80
0100
1A00
0400
FFE0
0440
0480
0400
0400
0400
0C00
ENDCHAR
STARTCHAR 4E89
ENCODING 20105
SWIDTH 720 0
DWIDTH 12 0
BBX 12 12 0 -2
BITMAP
0800
0F00
3100
0200
3F80
0480
FFE0
0480
3F80
0400
0400
0C00
ENDCHAR
STARTCHAR 4E8A
ENCODING 20106
SWIDTH 720 0
DWIDTH 12 0
BBX 12 12 0 -2
BITMAP
0400
FFE0
2480
1500
7FC0
0440
FFE0
0440
7FC0
0400
0400
0C00
ENDCHAR
STARTCHAR 4E8B
ENCODING 20107
SWIDTH 720 0
DWIDTH 12 0
BBX 12 12 0 -2
BITMAP
0400
FFE0
2480
3F80
0400
7F80
0480
FFE0
0480
7F80
0400
0C00
ENDCHAR
STARTCHAR 4E8C
ENCODING 20108
SWIDTH 720 0
DWIDTH 12 0
BBX 12 12 0 -2
BITMAP
0000
0000
7FC0
0000
0000
0000
0000
0000
0000
FFE0
0000
0000
ENDCHAR
STARTCHAR 4E8E
ENCODING 20110
SWIDTH 720 0
DWIDTH 12 0
BBX 12 12 0 -2
BITMAP
0000
7FC0
0400
0400
0400
FFE0
0400
0400
0400
0400
0400
0C00
ENDCHAR
STARTCHAR 4E91
ENCODING 20113
SWIDTH 720 0
DWIDTH 12 0
BBX 12 12 0 -2
BITMAP
0000
3F80
0000
0000
FFE0
0400
0400
0900
0880
1380
7C40
0040
ENDCHAR
STARTCHAR 4E92
ENCODING 20114
SWIDTH 720 0
DWIDTH 12 0
BBX 12 12 0 -2
BITMAP
0000
7FC0
1000
1000
1F00
1100
2100
2100
7E00
0200
0200
FFE0
ENDCHAR
STARTCHAR 4E94
ENCODING 20116
SWIDTH 720 0
DWIDTH 12 0
BBX 12 12 0 -2
BITMAP
0000
3FC0
0400
0400
0400
3F80
0480
0480
0880
0880
0880
7FE0
ENDCHAR
STARTCHAR 4E95
ENCODING 20117
SWIDTH 720 0
DWIDTH 12 0
BBX 12 12 0 -2
BITMAP
0880
0880
0880
7FE0
0880
0880
0880
7FE0
0880
0880
1080
2080
ENDCHAR
STARTCHAR 4E98
ENCODING 20120
SWIDTH 720 0
DWIDTH 12 0
BBX 12 12 0 -2
BITMAP
0000
7FC0
0000
3F80
2080
2080
3F80
2080
2080
3F80
0000
FFE0
ENDCHAR
STARTCHAR 4E99
ENCODING 20121
SWIDTH 720 0
DWIDTH 12 0
BBX 12 12 0 -2
BITMAP
0000
FFE0
1000
1000
1F00
1900
2500
3100
4A00
4A00
0200
FFE0
ENDCHAR
STARTCHAR 4E9B
ENCODING 20123
SWIDTH 720 0
DWIDTH 12 0
BBX 12 12 0 -2
BITMAP
1200
5200
5A40
5380
5220
5E20
F1E0
0000
3F80
0000
0000
FFE0
ENDCHAR
STARTCHAR 4E9C
ENCODING 20124
SWIDTH 720 0
DWIDTH 12 0
BBX 12 12 0 -2
BITMAP
0000
7FE0
0900
0900
3FC0
2940
2940
2940
3FC0
0900
0900
7FE0
ENDCHAR
STARTCHAR 4E9E
ENCODING 20126
SWIDTH 720 0
DWIDTH 12 0
BBX 12 12 0 -2
BITMAP
0000
FFE0
0900
0900
79E0
4020
4020
79E0
0900
0900
0900
FFE0
ENDCHAR
STARTCHAR 4E9F
ENCODING 20127
SWIDTH 720 0
DWIDTH 12 0
BBX 12 12 0 -2
BITMAP
0000
7FC0
0400
0800
1FE0
F320
92A0
92C0
9340
F220
0C00
FFE0
ENDCHAR
STARTCHAR 4EA0
ENCODING 20128
SWIDTH 720 0
DWIDTH 12 0
BBX 12 12 0 -2
BITMAP
0000
0000
0000
0400
0400
0400
FFE0
0000
0000
0000
0000
0000
ENDCHAR
STARTCHAR 4EA1
ENCODING 20129
SWIDTH 720 0
DWIDTH 12 0
BBX 12 12 0 -2
BITMAP
0400
0400
0400
FFE0
2000
2000
2000
2000
2000
2000
1FC0
0000
ENDCHAR
STARTCHAR 4EA2
ENCODING 20130
SWIDTH 720 0
DWIDTH 12 0
BBX 12 12 0 -2
BITMAP
0400
0400
FFE0
0000
1E00
1200
1200
1200
1200
2220
2220
41E0
ENDCHAR
STARTCHAR 4EA4
ENCODING 20132
SWIDTH 720 0
DWIDTH 12 0
BBX 12 12 0 -2
BITMAP
0400
0400
FFE0
1100
1080
2140
5100
0A00
0400
0A00
3180
C060
ENDCHAR
STARTCHAR 4EA5
ENCODING 20133
SWIDTH 720 0
DWIDTH 12 0
BBX 12 12 0 -2
BITMAP
0400
FFE0
0800
0A00
7200
1400
0C80
1900
6200
0D00
3080
C040
ENDCHAR
STARTCHAR 4EA6
ENCODING 20134
SWIDTH 720 0
DWIDTH 12 0
BBX 12 12 0 -2
BITMAP
0400
0400
7FE0
0900
0900
2940
2920
4920
8920
1100
1100
2300
ENDCHAR
STARTCHAR 4EA8
ENCODING 20136
SWIDTH 720 0
DWIDTH 12 0
BBX 12 12 0 -2
BITMAP
0400
FFE0
3F80
2080
3F80
0000
7FC0
0100
0600
0400
0400
0C00
ENDCHAR
STARTCHAR 4EAB
ENCODING 20139
SWIDTH 720 0
DWIDTH 12 0
BBX 12 12 0 -2
BITMAP
0400
FFE0
3F80
2080
3F80
0000
3F80
0200
FFE0
0400
0400
0C00
ENDCHAR
STARTCHAR 4EAC
ENCODING 20140
SWIDTH 720 0
DWIDTH 12 0
BBX 12 12 0 -2
BITMAP
0400
FFE0
0000
3F80
2080
2080
3F80
0400
2480
2440
4440
0C00
ENDCHAR
STARTCHAR 4EAD
ENCODING 20141
SWIDTH 720 0
DWIDTH 12 0
BBX 12 12 0 -2
BITMAP
0400
FFE0
0000
3F80
2080
FFE0
8020
7FC0
0400
0400
0400
0C00
ENDCHAR
STARTCHAR 4EAE
ENCODING 20142
SWIDTH 720 0
DWIDTH 12 0
BBX 12 12 0 -2
BITMAP
0400
FFE0
0000
3F80
2080
3F80
0000
FFE0
8A20
0A00
1220
61E0
ENDCHAR
STARTCHAR 4EB0
ENCODING 20144
SWIDTH 720 0
DWIDTH 12 0
BBX 12 12 0 -2
BITMAP
0400
FFE0
0000
3F80
2080
3F80
2080
3F80
0500
2480
4440
0C00
ENDCHAR
STARTCHAR 4EB3
ENCODING 20147
SWIDTH 720 0
DWIDTH 12 0
BBX 12 12 0 -2
BITMAP
0400
FFE0
0000
3F80
2080
FFE0
8320
3C00
07C0
7C00
0420
03E0
ENDCHAR
STARTCHAR 4EB6
ENCODING 20150
SWIDTH 720 0
DWIDTH 12 0
BBX 12 12 0 -2
BITMAP
0400
FFE0
2E80
2A80
2E80
3F80
0000
1F00
1100
1F00
1100
FFE0
ENDCHAR
STARTCHAR 4EBA
ENCODING 20154
SWIDTH 720 0
DWIDTH 12 0
BBX 12 12 0 -2
BITMAP
0400
0400
0400
0400
0400
0400
0A00
0A00
1100
2080
4040
8020
ENDCHAR
STARTCHAR 4EC0
ENCODING 20160
SWIDTH 720 0
DWIDTH 12 0
BBX 12 12 0 -2
BITMAP
1100
1100
1100
2100
3FE0
6100
A100
2100
2100
2100
2100
2100
ENDCHAR
STARTCHAR 4EC1
ENCODING 20161
SWIDTH 720 0
DWIDTH 12 0
BBX 12 12 0 -2
BITMAP
1000
1000
27C0
2000
6000
A000
2000
2000
2000
2000
2FE0
2000
ENDCHAR
STARTCHAR 4EC2
ENCODING 20162
SWIDTH 720 0
DWIDTH 12 0
BBX 12 12 0 -2
BITMAP
1200
1200
1200
2FE0
2220
6220
A220
2220
2220
2420
2420
28C0
ENDCHAR
STARTCHAR 4EC4
ENCODING 20164
SWIDTH 720 0
DWIDTH 12 0
BBX 12 12 0 -2
BITMAP
0000
3FE0
2200
2200
2200
2200
2200
2500
4500
4880
9040
2020
ENDCHAR
STARTCHAR 4EC6
ENCODING 20166
SWIDTH 720 0
DWIDTH 12 0
BBX 12 12 0 -2
BITMAP
1100
1100
1100
2100
2180
6140
A120
2120
2100
2100
2100
2100
ENDCHAR
STARTCHAR 4EC7
ENCODING 20167
SWIDTH 720 0
DWIDTH 12 0
BBX 12 12 0 -2
BITMAP
2400
2400
2400
5F80
4480
C480
4480
4480
4880
48A0
50A0
6060
ENDCHAR
STARTCHAR 4ECA
ENCODING 20170
SWIDTH 720 0
DWIDTH 12 0
BBX 12 12 0 -2
BITMAP
0400
0400
0A00
1100
3F80
C060
0000
3F80
0100
0200
0200
0400
ENDCHAR
STARTCHAR 4ECB
ENCODING 20171
SWIDTH 720 0
DWIDTH 12 0
BBX 12 12 0 -2
BITMAP
0400
0400
0A00
1100
2080
D160
1100
1100
1100
2100
2100
4100
ENDCHAR
STARTCHAR 4ECD
ENCODING 20173
SWIDTH 720 0
DWIDTH 12 0
BBX 12 12 0 -2
BITMAP
1000
1F80
1480
2480
2480
64E0
A4A0
2420
2420
2820
2820
30C0
ENDCHAR
STARTCHAR 4ECE
ENCODING 20174
SWIDTH 720 0
DWIDTH 12 0
BBX 12 12 0 -2
BITMAP
1080
1080
1080
1080
1080
1080
1080
2940
2940
4620
4220
8410
ENDCHAR
STARTCHAR 4ECF
ENCODING 20175
SWIDTH 720 0
DWIDTH 12 0
BBX 12 12 0 -2
BITMAP
1200
1200
1200
2200
2200
6200
A480
2440
2440
29E0
3E20
2020
ENDCHAR
STARTCHAR 4ED4
ENCODING 20180
SWIDTH 720 0
DWIDTH 12 0
BBX 12 12 0 -2
BITMAP
1000
1FC0
1040
2080
2100
6100
BFE0
2100
2100
2100
2100
2300
ENDCHAR
STARTCHAR 4ED5
ENCODING 20181
SWIDTH 720 0
DWIDTH 12 0
BBX 12 12 0 -2
BITMAP
1100
1100
1100
2100
3FF0
6100
A100
2100
2100
2100
2FC0
2000
ENDCHAR
STARTCHAR 4ED6
ENCODING 20182
SWIDTH 720 0
DWIDTH 12 0
BBX 12 12 0 -2
BITMAP
1100
1500
2500
25C0
6740
BD40
2540
2540
2580
2420
2420
23E0
ENDCHAR
STARTCHAR 4ED7
ENCODING 20183
SWIDTH 720 0
DWIDTH 12 0
BBX 12 12 0 -2
BITMAP
2100
2100
2100
5FE0
4100
C900
4900
5500
4200
4500
4880
5060
ENDCHAR
STARTCHAR 4ED8
ENCODING 20184
SWIDTH 720 0
DWIDTH 12 0
BBX 12 12 0 -2
BITMAP
1080
1080
1080
2FE0
2080
6880
A480
2480
2080
2080
2080
2180
ENDCHAR
STARTCHAR 4ED9
ENCODING 20185
SWIDTH 720 0
DWIDTH 12 0
BBX 12 12 0 -2
BITMAP
1100
1100
1100
2920
2920
6920
A920
2920
2920
2920
2FE0
2820
ENDCHAR
STARTCHAR 4EDD
ENCODING 20189
SWIDTH 720 0
DWIDTH 12 0
BBX 12 12 0 -2
BITMAP
0400
0400
0A00
1100
2080
C060
3F80
0400
0400
0400
0400
FFE0
ENDCHAR
STARTCHAR 4EDE
ENCODING 20190
SWIDTH 720 0
DWIDTH 12 0
BBX 12 12 0 -2
BITMAP
1000
1FE0
1220
2220
2220
6A20
AA20
3220
2220
2420
2420
28C0
ENDCHAR
STARTCHAR 4EDF
ENCODING 20191
SWIDTH 720 0
DWIDTH 12 0
BBX 12 12 0 -2
BITMAP
10C0
1F00
1100
2100
2100
7FE0
A100
2100
2100
2100
2100
2100
ENDCHAR
STARTCHAR 4EE3
ENCODING 20195
SWIDTH 720 0
DWIDTH 12 0
BBX 12 12 0 -2
BITMAP
1280
1240
1200
23E0
3E00
6100
A100
2100
2080
20A0
2060
2020
ENDCHAR
STARTCHAR 4EE4
ENCODING 20196
SWIDTH 720 0
DWIDTH 12 0
BBX 12 12 0 -2
BITMAP
0400
0400
0A00
1100
3F80
C060
3FC0
0440
0440
0580
0400
0400
ENDCHAR
STARTCHAR 4EE5
ENCODING 20197
SWIDTH 720 0
DWIDTH 12 0
BBX 12 12 0 -2
BITMAP
2040
2040
2840
2440
2440
2240
2040
2840
30C0
40A0
8310
0C00
ENDCHAR
STARTCHAR 4EED
ENCODING 20205
SWIDTH 720 0
DWIDTH 12 0
BBX 12 12 0 -2
BITMAP
1000
1FE0
1220
2220
2A20
6620
A320
22E0
2230
2420
2420
28C0
ENDCHAR
STARTCHAR 4EEE
ENCODING 20206
SWIDTH 720 0
DWIDTH 12 0
BBX 12 12 0 -2
BITMAP
1000
17E0
1400
2400
27C0
6640
A540
2580
2880
2980
3240
2C20
ENDCHAR
STARTCHAR 4EF0
ENCODING 20208
SWIDTH 720 0
DWIDTH 12 0
BBX 12 12 0 -2
BITMAP
2300
2C00
29E0
4920
4920
C920
4920
4920
4B20
5DC0
4100
4100
ENDCHAR
STARTCHAR 4EF2
ENCODING 20210
SWIDTH 720 0
DWIDTH 12 0
BBX 12 12 0 -2
BITMAP
1100
1100
1FE0
2920
2920
6920
AFE0
2100
2100
2100
2100
2100
ENDCHAR
STARTCHAR 4EF6
ENCODING 20214
SWIDTH 720 0
DWIDTH 12 0
BBX 12 12 0 -2
BITMAP
1100
1500
1500
2FC0
2900
7100
BFE0
2100
2100
2100
2100
2100
ENDCHAR
STARTCHAR 4EF7
ENCODING 20215
SWIDTH 720 0
DWIDTH 12 0
BBX 12 12 0 -2
BITMAP
1200
1200
1500
2880
3040
64A0
A490
2480
2480
2880
2880
3080
ENDCHAR
STARTCHAR 4EFB
ENCODING 20219
SWIDTH 720 0
DWIDTH 12 0
BBX 12 12 0 -2
BITMAP
10C0
1F00
1100
2100
2100
7FF0
A100
2100
2100
2100
2FE0
2000
ENDCHAR
STARTCHAR 4F01
ENCODING 20225
SWIDTH 720 0
DWIDTH 12 0
BBX 12 12 0 -2
BITMAP
0400
0400
0A00
1100
2480
C460
0400
2780
2400
2400
2400
FFE0
ENDCHAR
STARTCHAR 4F09
ENCODING 20233
SWIDTH 720 0
DWIDTH 12 0
BBX 12 12 0 -2
BITMAP
2200
2200
3FE0
4000
4F00
C900
4900
4900
4900
5120
5120
60E0
ENDCHAR
STARTCHAR 4F0A
ENCODING 20234
SWIDTH 720 0
DWIDTH 12 0
BBX 12 12 0 -2
BITMAP
1000
1FC0
1240
2240
7FE0
A240
2240
2FC0
2200
2200
2400
2800
ENDCHAR
STARTCHAR 4F0D
ENCODING 20237
SWIDTH 720 0
DWIDTH 12 0
BBX 12 12 0 -2
BITMAP
1000
1FE0
1200
2200
2200
6F80
A280
2480
2480
2480
2480
3FE0
ENDCHAR
STARTCHAR 4F0E
ENCODING 20238
SWIDTH 720 0
DWIDTH 12 0
BBX 12 12 0 -2
BITMAP
1100
1100
1FE0
2100
2100
6FE0
A040
2440
2280
2100
2680
3860
ENDCHAR
STARTCHAR 4F0F
ENCODING 20239
SWIDTH 720 0
DWIDTH 12 0
BBX 12 12 0 -2
BITMAP
1200
1280
1240
2200
3FE0
6200
A200
2500
2500
2880
3040
2020
ENDCHAR
STARTCHAR 4F10
ENCODING 20240
SWIDTH 720 0
DWIDTH 12 0
BBX 12 12 0 -2
BITMAP
1280
1240
1200
23C0
3E00
6280
A280
2100
2300
24A0
3860
2020
ENDCHAR
STARTCHAR 4F11
ENCODING 20241
SWIDTH 720 0
DWIDTH 12 0
BBX 12 12 0 -2
BITMAP
1100
1100
1100
3FE0
2100
6380
A380
2540
2920
3110
2100
2100
ENDCHAR
STARTCHAR 4F1A
ENCODING 20250
SWIDTH 720 0
DWIDTH 12 0
BBX 12 12 0 -2
BITMAP
0400
0400
0A00
1100
3F80
C060
0000
7FC0
0A00
1300
7C80
0080
ENDCHAR
STARTCHAR 4F1C
ENCODING 20252
SWIDTH 720 0
DWIDTH 12 0
BBX 12 12 0 -2
BITMAP
2200
2200
2F80
4280
44A0
CA60
5200
5FE0
4200
4200
4200
4200
ENDCHAR
STARTCHAR 4F1D
ENCODING 20253
SWIDTH 720 0
DWIDTH 12 0
BBX 12 12 0 -2
BITMAP
1000
17C0
1000
2000
2FE0
6200
A200
2280
2440
25C0
2E20
2020
ENDCHAR
STARTCHAR 4F2F
ENCODING 20271
SWIDTH 720 0
DWIDTH 12 0
BBX 12 12 0 -2
BITMAP
1100
1100
2200
27E0
6420
A420
27E0
2420
2420
2420
2420
27E0
ENDCHAR
STARTCHAR 4F30
ENCODING 20272
SWIDTH 720 0
DWIDTH 12 0
BBX 12 12 0 -2
BITMAP
1100
1100
1FE0
2100
2100
6100
A7C0
2440
2440
2440
2440
27C0
ENDCHAR
STARTCHAR 4F34
ENCODING 20276
SWIDTH 720 0
DWIDTH 12 0
BBX 12 12 0 -2
BITMAP
2200
3240
2A40
4A80
5FC0
C200
4200
5FE0
4200
4200
4200
4200
ENDCHAR
STARTCHAR 4F36
ENCODING 20278
SWIDTH 720 0
DWIDTH 12 0
BBX 12 12 0 -2
BITMAP
1200
1200
2500
2480
6FC0
B020
2FC0
2240
2240
2380
2200
2200
ENDCHAR
STARTCHAR 4F38
ENCODING 20280
SWIDTH 720 0
DWIDTH 12 0
BBX 12 12 0 -2
BITMAP
1100
1100
1FE0
2920
2FE0
6920
A920
2FE0
2100
2100
2100
2100
ENDCHAR
STARTCHAR 4F3A
ENCODING 20282
SWIDTH 720 0
DWIDTH 12 0
BBX 12 12 0 -2
BITMAP
1000
1FE0
1020
2FA0
2020
6F20
A920
2920
2F20
2020
2020
2060
ENDCHAR
STARTCHAR 4F3C
ENCODING 20284
SWIDTH 720 0
DWIDTH 12 0
BBX 12 12 0 -2
BITMAP
2040
2840
2840
4A40
4940
C840
4840
4840
4AC0
4CA0
7110
4200
ENDCHAR
STARTCHAR 4F3D
ENCODING 20285
SWIDTH 720 0
DWIDTH 12 0
BBX 12 12 0 -2
BITMAP
2800
2800
28E0
5EA0
4AA0
CAA0
4AA0
4AA0
52A0
52A0
62E0
4C00
ENDCHAR
STARTCHAR 4F43
ENCODING 20291
SWIDTH 720 0
DWIDTH 12 0
BBX 12 12 0 -2
BITMAP
1000
17E0
2520
2520
6520
A7E0
2520
2520
2520
2520
27E0
2000
ENDCHAR
STARTCHAR 4F46
ENCODING 20294
SWIDTH 720 0
DWIDTH 12 0
BBX 12 12 0 -2
BITMAP
1000
17C0
1440
2440
27C0
6440
A440
2440
27C0
2000
2000
2FF0
ENDCHAR
STARTCHAR 4F47
ENCODING 20295
SWIDTH 720 0
DWIDTH 12 0
BBX 12 12 0 -2
BITMAP
1100
1FE0
1820
2000
3FE0
6100
A100
2100
2100
2100
2100
2300
ENDCHAR
STARTCHAR 4F4D
ENCODING 20301
SWIDTH 720 0
DWIDTH 12 0
BBX 12 12 0 -2
BITMAP
1100
1100
1100
2FE0
2040
6840
A440
2440
2480
2480
2100
3FE0
ENDCHAR
STARTCHAR 4F4E
ENCODING 20302
SWIDTH 720 0
DWIDTH 12 0
BBX 12 12 0 -2
BITMAP
10C0
1F00
1900
2900
2FE0
6900
A900
2880
2E80
30A0
2060
2FA0
ENDCHAR
STARTCHAR 4F4F
ENCODING 20303
SWIDTH 720 0
DWIDTH 12 0
BBX 12 12 0 -2
BITMAP
1200
1100
1FE0
2100
2100
6100
A7C0
2100
2100
2100
2100
2FE0
ENDCHAR
STARTCHAR 4F50
ENCODING 20304
SWIDTH 720 0
DWIDTH 12 0
BBX 12 12 0 -2
BITMAP
2200
2200
2200
5FE0
4200
C400
47E0
4900
5100
4100
4FE0
4000
ENDCHAR
STARTCHAR 4F51
ENCODING 20305
SWIDTH 720 0
DWIDTH 12 0
BBX 12 12 0 -2
BITMAP
2200
2200
2200
7FE0
4200
C400
4400
4FC0
5440
6440
4440
47C0
ENDCHAR
STARTCHAR 4F53
ENCODING 20307
SWIDTH 720 0
DWIDTH 12 0
BBX 12 12 0 -2
BITMAP
1100
1100
1100
3FE0
2100
6380
A380
2540
2920
37D0
2100
2100
ENDCHAR
STARTCHAR 4F55
ENCODING 20309
SWIDTH 720 0
DWIDTH 12 0
BBX 12 12 0 -2
BITMAP
1000
1FF0
1040
2040
2F40
6940
A940
2940
2F40
2040
2040
20C0
ENDCHAR
STARTCHAR 4F57
ENCODING 20311
SWIDTH 720 0
DWIDTH 12 0
BBX 12 12 0 -2
BITMAP
1200
1FE0
1820
2820
2400
64C0
A700
2400
2400
2420
2420
23E0
ENDCHAR
STARTCHAR 4F59
ENCODING 20313
SWIDTH 720 0
DWIDTH 12 0
BBX 12 12 0 -2
BITMAP
0400
0400
0A00
3180
DF60
0400
7FC0
0400
2480
2440
4440
0C00
ENDCHAR
STARTCHAR 4F5A
ENCODING 20314
SWIDTH 720 0
DWIDTH 12 0
BBX 12 12 0 -2
BITMAP
2200
2A00
2A00
4FC0
5200
C200
5FE0
4200
4500
4500
4880
5040
ENDCHAR
STARTCHAR 4F5B
ENCODING 20315
SWIDTH 720 0
DWIDTH 12 0
BBX 12 12 0 -2
BITMAP
2500
2500
2FC0
4540
5FC0
D500
5FE0
4520
4520
4940
4900
5100
ENDCHAR
STARTCHAR 4F5C
ENCODING 20316
SWIDTH 720 0
DWIDTH 12 0
BBX 12 12 0 -2
BITMAP
1200
1200
13E0
2500
2500
69E0
A100
2100
21E0
2100
2100
2100
ENDCHAR
STARTCHAR 4F5D
ENCODING 20317
SWIDTH 720 0
DWIDTH 12 0
BBX 12 12 0 -2
BITMAP
1200
1200
17E0
2420
2820
7F20
A920
2920
2F20
2020
2020
20C0
ENDCHAR
STARTCHAR 4F5E
ENCODING 20318
SWIDTH 720 0
DWIDTH 12 0
BBX 12 12 0 -2
BITMAP
2FC0
2000
2FE0
4200
4200
DFE0
4480
4480
4F00
4180
4240
5C20
ENDCHAR
STARTCHAR 4F69
ENCODING 20329
SWIDTH 720 0
DWIDTH 12 0
BBX 12 12 0 -2
BITMAP
2000
3FC0
3040
5FC0
5240
D240
5FC0
5AC0
5AC0
6B50
6230
4210
ENDCHAR
STARTCHAR 4F6F
ENCODING 20335
SWIDTH 720 0
DWIDTH 12 0
BBX 12 12 0 -2
BITMAP
1440
1280
1FE0
2100
2100
6FC0
A100
2100
3FE0
2100
2100
2100
ENDCHAR
STARTCHAR 4F70
ENCODING 20336
SWIDTH 720 0
DWIDTH 12 0
BBX 12 12 0 -2
BITMAP
1000
1FE0
1100
2200
2FC0
6840
A840
2FC0
2840
2840
2840
2FC0
ENDCHAR
STARTCHAR 4F73
ENCODING 20339
SWIDTH 720 0
DWIDTH 12 0
BBX 12 12 0 -2
BITMAP
2200
2200
3FC0
4200
4200
DFE0
4200
4200
5FC0
4200
4200
7FE0
ENDCHAR
STARTCHAR 4F75
ENCODING 20341
SWIDTH 720 0
DWIDTH 12 0
BBX 12 12 0 -2
BITMAP
1840
1440
2480
2FE0
6480
A480
3FF0
2480
2480
2880
2880
3080
ENDCHAR
STARTCHAR 4F76
ENCODING 20342
SWIDTH 720 0
DWIDTH 12 0
BBX 12 12 0 -2
BITMAP
1100
1100
1FE0
2100
2100
6FC0
A000
2FC0
2840
2840
2840
2FC0
ENDCHAR
STARTCHAR 4F7B
ENCODING 20347
SWIDTH 720 0
DWIDTH 12 0
BBX 12 12 0 -2
BITMAP
2500
2500
2540
5540
4D80
C500
4D80
5540
4500
4920
4920
50E0
ENDCHAR
STARTCHAR 4F7C
ENCODING 20348
SWIDTH 720 0
DWIDTH 12 0
BBX 12 12 0 -2
BITMAP
1100
1100
1FE0
2280
2440
6CA0
A480
2280
2100
2280
2440
3820
ENDCHAR
STARTCHAR 4F7F
ENCODING 20351
SWIDTH 720 0
DWIDTH 12 0
BBX 12 12 0 -2
BITMAP
1100
1FE0
1100
2FE0
2920
6920
AFE0
2900
2500
2300
2480
3860
ENDCHAR
STARTCHAR 4F83
ENCODING 20355
SWIDTH 720 0
DWIDTH 12 0
BBX 12 12 0 -2
BITMAP
1000
1FC0
1840
2840
2840
6FC0
A000
2A80
2A80
2AA0
32A0
2060
ENDCHAR
STARTCHAR 4F86
ENCODING 20358
SWIDTH 720 0
DWIDTH 12 0
BBX 12 12 0 -2
BITMAP
0400
0400
FFE0
2480
2480
3580
4E40
8420
0E00
3580
C460
0400
ENDCHAR
STARTCHAR 4F88
ENCODING 20360
SWIDTH 720 0
DWIDTH 12 0
BBX 12 12 0 -2
BITMAP
1200
13C0
1440
3A80
2100
6680
B9E0
2220
2D40
2080
2300
2C00
ENDCHAR
STARTCHAR 4F8B
ENCODING 20363
SWIDTH 720 0
DWIDTH 12 0
BBX 12 12 0 -2
BITMAP
2020
3FA0
28A0
48A0
5EA0
D2A0
5AA0
64A0
44A0
4820
5020
6060
ENDCHAR
STARTCHAR 4F8D
ENCODING 20365
SWIDTH 720 0
DWIDTH 12 0
BBX 12 12 0 -2
BITMAP
1200
1FC0
1200
2200
3FE0
6080
BFE0
2880
2480
2080
2080
2180
ENDCHAR
STARTCHAR 4F8F
ENCODING 20367
SWIDTH 720 0
DWIDTH 12 0
BBX 12 12 0 -2
BITMAP
2100
2900
2FE0
4900
5100
DFF0
4100
4380
4540
5930
4100
4100
ENDCHAR
STARTCHAR 4F91
ENCODING 20369
SWIDTH 720 0
DWIDTH 12 0
BBX 12 12 0 -2
BITMAP
1200
1200
1FE0
2200
27C0
6440
AFC0
3440
27C0
2440
2440
24C0
ENDCHAR
STARTCHAR 4F96
ENCODING 20374
SWIDTH 720 0
DWIDTH 12 0
BBX 12 12 0 -2
BITMAP
0400
0A00
3180
DF60
0000
7FC0
4A40
4A40
7FC0
4A40
4A40
4AC0
ENDCHAR
STARTCHAR 4F98
ENCODING 20376
SWIDTH 720 0
DWIDTH 12 0
BBX 12 12 0 -2
BITMAP
2200
3FE0
3020
50A0
4300
CE00
4200
43E0
5E00
4200
4220
41E0
ENDCHAR
STARTCHAR 4F9B
ENCODING 20379
SWIDTH 720 0
DWIDTH 12 0
BBX 12 12 0 -2
BITMAP
1240
1240
1240
2FE0
2240
6240
A240
3FF0
2000
2240
2420
2820
ENDCHAR
STARTCHAR 4F9D
ENCODING 20381
SWIDTH 720 0
DWIDTH 12 0
BBX 12 12 0 -2
BITMAP
1100
1100
1FE0
2100
2220
6540
AD80
3500
2480
2480
2740
2C20
ENDCHAR
STARTCHAR 4FA0
ENCODING 20384
SWIDTH 720 0
DWIDTH 12 0
BBX 12 12 0 -2
BITMAP
2200
2200
3FC0
5240
4A80
CA00
7FE0
4200
4300
4480
4840
7020
ENDCHAR
STARTCHAR 4FA1
ENCODING 20385
SWIDTH 720 0
DWIDTH 12 0
BBX 12 12 0 -2
BITMAP
1000
1FE0
1280
2280
2FE0
6AA0
AAA0
2AA0
2AA0
2AA0
2FE0
2800
ENDCHAR
STARTCHAR 4FAB
ENCODING 20395
SWIDTH 720 0
DWIDTH 12 0
BBX 12 12 0 -2
BITMAP
2100
2100
2FE0
4800
4800
C7C0
4400
5FE0
4480
4E80
4380
4C40
ENDCHAR
STARTCHAR 4FAD
ENCODING 20397
SWIDTH 720 0
DWIDTH 12 0
BBX 12 12 0 -2
BITMAP
2000
2FE0
2820
4FE0
4880
C880
4B40
48C0
5020
5610
6100
4080
ENDCHAR
STARTCHAR 4FAE
ENCODING 20398
SWIDTH 720 0
DWIDTH 12 0
BBX 12 12 0 -2
BITMAP
2800
2FE0
2800
57C0
5540
C540
5FE0
4940
4940
5FE0
5040
4180
ENDCHAR
STARTCHAR 4FAF
ENCODING 20399
SWIDTH 720 0
DWIDTH 12 0
BBX 12 12 0 -2
BITMAP
1000
17C0
1040
2FE0
2400
67E0
A900
3100
2FE0
2280
2440
3820
ENDCHAR
STARTCHAR 4FB5
ENCODING 20405
SWIDTH 720 0
DWIDTH 12 0
BBX 12 12 0 -2
BITMAP
17C0
1040
17C0
2040
3FF0
7010
B7D0
2040
2680
2100
2280
2C60
ENDCHAR
STARTCHAR 4FB6
ENCODING 20406
SWIDTH 720 0
DWIDTH 12 0
BBX 12 12 0 -2
BITMAP
1000
17C0
1440
2440
27C0
6200
A400
2FE0
2820
2820
2820
2FE0
ENDCHAR
STARTCHAR 4FBF
ENCODING 20415
SWIDTH 720 0
DWIDTH 12 0
BBX 12 12 0 -2
BITMAP
1000
1FE0
1100
2FE0
2920
6FE0
A920
2FE0
2500
2300
2480
3860
ENDCHAR
STARTCHAR 4FC2
ENCODING 20418
SWIDTH 720 0
DWIDTH 12 0
BBX 12 12 0 -2
BITMAP
10C0
1F00
1240
2C80
2300
6240
AFA0
2100
2540
2520
2920
2100
ENDCHAR
STARTCHAR 4FC3
ENCODING 20419
SWIDTH 720 0
DWIDTH 12 0
BBX 12 12 0 -2
BITMAP
2000
2FC0
2840
4840
4FC0
C100
4900
49E0
4900
4D00
5300
60E0
ENDCHAR
STARTCHAR 4FC4
ENCODING 20420
SWIDTH 720 0
DWIDTH 12 0
BBX 12 12 0 -2
BITMAP
2500
3940
2920
2900
7FE0
4900
CD40
4940
5880
69A0
4A60
5820
ENDCHAR
STARTCHAR 4FCA
ENCODING 20426
SWIDTH 720 0
DWIDTH 12 0
BBX 12 12 0 -2
BITMAP
1100
1240
1FA0
2280
22A0
64E0
AA00
23C0
2640
2980
26C0
3820
ENDCHAR
STARTCHAR 4FCE
ENCODING 20430
SWIDTH 720 0
DWIDTH 12 0
BBX 12 12 0 -2
BITMAP
27C0
2440
2440
5440
4FC0
A440
2440
27C0
5440
4C40
8440
1FE0
ENDCHAR
STARTCHAR 4FD0
ENCODING 20432
SWIDTH 720 0
DWIDTH 12 0
BBX 12 12 0 -2
BITMAP
2320
3CA0
24A0
44A0
7FA0
CCA0
4EA0
55A0
64A0
4420
4420
4460
ENDCHAR
STARTCHAR 4FD1
ENCODING 20433
SWIDTH 720 0
DWIDTH 12 0
BBX 12 12 0 -2
BITMAP
1000
1FC0
1280
2100
2FE0
6920
AFE0
2920
2FE0
2920
2920
2960
ENDCHAR
STARTCHAR 4FD4
ENCODING 20436
SWIDTH 720 0
DWIDTH 12 0
BBX 12 12 0 -2
BITMAP
2000
2FC0
2840
4FC0
4840
CFC0
4840
4FC0
4500
4500
4920
50E0
ENDCHAR
STARTCHAR 4FD7
ENCODING 20439
SWIDTH 720 0
DWIDTH 12 0
BBX 12 12 0 -2
BITMAP
1280
1240
1520
2920
2280
6440
A820
37D0
2440
2440
2440
27C0
ENDCHAR
STARTCHAR 4FD8
ENCODING 20440
SWIDTH 720 0
DWIDTH 12 0
BBX 12 12 0 -2
BITMAP
20C0
3F80
2C80
5240
6220
DFC0
4180
4200
7FE0
4200
4200
4600
ENDCHAR
STARTCHAR 4FDA
ENCODING 20442
SWIDTH 720 0
DWIDTH 12 0
BBX 12 12 0 -2
BITMAP
1000
1FC0
1A40
2FC0
2A40
6A40
AFC0
2200
2FC0
2200
2200
3FE0
ENDCHAR
STARTCHAR 4FDB
ENCODING 20443
SWIDTH 720 0
DWIDTH 12 0
BBX 12 12 0 -2
BITMAP
2400
2780
2880
4100
5FC0
D240
5240
5FC0
4500
4520
4920
50E0
ENDCHAR
STARTCHAR 4FDD
ENCODING 20445
SWIDTH 720 0
DWIDTH 12 0
BBX 12 12 0 -2
BITMAP
2000
2FC0
2840
4840
4FC0
C200
7FE0
4700
4A80
5240
6220
4200
ENDCHAR
STARTCHAR 4FDF
ENCODING 20447
SWIDTH 720 0
DWIDTH 12 0
BBX 12 12 0 -2
BITMAP
2400
2500
2880
5F40
4800
CFC0
5200
6200
7FE0
4500
4880
7060
ENDCHAR
STARTCHAR 4FE1
ENCODING 20449
SWIDTH 720 0
DWIDTH 12 0
BBX 12 12 0 -2
BITMAP
1380
1000
1FE0
2000
27C0
6000
A7C0
2000
27C0
2440
2440
27C0
ENDCHAR
STARTCHAR 4FE3
ENCODING 20451
SWIDTH 720 0
DWIDTH 12 0
BBX 12 12 0 -2
BITMAP
2000
2FC0
2840
4840
4FC0
C000
4FC0
4200
5FE0
4300
4480
5860
ENDCHAR
STARTCHAR 4FE4
ENCODING 20452
SWIDTH 720 0
DWIDTH 12 0
BBX 12 12 0 -2
BITMAP
2880
2500
3FC0
2240
5FC0
5200
DFE0
4620
4A20
5220
62C0
4200
ENDCHAR
STARTCHAR 4FE5
ENCODING 20453
SWIDTH 720 0
DWIDTH 12 0
BBX 12 12 0 -2
BITMAP
2100
3FF0
2100
4FE0
4920
CFE0
4920
4FE0
4100
5FF0
4100
4100
ENDCHAR
STARTCHAR 4FEE
ENCODING 20462
SWIDTH 720 0
DWIDTH 12 0
BBX 12 12 0 -2
BITMAP
2400
27E0
2C40
5280
5180
DE40
5130
5680
5120
5640
4180
4E00
ENDCHAR
STARTCHAR 4FEF
ENCODING 20463
SWIDTH 720 0
DWIDTH 12 0
BBX 12 12 0 -2
BITMAP
2200
3FE0
3240
5240
57E0
DC40
5640
5540
5540
6440
6440
44C0
ENDCHAR
STARTCHAR 4FF3
ENCODING 20467
SWIDTH 720 0
DWIDTH 12 0
BBX 12 12 0 -2
BITMAP
2500
2500
3DE0
4500
4500
DDE0
4500
4500
7DE0
4900
4900
5100
ENDCHAR
STARTCHAR 4FF5
ENCODING 20469
SWIDTH 720 0
DWIDTH 12 0
BBX 12 12 0 -2
BITMAP
2100
2FE0
2100
4FE0
4100
DFF0
4200
4520
4D40
5480
4740
4C20
ENDCHAR
STARTCHAR 4FF6
ENCODING 20470
SWIDTH 720 0
DWIDTH 12 0
BBX 12 12 0 -2
BITMAP
2800
29E0
2E20
48A0
7FA0
C8A0
4CA0
5A40
5A40
68C0
4920
4A20
ENDCHAR
STARTCHAR 4FF8
ENCODING 20472
SWIDTH 720 0
DWIDTH 12 0
BBX 12 12 0 -2
BITMAP
2100
2FE0
2100
47C0
4280
DFF0
4540
5FB0
4100
4FE0
4100
4100
ENDCHAR
STARTCHAR 4FFA
ENCODING 20474
SWIDTH 720 0
DWIDTH 12 0
BBX 12 12 0 -2
BITMAP
2200
2200
3FE0
4500
CAC0
5FA0
6A80
4F80
4A80
4F80
4220
41E0
ENDCHAR
STARTCHAR 4FFE
ENCODING 20478
SWIDTH 720 0
DWIDTH 12 0
BBX 12 12 0 -2
BITMAP
2200
2400
3FC0
5240
5FC0
D240
5FC0
4900
7FE0
4100
4100
4100
ENDCHAR
STARTCHAR 5005
ENCODING 20485
SWIDTH 720 0
DWIDTH 12 0
BBX 12 12 0 -2
BITMAP
2200
2200
3FE0
4880
4880
D540
5220
4200
7FE0
4200
4200
4200
ENDCHAR
STARTCHAR 5006
ENCODING 20486
SWIDTH 720 0
DWIDTH 12 0
BBX 12 12 0 -2
BITMAP
2000
3FF0
2100
5FF0
5110
DDD0
5550
5550
5BB0
5110
5110
5130
ENDCHAR
STARTCHAR 5009
ENCODING 20489
SWIDTH 720 0
DWIDTH 12 0
BBX 12 12 0 -2
BITMAP
0400
0A00
3180
FFE0
2080
3F80
2080
3F80
2000
3FC0
5040
9FC0
ENDCHAR
STARTCHAR 500B
ENCODING 20491
SWIDTH 720 0
DWIDTH 12 0
BBX 12 12 0 -2
BITMAP
2000
3FE0
3220
5220
5FE0
D220
57A0
54A0
54A0
57A0
5020
5FE0
ENDCHAR
STARTCHAR 500D
ENCODING 20493
SWIDTH 720 0
DWIDTH 12 0
BBX 12 12 0 -2
BITMAP
1100
1100
1FE0
2440
2280
7FE0
A000
27C0
2440
2440
2440
27C0
ENDCHAR
STARTCHAR 500F
ENCODING 20495
SWIDTH 720 0
DWIDTH 12 0
BBX 12 12 0 -2
BITMAP
2400
27E0
2440
5B80
5280
DC60
5180
5140
5FE0
5100
4280
4C60
ENDCHAR
STARTCHAR 5011
ENCODING 20497
SWIDTH 720 0
DWIDTH 12 0
BBX 12 12 0 -2
BITMAP
1000
1EE0
1AA0
2EE0
2AA0
6EE0
A820
2820
2820
2820
2820
2860
ENDCHAR
STARTCHAR 5012
ENCODING 20498
SWIDTH 720 0
DWIDTH 12 0
BBX 12 12 0 -2
BITMAP
2020
3F20
24A0
4AA0
5DA0
C4A0
5FA0
44A0
44A0
4720
5820
4060
ENDCHAR
STARTCHAR 5014
ENCODING 20500
SWIDTH 720 0
DWIDTH 12 0
BBX 12 12 0 -2
BITMAP
2000
2FE0
2820
4FE0
4900
CD40
4D40
57C0
5100
6920
4920
4FE0
ENDCHAR
STARTCHAR 5016
ENCODING 20502
SWIDTH 720 0
DWIDTH 12 0
BBX 12 12 0 -2
BITMAP
1100
1100
1FC0
2100
3FE0
6440
AFE0
2100
2FC0
2100
2100
2100
ENDCHAR
STARTCHAR 5019
ENCODING 20505
SWIDTH 720 0
DWIDTH 12 0
BBX 12 12 0 -2
BITMAP
2000
27C0
2040
5FE0
5400
D7C0
5900
5100
5FE0
5280
4440
5820
ENDCHAR
STARTCHAR 501A
ENCODING 20506
SWIDTH 720 0
DWIDTH 12 0
BBX 12 12 0 -2
BITMAP
2200
3FE0
2300
4480
5840
FFE0
4040
4F40
4940
4F40
4040
40C0
ENDCHAR
STARTCHAR 501F
ENCODING 20511
SWIDTH 720 0
DWIDTH 12 0
BBX 12 12 0 -2
BITMAP
1480
1480
1FC0
2480
3FE0
6000
AFC0
2840
2FC0
2840
2840
2FC0
ENDCHAR
STARTCHAR 5021
ENCODING 20513
SWIDTH 720 0
DWIDTH 12 0
BBX 12 12 0 -2
BITMAP
17C0
1440
17C0
2440
27C0
6000
AFE0
2820
2FE0
2820
2820
2FE0
ENDCHAR
STARTCHAR 5023
ENCODING 20515
SWIDTH 720 0
DWIDTH 12 0
BBX 12 12 0 -2
BITMAP
2900
2900
29F0
7F20
4920
CEA0
4AC0
4A40
5240
52A0
62A0
4D10
ENDCHAR
STARTCHAR 5024
ENCODING 20516
SWIDTH 720 0
DWIDTH 12 0
BBX 12 12 0 -2
BITMAP
2100
2FE0
2100
47C0
5440
D7C0
5440
57C0
5440
57C0
5000
5FE0
ENDCHAR
STARTCHAR 5025
ENCODING 20517
SWIDTH 720 0
DWIDTH 12 0
BBX 12 12 0 -2
BITMAP
2200
2200
3FE0
5520
4500
C9E0
5000
5FC0
4200
4200
4200
7FE0
ENDCHAR
STARTCHAR 5026
ENCODING 20518
SWIDTH 720 0
DWIDTH 12 0
BBX 12 12 0 -2
BITMAP
2240
2A80
3FC0
4200
5FE0
C500
4880
5F40
6120
4F00
4840
47C0
ENDCHAR
STARTCHAR 5028
ENCODING 20520
SWIDTH 720 0
DWIDTH 12 0
BBX 12 12 0 -2
BITMAP
2000
2FE0
2820
4FE0
4900
CFF0
4900
4900
57E0
5420
6420
47E0
ENDCHAR
STARTCHAR 5029
ENCODING 20521
SWIDTH 720 0
DWIDTH 12 0
BBX 12 12 0 -2
BITMAP
2200
3FC0
2200
4F80
4200
FFE0
5240
5240
5FC0
5040
5040
50C0
ENDCHAR
STARTCHAR 502A
ENCODING 20522
SWIDTH 720 0
DWIDTH 12 0
BBX 12 12 0 -2
BITMAP
2200
2CC0
2840
2EC0
4840
4840
CFC0
4500
4500
4520
4920
50E0
ENDCHAR
STARTCHAR 502B
ENCODING 20523
SWIDTH 720 0
DWIDTH 12 0
BBX 12 12 0 -2
BITMAP
2200
2200
2500
4880
5FC0
E020
5FC0
5540
5FC0
5540
5540
50C0
ENDCHAR
STARTCHAR 502C
ENCODING 20524
SWIDTH 720 0
DWIDTH 12 0
BBX 12 12 0 -2
BITMAP
2200
23E0
2200
5FC0
5040
DFC0
5040
5FC0
4200
7FE0
4200
4200
ENDCHAR
STARTCHAR 502D
ENCODING 20525
SWIDTH 720 0
DWIDTH 12 0
BBX 12 12 0 -2
BITMAP
20C0
2F00
2200
5FE0
4700
CA80
5260
4400
5FE0
4C80
4300
5CC0
ENDCHAR
STARTCHAR 5036
ENCODING 20534
SWIDTH 720 0
DWIDTH 12 0
BBX 12 12 0 -2
BITMAP
1000
1FC0
1840
2840
2FC0
6840
AFC0
2840
3FE0
2280
2440
3820
ENDCHAR
STARTCHAR 5039
ENCODING 20537
SWIDTH 720 0
DWIDTH 12 0
BBX 12 12 0 -2
BITMAP
1100
1280
1440
2BA0
3110
6FE0
A920
2FE0
2300
2280
2440
2820
ENDCHAR
STARTCHAR 5043
ENCODING 20547
SWIDTH 720 0
DWIDTH 12 0
BBX 12 12 0 -2
BITMAP
2000
3FE0
37C0
5440
57C0
D440
5FE0
5240
5680
5180
5640
5FE0
ENDCHAR
STARTCHAR 5047
ENCODING 20551
SWIDTH 720 0
DWIDTH 12 0
BBX 12 12 0 -2
BITMAP
2000
3EE0
3220
5220
5EE0
D000
5EE0
5120
50A0
5E40
50A0
5310
ENDCHAR
STARTCHAR 5048
ENCODING 20552
SWIDTH 720 0
DWIDTH 12 0
BBX 12 12 0 -2
BITMAP
2000
2FC0
2840
4FC0
4840
CFC0
4400
4FE0
5920
6AA0
4FA0
40C0
ENDCHAR
STARTCHAR 5049
ENCODING 20553
SWIDTH 720 0
DWIDTH 12 0
BBX 12 12 0 -2
BITMAP
1200
17C0
1240
3FF0
2440
67C0
A100
2FC0
2900
3FE0
2100
2100
ENDCHAR
STARTCHAR 504F
ENCODING 20559
SWIDTH 720 0
DWIDTH 12 0
BBX 12 12 0 -2
BITMAP
2FC0
2000
3FC0
5040
5FC0
D000
5FE0
5AA0
5FE0
6AA0
6AA0
4860
ENDCHAR
STARTCHAR 5050
ENCODING 20560
SWIDTH 720 0
DWIDTH 12 0
BBX 12 12 0 -2
BITMAP
2100
2FE0
2440
4280
4FE0
C880
4940
4E80
4920
5640
5180
6600
ENDCHAR
STARTCHAR 5055
ENCODING 20565
SWIDTH 720 0
DWIDTH 12 0
BBX 12 12 0 -2
BITMAP
2900
2900
2F60
4980
4F20
F8E0
4000
4FC0
4840
4FC0
4840
4FC0
ENDCHAR
STARTCHAR 5056
ENCODING 20566
SWIDTH 720 0
DWIDTH 12 0
BBX 12 12 0 -2
BITMAP
2200
2200
2FC0
4280
5FE0
C300
4480
4FC0
7440
47C0
4440
47C0
ENDCHAR
STARTCHAR 505A
ENCODING 20570
SWIDTH 720 0
DWIDTH 12 0
BBX 12 12 0 -2
BITMAP
2880
2880
2880
7FF0
4940
CB40
5D40
5540
5480
5D80
4240
4420
ENDCHAR
STARTCHAR 505C
ENCODING 20572
SWIDTH 720 0
DWIDTH 12 0
BBX 12 12 0 -2
BITMAP
1100
1FE0
1000
27C0
2440
7FF0
B010
27C0
2100
2100
2100
2300
ENDCHAR
STARTCHAR 5065
ENCODING 20581
SWIDTH 720 0
DWIDTH 12 0
BBX 12 12 0 -2
BITMAP
2080
23E0
3CA0
47F0
48A0
DFE0
4480
57E0
4C80
47E0
4A80
51F0
ENDCHAR
STARTCHAR 506C
ENCODING 20588
SWIDTH 720 0
DWIDTH 12 0
BBX 12 12 0 -2
BITMAP
2400
2400
27E0
4AA0
56A0
E9A0
4220
44C0
5600
5520
6450
43C0
ENDCHAR
STARTCHAR 5072
ENCODING 20594
SWIDTH 720 0
DWIDTH 12 0
BBX 12 12 0 -2
BITMAP
2000
3FC0
3240
5FC0
5240
D240
5FC0
4200
5540
5520
64A0
4380
ENDCHAR
STARTCHAR 5074
ENCODING 20596
SWIDTH 720 0
DWIDTH 12 0
BBX 12 12 0 -2
BITMAP
2020
3EA0
32A0
52A0
5EA0
52A0
DEA0
52A0
5EA0
4420
4A20
5060
ENDCHAR
STARTCHAR 5075
ENCODING 20597
SWIDTH 720 0
DWIDTH 12 0
BBX 12 12 0 -2
BITMAP
1100
11E0
1100
2FC0
2840
6FC0
A840
2FC0
2840
2FC0
2440
3820
ENDCHAR
STARTCHAR 5076
ENCODING 20598
SWIDTH 720 0
DWIDTH 12 0
BBX 12 12 0 -2
BITMAP
2000
2FC0
2A40
4FC0
4A40
CFC0
4200
5FE0
52A0
53A0
5CA0
5060
ENDCHAR
STARTCHAR 5078
ENCODING 20600
SWIDTH 720 0
DWIDTH 12 0
BBX 12 12 0 -2
BITMAP
2200
2300
2480
4F40
5020
FCA0
54A0
5D40
5540
5D40
54A0
54A0
ENDCHAR
STARTCHAR 507D
ENCODING 20605
SWIDTH 720 0
DWIDTH 12 0
BBX 12 12 0 -2
BITMAP
2900
2500
2200
5F80
4480
C7C0
4840
5FE0
6020
4AA0
5220
40C0
ENDCHAR
STARTCHAR 5080
ENCODING 20608
SWIDTH 720 0
DWIDTH 12 0
BBX 12 12 0 -2
BITMAP
2200
2400
3FC0
5240
5FC0
D240
5FC0
4680
4680
4B60
4A20
51E0
ENDCHAR
STARTCHAR 5085
ENCODING 20613
SWIDTH 720 0
DWIDTH 12 0
BBX 12 12 0 -2
BITMAP
2280
3FE0
2200
5FC0
5240
DFC0
5240
4080
7FE0
4880
4480
4180
ENDCHAR
STARTCHAR 508D
ENCODING 20621
SWIDTH 720 0
DWIDTH 12 0
BBX 12 12 0 -2
BITMAP
2100
3FE0
2480
4480
5FE0
D220
5FE0
4200
43C0
4440
4840
7180
ENDCHAR
STARTCHAR 5091
ENCODING 20625
SWIDTH 720 0
DWIDTH 12 0
BBX 12 12 0 -2
BITMAP
2840
2C40
35E0
5D40
47E0
C840
7240
5FE0
4700
4A80
5260
4200
ENDCHAR
STARTCHAR 5098
ENCODING 20632
SWIDTH 720 0
DWIDTH 12 0
BBX 12 12 0 -2
BITMAP
0400
0A00
3180
C460
2480
5540
2480
5540
FFE0
0400
0400
0400
ENDCHAR
STARTCHAR 5099
ENCODING 20633
SWIDTH 720 0
DWIDTH 12 0
BBX 12 12 0 -2
BITMAP
2480
2FE0
2480
5FE0
5000
D7E0
5520
57E0
5520
57E0
6520
4560
ENDCHAR
STARTCHAR 509A
ENCODING 20634
SWIDTH 720 0
DWIDTH 12 0
BBX 12 12 0 -2
BITMAP
2880
2880
3FE0
5540
6240
D540
5540
4880
4C80
5340
6240
4420
ENDCHAR
STARTCHAR 50AC
ENCODING 20652
SWIDTH 720 0
DWIDTH 12 0
BBX 12 12 0 -2
BITMAP
1100
1920
1FE0
2480
2900
6FE0
B900
2FC0
2900
2FC0
2900
2FE0
ENDCHAR
STARTCHAR 50AD
ENCODING 20653
SWIDTH 720 0
DWIDTH 12 0
BBX 12 12 0 -2
BITMAP
2200
3FE0
3100
57C0
5140
DFE0
D520
57E0
5520
57E0
5520
6560
ENDCHAR
STARTCHAR 50B2
ENCODING 20658
SWIDTH 720 0
DWIDTH 12 0
BBX 12 12 0 -2
BITMAP
2880
2880
3EF0
4920
7F20
CAA0
7EC0
4840
4EC0
4AA0
5320
6610
ENDCHAR
STARTCHAR 50B3
ENCODING 20659
SWIDTH 720 0
DWIDTH 12 0
BBX 12 12 0 -2
BITMAP
2280
3FE0
2A40
4FC0
4A40
CFC0
42C0
5F20
4080
7FE0
4880
4180
ENDCHAR
STARTCHAR 50B4
ENCODING 20660
SWIDTH 720 0
DWIDTH 12 0
BBX 12 12 0 -2
BITMAP
2000
3FE0
53C0
5240
D3C0
5000
57E0
55A0
55A0
57E0
5000
5FE0
ENDCHAR
STARTCHAR 50B5
ENCODING 20661
SWIDTH 720 0
DWIDTH 12 0
BBX 12 12 0 -2
BITMAP
1100
1FC0
2100
2FC0
6100
BFE0
2440
27C0
2440
27C0
2640
3820
ENDCHAR
STARTCHAR 50B7
ENCODING 20663
SWIDTH 720 0
DWIDTH 12 0
BBX 12 12 0 -2
BITMAP
1400
17E0
2C40
37C0
6440
BFF0
2400
2FE0
32A0
2D20
2220
2CC0
ENDCHAR
STARTCHAR 50BE
ENCODING 20670
SWIDTH 720 0
DWIDTH 12 0
BBX 12 12 0 -2
BITMAP
2000
2FE0
2100
53C0
5640
DBC0
5240
53C0
5640
4FC0
4340
4C20
ENDCHAR
STARTCHAR 50C2
ENCODING 20674
SWIDTH 720 0
DWIDTH 12 0
BBX 12 12 0 -2
BITMAP
2200
2FC0
2A40
7FE0
4A40
CFC0
4A40
5FE0
4480
4C80
4300
5CC0
ENDCHAR
STARTCHAR 50C5
ENCODING 20677
SWIDTH 720 0
DWIDTH 12 0
BBX 12 12 0 -2
BITMAP
2280
2FE0
2280
4FE0
4920
CFE0
4100
4FE0
4100
47C0
4100
4FE0
ENDCHAR
STARTCHAR 50C9
ENCODING 20681
SWIDTH 720 0
DWIDTH 12 0
BBX 12 12 0 -2
BITMAP
0400
0A00
3180
DF60
0000
7BC0
4A40
7BC0
2080
30C0
4920
8220
ENDCHAR
STARTCHAR 50CA
ENCODING 20682
SWIDTH 720 0
DWIDTH 12 0
BBX 12 12 0 -2
BITMAP
3FE0
2500
3FC0
5540
5FC0
C200
7FE0
4FC0
58A0
6F80
4820
47E0
ENDCHAR
STARTCHAR 50CD
ENCODING 20685
SWIDTH 720 0
DWIDTH 12 0
BBX 12 12 0 -2
BITMAP
2740
3C40
24F0
5F50
5550
DF50
5550
5F50
4450
5E50
4790
58B0
ENDCHAR
STARTCHAR 50CF
ENCODING 20687
SWIDTH 720 0
DWIDTH 12 0
BBX 12 12 0 -2
BITMAP
2380
2500
3FE0
4920
4FE0
C320
5D40
4680
59C0
46A0
5890
4300
ENDCHAR
STARTCHAR 50D1
ENCODING 20689
SWIDTH 720 0
DWIDTH 12 0
BBX 12 12 0 -2
BITMAP
17C0
1100
2FE0
2280
2C60
6380
A280
2FE0
2BA0
2AA0
2BA0
2860
ENDCHAR
STARTCHAR 50D5
ENCODING 20693
SWIDTH 720 0
DWIDTH 12 0
BBX 12 12 0 -2
BITMAP
2500
3540
3FE0
6500
5FC0
C200
4FC0
4200
5FE0
4500
4880
7060
ENDCHAR
STARTCHAR 50D6
ENCODING 20694
SWIDTH 720 0
DWIDTH 12 0
BBX 12 12 0 -2
BITMAP
2200
3FE0
2200
5FC0
5040
DFC0
4880
7FE0
4000
5FC0
5040
5FC0
ENDCHAR
STARTCHAR 50DA
ENCODING 20698
SWIDTH 720 0
DWIDTH 12 0
BBX 12 12 0 -2
BITMAP
2200
3FE0
2200
5540
4880
DFC0
68A0
4F80
4280
4A40
5240
4600
ENDCHAR
STARTCHAR 50DE
ENCODING 20702
SWIDTH 720 0
DWIDTH 12 0
BBX 12 12 0 -2
BITMAP
20C0
3F40
2920
5F80
4880
CFC0
4840
4FE0
5120
54A0
6A20
48C0
ENDCHAR
STARTCHAR 50E3
ENCODING 20707
SWIDTH 720 0
DWIDTH 12 0
BBX 12 12 0 -2
BITMAP
2480
3FE0
2480
5FF0
4480
CB40
5120
4FC0
4840
4FC0
4840
4FC0
ENDCHAR
STARTCHAR 50E5
ENCODING 20709
SWIDTH 720 0
DWIDTH 12 0
BBX 12 12 0 -2
BITMAP
2200
2FC0
2200
7FE0
4880
DDC0
4880
5DC0
7FE0
4500
4920
50E0
ENDCHAR
STARTCHAR 50E7
ENCODING 20711
SWIDTH 720 0
DWIDTH 12 0
BBX 12 12 0 -2
BITMAP
1440
1280
2FE0
2920
6FE0
A920
2FE0
27C0
2440
27C0
2440
27C0
ENDCHAR
STARTCHAR 50ED
ENCODING 20717
SWIDTH 720 0
DWIDTH 12 0
BBX 12 12 0 -2
BITMAP
2440
3FE0
3540
5FF0
4CC0
D550
6670
4FC0
4840
4FC0
4840
4FC0
ENDCHAR
STARTCHAR 50EE
ENCODING 20718
SWIDTH 720 0
DWIDTH 12 0
BBX 12 12 0 -2
BITMAP
2100
2FE0
2440
5FF0
4920
CFE0
4920
4FE0
4100
4FE0
4100
5FF0
ENDCHAR
STARTCHAR 50F5
ENCODING 20725
SWIDTH 720 0
DWIDTH 12 0
BBX 12 12 0 -2
BITMAP
2000
3FE0
2A40
4FC0
4A40
DFE0
4000
4FC0
4A40
4FC0
4A40
5FE0
ENDCHAR
STARTCHAR 50F9
ENCODING 20729
SWIDTH 720 0
DWIDTH 12 0
BBX 12 12 0 -2
BITMAP
2000
3FE0
2500
5FE0
5520
DFE0
4840
4FC0
4FC0
4840
4FC0
5860
ENDCHAR
STARTCHAR 50FB
ENCODING 20731
SWIDTH 720 0
DWIDTH 12 0
BBX 12 12 0 -2
BITMAP
2080
3C80
37E0
5540
5D40
D3E0
5C80
7480
57E0
5480
5C80
4080
ENDCHAR
STARTCHAR 5100
ENCODING 20736
SWIDTH 720 0
DWIDTH 12 0
BBX 12 12 0 -2
BITMAP
2480
3FE0
2200
4FC0
4200
FFE0
4D40
5FE0
4540
5CA0
4560
4C20
ENDCHAR
STARTCHAR 5101
ENCODING 20737
SWIDTH 720 0
DWIDTH 12 0
BBX 12 12 0 -2
BITMAP
2480
2500
2FE0
5900
6FC0
C900
4FE0
4000
5DE0
5520
5720
5060
ENDCHAR
STARTCHAR 5102
ENCODING 20738
SWIDTH 720 0
DWIDTH 12 0
BBX 12 12 0 -2
BITMAP
2280
2FE0
2AA0
4FE0
4AA0
DFE0
5000
5FE0
5520
54C0
6740
4C20
ENDCHAR
STARTCHAR 5104
ENCODING 20740
SWIDTH 720 0
DWIDTH 12 0
BBX 12 12 0 -2
BITMAP
2100
2FC0
2480
3FE0
4840
4FC0
C840
4FC0
5600
5540
64A0
4380
ENDCHAR
STARTCHAR 5109
ENCODING 20745
SWIDTH 720 0
DWIDTH 12 0
BBX 12 12 0 -2
BITMAP
2200
2300
2480
4FC0
5020
DDD0
5540
5DC0
4880
4CC0
5120
6200
ENDCHAR
STARTCHAR 5112
ENCODING 20754
SWIDTH 720 0
DWIDTH 12 0
BBX 12 12 0 -2
BITMAP
2FC0
2200
3FE0
5220
57A0
C000
5FE0
4200
4FE0
4AA0
4AA0
4AE0
ENDCHAR
STARTCHAR 5114
ENCODING 20756
SWIDTH 720 0
DWIDTH 12 0
BBX 12 12 0 -2
BITMAP
2100
2FE0
2100
5FE0
4FA0
C200
5FE0
4040
7FE0
5640
5D40
40C0
ENDCHAR
STARTCHAR 5115
ENCODING 20757
SWIDTH 720 0
DWIDTH 12 0
BBX 12 12 0 -2
BITMAP
2100
2FE0
22A0
5DE0
4D40
D5A0
6440
47C0
4440
47C0
4840
5040
ENDCHAR
STARTCHAR 5116
ENCODING 20758
SWIDTH 720 0
DWIDTH 12 0
BBX 12 12 0 -2
BITMAP
3E80
3480
3EE0
5300
5E00
D4E0
5F00
4000
5FC0
5540
5540
7FE0
ENDCHAR
STARTCHAR 5118
ENCODING 20760
SWIDTH 720 0
DWIDTH 12 0
BBX 12 12 0 -2
BITMAP
2200
2FC0
2240
7FE0
4FC0
C200
7FE0
52A0
5FC0
5540
5540
7FE0
ENDCHAR
STARTCHAR 511A
ENCODING 20762
SWIDTH 720 0
DWIDTH 12 0
BBX 12 12 0 -2
BITMAP
2480
3FE0
2480
5FC0
5540
DFC0
4000
7FE0
67A0
5C80
4300
5C00
ENDCHAR
STARTCHAR 511F
ENCODING 20767
SWIDTH 720 0
DWIDTH 12 0
BBX 12 12 0 -2
BITMAP
2A40
2580
3FE0
57A0
54A0
CFC0
4840
4FC0
4840
4FC0
4440
5820
ENDCHAR
STARTCHAR 5121
ENCODING 20769
SWIDTH 720 0
DWIDTH 12 0
BBX 12 12 0 -2
BITMAP
2000
2FC0
2A40
4FC0
4A40
CFC0
4000
7FE0
6AA0
7FE0
6AA0
7FE0
ENDCHAR
STARTCHAR 512A
ENCODING 20778
SWIDTH 720 0
DWIDTH 12 0
BBX 12 12 0 -2
BITMAP
3FE0
2200
2780
4480
5FE0
D6A0
4B40
57A0
4C80
5300
4680
5860
ENDCHAR
STARTCHAR 5132
ENCODING 20786
SWIDTH 720 0
DWIDTH 12 0
BBX 12 12 0 -2
BITMAP
2C80
21E0
3E80
4080
5FE0
C100
5DE0
4120
5FE0
5520
5520
5DE0
ENDCHAR
STARTCHAR 5137
ENCODING 20791
SWIDTH 720 0
DWIDTH 12 0
BBX 12 12 0 -2
BITMAP
3DE0
2000
3DE0
6AA0
5FE0
DFC0
5540
5FC0
5AA0
5CC0
6AA0
5CE0
ENDCHAR
STARTCHAR 513A
ENCODING 20794
SWIDTH 720 0
DWIDTH 12 0
BBX 12 12 0 -2
BITMAP
2AA0
3F40
2BF0
5F40
5540
DFE0
4540
5F40
45E0
7F40
5340
61F0
ENDCHAR
STARTCHAR 513B
ENCODING 20795
SWIDTH 720 0
DWIDTH 12 0
BBX 12 12 0 -2
BITMAP
2A40
3FE0
34A0
4780
4FC0
CDC0
4B40
4FC0
4100
5FE0
4A40
5520
ENDCHAR
STARTCHAR 513C
ENCODING 20796
SWIDTH 720 0
DWIDTH 12 0
BBX 12 12 0 -2
BITMAP
2EE0
2AA0
3FE0
5680
5280
DFF0
55A0
57A0
5540
5F40
52A0
6310
ENDCHAR
STARTCHAR 513F
ENCODING 20799
SWIDTH 720 0
DWIDTH 12 0
BBX 12 12 0 -2
BITMAP
1100
1100
1100
1100
1100
1100
1100
1100
2100
2120
4120
80E0
ENDCHAR
STARTCHAR 5140
ENCODING 20800
SWIDTH 720 0
DWIDTH 12 0
BBX 12 12 0 -2
BITMAP
0000
FFE0
1100
1100
1100
1100
1100
1100
2100
2120
4120
80E0
ENDCHAR
STARTCHAR 5141
ENCODING 20801
SWIDTH 720 0
DWIDTH 12 0
BBX 12 12 0 -2
BITMAP
0800
0800
1300
20C0
7F20
0A00
0A00
0A00
1200
1220
2220
41E0
ENDCHAR
STARTCHAR 5143
ENCODING 20803
SWIDTH 720 0
DWIDTH 12 0
BBX 12 12 0 -2
BITMAP
0000
1F80
0000
0000
7FE0
0900
0900
0900
1100
1120
2120
40E0
ENDCHAR
STARTCHAR 5144
ENCODING 20804
SWIDTH 720 0
DWIDTH 12 0
BBX 12 12 0 -2
BITMAP
0000
3F80
2080
2080
2080
3F80
0A00
0A00
0A00
1220
2220
C1E0
ENDCHAR
STARTCHAR 5145
ENCODING 20805
SWIDTH 720 0
DWIDTH 12 0
BBX 12 12 0 -2
BITMAP
0800
0800
FFE0
0A00
1180
7E40
1200
1200
1200
2220
4220
81E0
ENDCHAR
STARTCHAR 5146
ENCODING 20806
SWIDTH 720 0
DWIDTH 12 0
BBX 12 12 0 -2
BITMAP
0A00
0A40
4A40
2A80
2B00
0A00
1B00
2AC0
D200
1220
2220
C1E0
ENDCHAR
STARTCHAR 5147
ENCODING 20807
SWIDTH 720 0
DWIDTH 12 0
BBX 12 12 0 -2
BITMAP
0200
5A40
4440
4640
4940
5040
7FC0
0A00
0A00
1220
2220
C1E0
ENDCHAR
STARTCHAR 5148
ENCODING 20808
SWIDTH 720 0
DWIDTH 12 0
BBX 12 12 0 -2
BITMAP
0400
2400
2400
3F80
2400
4400
FFE0
0A00
0A00
1220
2220
C1E0
ENDCHAR
STARTCHAR 5149
ENCODING 20809
SWIDTH 720 0
DWIDTH 12 0
BBX 12 12 0 -2
BITMAP
0400
4480
2480
2500
0400
7FE0
0A00
0A00
1200
1220
2220
C1E0
ENDCHAR
STARTCHAR 514B
ENCODING 20811
SWIDTH 720 0
DWIDTH 12 0
BBX 12 12 0 -2
BITMAP
0400
0400
FFE0
0400
3F80
2080
2080
3F80
0A00
0A20
1220
E1E0
ENDCHAR
STARTCHAR 514C
ENCODING 20812
SWIDTH 720 0
DWIDTH 12 0
BBX 12 12 0 -2
BITMAP
0B00
1100
2080
DFE0
2080
2080
3F80
0A00
0A00
1220
2220
C1E0
ENDCHAR
STARTCHAR 514D
ENCODING 20813
SWIDTH 720 0
DWIDTH 12 0
BBX 12 12 0 -2
BITMAP
0800
0F00
1200
2400
FFC0
2440
2440
3FC0
0A00
1220
2220
C1E0
ENDCHAR
STARTCHAR 514E
ENCODING 20814
SWIDTH 720 0
DWIDTH 12 0
BBX 12 12 0 -2
BITMAP
01C0
7E00
0400
7FC0
4440
4440
7FC0
0A00
0B00
12A0
2220
C1E0
ENDCHAR
STARTCHAR 5150
ENCODING 20816
SWIDTH 720 0
DWIDTH 12 0
BBX 12 12 0 -2
BITMAP
4F80
4880
4880
4F80
4880
4880
4F80
4200
1200
1220
2220
C1E0
ENDCHAR
STARTCHAR 5152
ENCODING 20818
SWIDTH 720 0
DWIDTH 12 0
BBX 12 12 0 -2
BITMAP
0800
3380
2080
2080
3B80
2080
2080
3F80
0900
0920
1120
60E0
ENDCHAR
STARTCHAR 5154
ENCODING 20820
SWIDTH 720 0
DWIDTH 12 0
BBX 12 12 0 -2
BITMAP
0800
0F00
1200
2400
FFC0
4440
4440
7FC0
0B00
12A0
2220
C1E0
ENDCHAR
STARTCHAR 515A
ENCODING 20826
SWIDTH 720 0
DWIDTH 12 0
BBX 12 12 0 -2
BITMAP
2480
1500
FFE0
8020
BFA0
2080
2080
3F80
0A00
0A00
3220
C1E0
ENDCHAR
STARTCHAR 515C
ENCODING 20828
SWIDTH 720 0
DWIDTH 12 0
BBX 12 12 0 -2
BITMAP
1400
6FC0
4A40
4E40
4A40
7BC0
4E40
0000
0A00
1220
2220
C1E0
ENDCHAR
STARTCHAR 5162
ENCODING 20834
SWIDTH 720 0
DWIDTH 12 0
BBX 12 12 0 -2
BITMAP
1080
FFE0
1080
7BC0
4A40
4A40
7BC0
3180
3180
36A0
5AA0
8460
ENDCHAR
STARTCHAR 5165
ENCODING 20837
SWIDTH 720 0
DWIDTH 12 0
BBX 12 12 0 -2
BITMAP
0000
1C00
0400
0400
0400
0400
0A00
0A00
1100
2080
4040
8020
ENDCHAR
STARTCHAR 5168
ENCODING 20840
SWIDTH 720 0
DWIDTH 12 0
BBX 12 12 0 -2
BITMAP
0400
0400
0A00
1100
2080
FFE0
0400
0400
3F80
0400
0400
FFE0
ENDCHAR
STARTCHAR 5169
ENCODING 20841
SWIDTH 720 0
DWIDTH 12 0
BBX 12 12 0 -2
BITMAP
0000
FFE0
0400
FFE0
8420
B5A0
94A0
94A0
AD60
C620
8420
8460
ENDCHAR
STARTCHAR 516A
ENCODING 20842
SWIDTH 720 0
DWIDTH 12 0
BBX 12 12 0 -2
BITMAP
1C00
0A00
1100
2E80
C060
7940
6940
5A80
6A80
5940
4940
5940
ENDCHAR
STARTCHAR 516B
ENCODING 20843
SWIDTH 720 0
DWIDTH 12 0
BBX 12 12 0 -2
BITMAP
0000
1F00
0100
0100
1100
1100
1100
1080
2080
2040
4040
8020
ENDCHAR
STARTCHAR 516C
ENCODING 20844
SWIDTH 720 0
DWIDTH 12 0
BBX 12 12 0 -2
BITMAP
1100
1100
1100
2080
2440
4420
8400
0900
0880
1780
7840
0040
ENDCHAR
STARTCHAR 516D
ENCODING 20845
SWIDTH 720 0
DWIDTH 12 0
BBX 12 12 0 -2
BITMAP
0400
0400
0400
FFE0
0000
1200
1100
2080
2040
4040
8040
0000
ENDCHAR
STARTCHAR 516E
ENCODING 20846
SWIDTH 720 0
DWIDTH 12 0
BBX 12 12 0 -2
BITMAP
1600
1200
2100
4080
BF60
0800
0800
1F00
1100
0100
0100
0600
ENDCHAR
STARTCHAR 5171
ENCODING 20849
SWIDTH 720 0
DWIDTH 12 0
BBX 12 12 0 -2
BITMAP
1100
1100
1100
7FC0
1100
1100
1100
FFE0
0100
1080
2040
C040
ENDCHAR
STARTCHAR 5175
ENCODING 20853
SWIDTH 720 0
DWIDTH 12 0
BBX 12 12 0 -2
BITMAP
0300
3C00
2000
2000
3FC0
2100
2100
2100
FFE0
1200
2180
C040
ENDCHAR
STARTCHAR 5176
ENCODING 20854
SWIDTH 720 0
DWIDTH 12 0
BBX 12 12 0 -2
BITMAP
1100
1100
7FC0
1100
1F00
1100
1F00
1100
FFE0
1100
20C0
C020
ENDCHAR
STARTCHAR 5177
ENCODING 20855
SWIDTH 720 0
DWIDTH 12 0
BBX 12 12 0 -2
BITMAP
3F00
2100
3F00
2100
3F00
2100
3F00
0000
FFE0
1200
2180
C040
ENDCHAR
STARTCHAR 5178
ENCODING 20856
SWIDTH 720 0
DWIDTH 12 0
BBX 12 12 0 -2
BITMAP
0A00
0A00
7FC0
4A40
4A40
7FC0
4A40
4A40
FFE0
1100
20C0
C020
ENDCHAR
STARTCHAR 517C
ENCODING 20860
SWIDTH 720 0
DWIDTH 12 0
BBX 12 12 0 -2
BITMAP
1100
FFE0
0A00
7FC0
0A40
FFE0
0A40
7FC0
1B00
2A80
CA60
0A00
ENDCHAR
STARTCHAR 5180
ENCODING 20864
SWIDTH 720 0
DWIDTH 12 0
BBX 12 12 0 -2
BITMAP
1240
F380
1220
3FE0
E480
3F80
2480
7FC0
1100
FFF0
3080
C040
ENDCHAR
STARTCHAR 5182
ENCODING 20866
SWIDTH 720 0
DWIDTH 12 0
BBX 12 12 0 -2
BITMAP
0000
7FE0
4020
4020
4020
4020
4020
4020
4020
4020
4020
4060
ENDCHAR
STARTCHAR 5185
ENCODING 20869
SWIDTH 720 0
DWIDTH 12 0
BBX 12 12 0 -2
BITMAP
0400
0400
7FE0
4420
4420
4A20
5120
60A0
4020
4020
4020
4060
ENDCHAR
STARTCHAR 5186
ENCODING 20870
SWIDTH 720 0
DWIDTH 12 0
BBX 12 12 0 -2
BITMAP
0000
7FC0
4440
4440
4440
7FC0
4040
4040
4040
4040
4040
40C0
ENDCHAR
STARTCHAR 5189
ENCODING 20873
SWIDTH 720 0
DWIDTH 12 0
BBX 12 12 0 -2
BITMAP
0400
0400
3F80
2480
2480
3F80
2480
2480
FFE0
2080
2080
2180
ENDCHAR
STARTCHAR 518A
ENCODING 20874
SWIDTH 720 0
DWIDTH 12 0
BBX 12 12 0 -2
BITMAP
0000
3FC0
2940
2940
2940
2940
FFE0
2940
2940
2940
2940
20C0
ENDCHAR
STARTCHAR 518C
ENCODING 20876
SWIDTH 720 0
DWIDTH 12 0
BBX 12 12 0 -2
BITMAP
7BC0
4A40
4A40
4A40
4A40
FFE0
4A40
4A40
4A40
4A40
4A40
9CC0
ENDCHAR
STARTCHAR 518D
ENCODING 20877
SWIDTH 720 0
DWIDTH 12 0
BBX 12 12 0 -2
BITMAP
0000
7FC0
0400
3F80
2480
3F80
2480
2480
FFE0
2080
2080
2180
ENDCHAR
STARTCHAR 518F
ENCODING 20879
SWIDTH 720 0
DWIDTH 12 0
BBX 12 12 0 -2
BITMAP
0000
7FE0
4920
4920
50E0
6020
4F20
4920
4920
4F20
4020
4060
ENDCHAR
STARTCHAR 5190
ENCODING 20880
SWIDTH 720 0
DWIDTH 12 0
BBX 12 12 0 -2
BITMAP
7FE0
4020
5FA0
4020
5FA0
0000
3FC0
2040
3F40
2FC0
2040
20C0
ENDCHAR
STARTCHAR 5191
ENCODING 20881
SWIDTH 720 0
DWIDTH 12 0
BBX 12 12 0 -2
BITMAP
0400
7FC0
4440
7FC0
4440
7FC0
2080
2E80
2080
2E80
2080
2180
ENDCHAR
STARTCHAR 5192
ENCODING 20882
SWIDTH 720 0
DWIDTH 12 0
BBX 12 12 0 -2
BITMAP
0000
7FC0
4040
7FC0
4040
7FC0
2080
3F80
2080
3F80
2080
3F80
ENDCHAR
STARTCHAR 5193
ENCODING 20883
SWIDTH 720 0
DWIDTH 12 0
BBX 12 12 0 -2
BITMAP
1100
7FC0
1100
7FC0
1100
FFE0
2480
3F80
2480
FFE0
2080
2180
ENDCHAR
STARTCHAR 5195
ENCODING 20885
SWIDTH 720 0
DWIDTH 12 0
BBX 12 12 0 -2
BITMAP
7FC0
4040
5F40
4040
5F40
3200
FFC0
4440
7FC0
0A00
3220
C1E0
ENDCHAR
STARTCHAR 5196
ENCODING 20886
SWIDTH 720 0
DWIDTH 12 0
BBX 12 12 0 -2
BITMAP
0000
0000
0000
0000
FFE0
8020
8020
0000
0000
0000
0000
0000
ENDCHAR
STARTCHAR 5197
ENCODING 20887
SWIDTH 720 0
DWIDTH 12 0
BBX 12 12 0 -2
BITMAP
0000
FFE0
8020
8020
1E00
1200
1200
1200
1200
1220
2220
C1E0
ENDCHAR
STARTCHAR 5199
ENCODING 20889
SWIDTH 720 0
DWIDTH 12 0
BBX 12 12 0 -2
BITMAP
0000
FFE0
9020
9020
1F80
1000
1F00
0100
FFE0
0100
0100
0600
ENDCHAR
STARTCHAR 51A0
ENCODING 20896
SWIDTH 720 0
DWIDTH 12 0
BBX 12 12 0 -2
BITMAP
0000
FFE0
80A0
FCA0
03E0
FC80
2A80
2A80
2880
49A0
4820
87E0
ENDCHAR
STARTCHAR 51A2
ENCODING 20898
SWIDTH 720 0
DWIDTH 12 0
BBX 12 12 0 -2
BITMAP
0000
FFE0
8020
BFA0
0C40
5240
E780
1B00
7680
1A40
6200
0C00
ENDCHAR
STARTCHAR 51A4
ENCODING 20900
SWIDTH 720 0
DWIDTH 12 0
BBX 12 12 0 -2
BITMAP
0000
FFF0
8410
1F00
E200
7FC0
4440
4440
7FC0
0B00
32A0
C1E0
ENDCHAR
STARTCHAR 51A5
ENCODING 20901
SWIDTH 720 0
DWIDTH 12 0
BBX 12 12 0 -2
BITMAP
0000
FFE0
8020
BFA0
2080
3F80
2080
3F80
0400
FFE0
1180
6040
ENDCHAR
STARTCHAR 51A6
ENCODING 20902
SWIDTH 720 0
DWIDTH 12 0
BBX 12 12 0 -2
BITMAP
0000
FFE0
8120
79C0
0100
FFC0
5440
5280
5180
5240
9420
8FE0
ENDCHAR
STARTCHAR 51A8
ENCODING 20904
SWIDTH 720 0
DWIDTH 12 0
BBX 12 12 0 -2
BITMAP
0000
FFE0
8020
BFA0
0000
3F80
2080
7FC0
4440
7FC0
4440
7FC0
ENDCHAR
STARTCHAR 51A9
ENCODING 20905
SWIDTH 720 0
DWIDTH 12 0
BBX 12 12 0 -2
BITMAP
0000
FFE0
8820
B9A0
2080
3B80
2080
3F80
0800
3FE0
D520
20C0
ENDCHAR
STARTCHAR 51AA
ENCODING 20906
SWIDTH 720 0
DWIDTH 12 0
BBX 12 12 0 -2
BITMAP
0000
FFE0
9220
FFE0
2100
3F00
2100
FFE0
2900
7F80
A960
2B00
ENDCHAR
STARTCHAR 51AB
ENCODING 20907
SWIDTH 720 0
DWIDTH 12 0
BBX 12 12 0 -2
BITMAP
0800
0400
0400
0000
0100
0200
0400
0400
0800
0800
0800
0000
ENDCHAR
STARTCHAR 51AC
ENCODING 20908
SWIDTH 720 0
DWIDTH 12 0
BBX 12 12 0 -2
BITMAP
0400
0F80
1080
2900
C600
0A00
3180
CC60
0200
1800
0600
0100
ENDCHAR
STARTCHAR 51B0
ENCODING 20912
SWIDTH 720 0
DWIDTH 12 0
BBX 12 12 0 -2
BITMAP
0100
8100
4100
4110
1D20
05C0
0580
2940
4920
5110
8100
8300
ENDCHAR
STARTCHAR 51B1
ENCODING 20913
SWIDTH 720 0
DWIDTH 12 0
BBX 12 12 0 -2
BITMAP
0000
9FE0
4400
4400
07C0
0440
0840
2880
4F80
4880
8080
9FF0
ENDCHAR
STARTCHAR 51B2
ENCODING 20914
SWIDTH 720 0
DWIDTH 12 0
BBX 12 12 0 -2
BITMAP
0100
8100
4100
4FF0
0910
0910
0910
2FF0
4900
4100
8100
8100
ENDCHAR
STARTCHAR 51B3
ENCODING 20915
SWIDTH 720 0
DWIDTH 12 0
BBX 12 12 0 -2
BITMAP
0100
8100
4FE0
4120
0120
0120
3FF0
4100
4100
8280
8440
1830
ENDCHAR
STARTCHAR 51B4
ENCODING 20916
SWIDTH 720 0
DWIDTH 12 0
BBX 12 12 0 -2
BITMAP
0000
8FE0
4480
4480
0480
1FE0
0180
2180
4280
4C80
B080
8180
ENDCHAR
STARTCHAR 51B5
ENCODING 20917
SWIDTH 720 0
DWIDTH 12 0
BBX 12 12 0 -2
BITMAP
0000
8FC0
4840
4840
0840
0FC0
2500
4500
4500
8920
9120
20E0
ENDCHAR
STARTCHAR 51B6
ENCODING 20918
SWIDTH 720 0
DWIDTH 12 0
BBX 12 12 0 -2
BITMAP
0200
8200
4280
4440
09E0
1E20
0000
2FC0
4840
4840
8840
8FC0
ENDCHAR
STARTCHAR 51B7
ENCODING 20919
SWIDTH 720 0
DWIDTH 12 0
BBX 12 12 0 -2
BITMAP
0200
8200
4500
4980
1FC0
2020
0FC0
2240
4240
4380
8200
8200
ENDCHAR
STARTCHAR 51BD
ENCODING 20925
SWIDTH 720 0
DWIDTH 12 0
BBX 12 12 0 -2
BITMAP
0020
9EA0
48A0
48A0
1EA0
12A0
1AA0
66A0
44A0
8420
8820
1060
ENDCHAR
STARTCHAR 51C4
ENCODING 20932
SWIDTH 720 0
DWIDTH 12 0
BBX 12 12 0 -2
BITMAP
0200
9FE0
4200
4FC0
0240
1FE0
2240
5FE0
4480
8E80
8380
1C40
ENDCHAR
STARTCHAR 51C5
ENCODING 20933
SWIDTH 720 0
DWIDTH 12 0
BBX 12 12 0 -2
BITMAP
0000
9FE0
5220
5FE0
1220
1220
3FA0
58A0
58A0
9FA0
9020
1FE0
ENDCHAR
STARTCHAR 51C6
ENCODING 20934
SWIDTH 720 0
DWIDTH 12 0
BBX 12 12 0 -2
BITMAP
0440
8480
4FE0
4900
1900
2FC0
2900
4900
4FC0
8900
8900
0FE0
ENDCHAR
STARTCHAR 51C9
ENCODING 20937
SWIDTH 720 0
DWIDTH 12 0
BBX 12 12 0 -2
BITMAP
0200
9FE0
4000
4FC0
0840
0840
2FC0
4200
4A80
8A40
9240
0600
ENDCHAR
STARTCHAR 51CB
ENCODING 20939
SWIDTH 720 0
DWIDTH 12 0
BBX 12 12 0 -2
BITMAP
0000
8FE0
4920
4BA0
0920
0FE0
2820
4BA0
4AA0
8BA0
9020
2060
ENDCHAR
STARTCHAR 51CC
ENCODING 20940
SWIDTH 720 0
DWIDTH 12 0
BBX 12 12 0 -2
BITMAP
0200
9FC0
4200
5FE0
0500
39E0
0400
4780
5880
8700
8D80
B060
ENDCHAR
STARTCHAR 51CD
ENCODING 20941
SWIDTH 720 0
DWIDTH 12 0
BBX 12 12 0 -2
BITMAP
0200
9FE0
4200
4FC0
0A40
0FC0
2A40
4FC0
4700
8AC0
B220
0200
ENDCHAR
STARTCHAR 51D6
ENCODING 20950
SWIDTH 720 0
DWIDTH 12 0
BBX 12 12 0 -2
BITMAP
0480
8500
4FE0
1900
0FC0
4900
8FE0
8400
0400
FFE0
0400
0400
ENDCHAR
STARTCHAR 51DB
ENCODING 20955
SWIDTH 720 0
DWIDTH 12 0
BBX 12 12 0 -2
BITMAP
0100
9FF0
4AA0
4BA0
0820
0FE0
27C0
4000
5FF0
8920
9110
0300
ENDCHAR
STARTCHAR 51DC
ENCODING 20956
SWIDTH 720 0
DWIDTH 12 0
BBX 12 12 0 -2
BITMAP
0200
BFE0
5040
1740
1540
1FC0
0180
2E00
5FE0
4A80
9240
8200
ENDCHAR
STARTCHAR 51DD
ENCODING 20957
SWIDTH 720 0
DWIDTH 12 0
BBX 12 12 0 -2
BITMAP
23E0
2420
B940
6480
1FE0
10A0
1E80
6AE0
5E80
8A80
9580
2460
ENDCHAR
STARTCHAR 51E0
ENCODING 20960
SWIDTH 720 0
DWIDTH 12 0
BBX 12 12 0 -2
BITMAP
1F00
1100
1100
1100
1100
1100
1100
1100
2100
2120
4120
80E0
ENDCHAR
STARTCHAR 51E1
ENCODING 20961
SWIDTH 720 0
DWIDTH 12 0
BBX 12 12 0 -2
BITMAP
0000
1F00
1100
1100
1100
1900
1500
1500
1100
2120
2120
40E0
ENDCHAR
STARTCHAR 51E6
ENCODING 20966
SWIDTH 720 0
DWIDTH 12 0
BBX 12 12 0 -2
BITMAP
2000
2380
3A80
2A80
4A80
4A80
AAA0
12A0
1460
2800
4600
81F0
ENDCHAR
STARTCHAR 51E7
ENCODING 20967
SWIDTH 720 0
DWIDTH 12 0
BBX 12 12 0 -2
BITMAP
0000
7FC0
4440
4440
5F40
5540
5540
5540
5540
5750
8430
8410
ENDCHAR
STARTCHAR 51E9
ENCODING 20969
SWIDTH 720 0
DWIDTH 12 0
BBX 12 12 0 -2
BITMAP
0000
7FC0
4440
4440
7FC0
4440
4E40
4D40
54C0
6450
8430
8410
ENDCHAR
STARTCHAR 51EA
ENCODING 20970
SWIDTH 720 0
DWIDTH 12 0
BBX 12 12 0 -2
BITMAP
0000
7FC0
4440
4440
5440
5740
5440
5440
5450
7FB0
4030
8010
ENDCHAR
STARTCHAR 51ED
ENCODING 20973
SWIDTH 720 0
DWIDTH 12 0
BBX 12 12 0 -2
BITMAP
20C0
2F00
4100
DFE0
4100
4FC0
4000
1F00
1100
1120
2120
40E0
ENDCHAR
STARTCHAR 51F0
ENCODING 20976
SWIDTH 720 0
DWIDTH 12 0
BBX 12 12 0 -2
BITMAP
0000
7FC0
4440
5F40
5140
5F40
5140
5F40
4440
5F50
8430
BF90
ENDCHAR
STARTCHAR 51F1
ENCODING 20977
SWIDTH 720 0
DWIDTH 12 0
BBX 12 12 0 -2
BITMAP
2000
ABC0
FA40
0240
FA40
0240
FA40
8A40
FA40
5240
7C40
C870
ENDCHAR
STARTCHAR 51F5
ENCODING 20981
SWIDTH 720 0
DWIDTH 12 0
BBX 12 12 0 -2
BITMAP
4020
4020
4020
4020
4020
4020
4020
4020
4020
4020
7FE0
4020
ENDCHAR
STARTCHAR 51F6
ENCODING 20982
SWIDTH 720 0
DWIDTH 12 0
BBX 12 12 0 -2
BITMAP
0080
40A0
50A0
4920
4520
4220
4520
48A0
70A0
4020
7FE0
4000
ENDCHAR
STARTCHAR 51F8
ENCODING 20984
SWIDTH 720 0
DWIDTH 12 0
BBX 12 12 0 -2
BITMAP
0000
1F00
1100
1100
1100
F1E0
8020
8020
8020
8020
FFE0
0000
ENDCHAR
STARTCHAR 51F9
ENCODING 20985
SWIDTH 720 0
DWIDTH 12 0
BBX 12 12 0 -2
BITMAP
0000
F1E0
9120
9120
9120
9120
9F20
8020
8020
8020
FFE0
0000
ENDCHAR
STARTCHAR 51FA
ENCODING 20986
SWIDTH 720 0
DWIDTH 12 0
BBX 12 12 0 -2
BITMAP
0400
0400
2480
2480
2480
3F80
0400
4440
4440
4440
4440
7FC0
ENDCHAR
STARTCHAR 51FD
ENCODING 20989
SWIDTH 720 0
DWIDTH 12 0
BBX 12 12 0 -2
BITMAP
0000
7FC0
0400
8420
8EA0
A2A0
9720
8AA0
B260
8620
8020
FFE0
ENDCHAR
STARTCHAR 51FE
ENCODING 20990
SWIDTH 720 0
DWIDTH 12 0
BBX 12 12 0 -2
BITMAP
0000
1F80
0100
8620
8420
BFE0
AD60
ACA0
BD60
8620
8C20
FFE0
ENDCHAR
STARTCHAR 5200
ENCODING 20992
SWIDTH 720 0
DWIDTH 12 0
BBX 12 12 0 -2
BITMAP
0000
7FE0
0220
0220
0220
0220
0420
0420
0820
0820
1020
20C0
ENDCHAR
STARTCHAR 5203
ENCODING 20995
SWIDTH 720 0
DWIDTH 12 0
BBX 12 12 0 -2
BITMAP
0000
7FE0
0420
0420
0420
1C20
0620
0520
0820
0820
1020
20C0
ENDCHAR
STARTCHAR 5204
ENCODING 20996
SWIDTH 720 0
DWIDTH 12 0
BBX 12 12 0 -2
BITMAP
0000
7FC0
0440
0440
4440
2440
1440
0840
0E40
11E0
2040
4180
ENDCHAR
STARTCHAR 5206
ENCODING 20998
SWIDTH 720 0
DWIDTH 12 0
BBX 12 12 0 -2
BITMAP
0900
0900
0880
1080
2040
5FA0
8490
0480
0480
0880
1080
2300
ENDCHAR
STARTCHAR 5207
ENCODING 20999
SWIDTH 720 0
DWIDTH 12 0
BBX 12 12 0 -2
BITMAP
0000
4FE0
4120
4D20
F120
4120
4120
4920
3A20
0220
0420
18C0
ENDCHAR
STARTCHAR 5208
ENCODING 21000
SWIDTH 720 0
DWIDTH 12 0
BBX 12 12 0 -2
BITMAP
0020
0520
0520
0520
C920
2920
1120
1920
2520
2420
4020
8060
ENDCHAR
STARTCHAR 520A
ENCODING 21002
SWIDTH 720 0
DWIDTH 12 0
BBX 12 12 0 -2
BITMAP
0020
7D20
1120
1120
1120
FD20
1120
1120
1120
1020
1020
1060
ENDCHAR
STARTCHAR 520B
ENCODING 21003
SWIDTH 720 0
DWIDTH 12 0
BBX 12 12 0 -2
BITMAP
1C20
F120
1120
1120
1120
FF20
1120
1120
1120
1020
2020
4060
ENDCHAR
STARTCHAR 520E
ENCODING 21006
SWIDTH 720 0
DWIDTH 12 0
BBX 12 12 0 -2
BITMAP
2020
20A0
7EA0
56A0
96A0
26A0
2AA0
4AA0
92A0
2220
4220
0C60
ENDCHAR
STARTCHAR 5211
ENCODING 21009
SWIDTH 720 0
DWIDTH 12 0
BBX 12 12 0 -2
BITMAP
0020
FD20
4920
4920
4920
FF20
4920
4920
4920
4820
4820
8860
ENDCHAR
STARTCHAR 5214
ENCODING 21012
SWIDTH 720 0
DWIDTH 12 0
BBX 12 12 0 -2
BITMAP
2020
2120
7D20
2520
2520
2520
FF20
2120
3120
2820
4820
8060
ENDCHAR
STARTCHAR 5217
ENCODING 21015
SWIDTH 720 0
DWIDTH 12 0
BBX 12 12 0 -2
BITMAP
0020
FD20
2120
2120
3D20
4520
6520
9920
0920
1020
2020
4060
ENDCHAR
STARTCHAR 521D
ENCODING 21021
SWIDTH 720 0
DWIDTH 12 0
BBX 12 12 0 -2
BITMAP
2000
27E0
F920
0920
1120
2520
3920
6920
A620
2220
2420
28C0
ENDCHAR
STARTCHAR 5224
ENCODING 21028
SWIDTH 720 0
DWIDTH 12 0
BBX 12 12 0 -2
BITMAP
1020
9520
5520
5920
7D20
1120
1120
FF20
1120
1020
1020
1060
ENDCHAR
STARTCHAR 5225
ENCODING 21029
SWIDTH 720 0
DWIDTH 12 0
BBX 12 12 0 -2
BITMAP
0020
7D20
4520
4520
7D20
2120
3D20
2520
2520
2420
4420
9860
ENDCHAR
STARTCHAR 5227
ENCODING 21031
SWIDTH 720 0
DWIDTH 12 0
BBX 12 12 0 -2
BITMAP
2000
27E0
F920
2120
2120
FD20
2120
2120
5120
4A20
FA20
04C0
ENDCHAR
STARTCHAR 5229
ENCODING 21033
SWIDTH 720 0
DWIDTH 12 0
BBX 12 12 0 -2
BITMAP
0C20
7120
1120
1120
FD20
3120
3920
5520
5020
9020
1020
1060
ENDCHAR
STARTCHAR 522A
ENCODING 21034
SWIDTH 720 0
DWIDTH 12 0
BBX 12 12 0 -2
BITMAP
0020
FEA0
AAA0
AAA0
AAA0
FFA0
AAA0
AAA0
AAA0
AA20
AA20
8660
ENDCHAR
STARTCHAR 522E
ENCODING 21038
SWIDTH 720 0
DWIDTH 12 0
BBX 12 12 0 -2
BITMAP
0620
7920
1120
1120
FF20
1120
1120
7D20
4520
4420
4420
7C60
ENDCHAR
STARTCHAR 5230
ENCODING 21040
SWIDTH 720 0
DWIDTH 12 0
BBX 12 12 0 -2
BITMAP
0020
FF20
1120
2920
FD20
1320
1120
FD20
1120
1020
1E20
E060
ENDCHAR
STARTCHAR 5233
ENCODING 21043
SWIDTH 720 0
DWIDTH 12 0
BBX 12 12 0 -2
BITMAP
1020
FEA0
28A0
44A0
BAA0
00A0
FEA0
20A0
3CA0
4420
0420
1860
ENDCHAR
STARTCHAR 5236
ENCODING 21046
SWIDTH 720 0
DWIDTH 12 0
BBX 12 12 0 -2
BITMAP
5020
5120
7D20
9120
FF20
1120
7D20
5520
5520
5520
5820
1060
ENDCHAR
STARTCHAR 5237
ENCODING 21047
SWIDTH 720 0
DWIDTH 12 0
BBX 12 12 0 -2
BITMAP
7C20
4520
4520
7D20
5120
7D20
5520
5520
D520
D420
5C20
1060
ENDCHAR
STARTCHAR 5238
ENCODING 21048
SWIDTH 720 0
DWIDTH 12 0
BBX 12 12 0 -2
BITMAP
2480
1480
1500
7FC0
0A00
FFE0
1100
3F80
C960
0900
1100
2600
ENDCHAR
STARTCHAR 5239
ENCODING 21049
SWIDTH 720 0
DWIDTH 12 0
BBX 12 12 0 -2
BITMAP
0420
6920
1120
2920
C520
1120
FF20
1920
3520
5020
9020
1060
ENDCHAR
STARTCHAR 523A
ENCODING 21050
SWIDTH 720 0
DWIDTH 12 0
BBX 12 12 0 -2
BITMAP
1020
FF20
1120
7D20
5520
5520
5520
3920
5520
9020
1020
1060
ENDCHAR
STARTCHAR 523B
ENCODING 21051
SWIDTH 720 0
DWIDTH 12 0
BBX 12 12 0 -2
BITMAP
1020
1120
FF20
1120
2920
6920
1520
2520
4820
1820
2420
C060
ENDCHAR
STARTCHAR 5243
ENCODING 21059
SWIDTH 720 0
DWIDTH 12 0
BBX 12 12 0 -2
BITMAP
4420
2920
FD20
1520
7D20
9120
FD20
1520
3520
5C20
9020
1060
ENDCHAR
STARTCHAR 5244
ENCODING 21060
SWIDTH 720 0
DWIDTH 12 0
BBX 12 12 0 -2
BITMAP
0020
FF20
5520
5520
A920
5520
5520
0120
FD20
1020
1E20
F060
ENDCHAR
STARTCHAR 5247
ENCODING 21063
SWIDTH 720 0
DWIDTH 12 0
BBX 12 12 0 -2
BITMAP
0020
7920
4920
7920
4920
7920
4920
4920
7920
2820
4420
8060
ENDCHAR
STARTCHAR 524A
ENCODING 21066
SWIDTH 720 0
DWIDTH 12 0
BBX 12 12 0 -2
BITMAP
1020
9520
5920
7D20
4520
7D20
4520
7D20
4520
4420
4420
4C60
ENDCHAR
STARTCHAR 524B
ENCODING 21067
SWIDTH 720 0
DWIDTH 12 0
BBX 12 12 0 -2
BITMAP
1020
FD20
1120
7D20
4520
4520
7D20
2920
2820
4860
4810
87F0
ENDCHAR
STARTCHAR 524C
ENCODING 21068
SWIDTH 720 0
DWIDTH 12 0
BBX 12 12 0 -2
BITMAP
1020
1120
FF20
1120
FD20
9520
9520
FD20
3920
5420
9020
1060
ENDCHAR
STARTCHAR 524D
ENCODING 21069
SWIDTH 720 0
DWIDTH 12 0
BBX 12 12 0 -2
BITMAP
2100
1200
FFE0
0000
7A40
4A40
7A40
4A40
7A40
4A40
4840
58C0
ENDCHAR
STARTCHAR 524F
ENCODING 21071
SWIDTH 720 0
DWIDTH 12 0
BBX 12 12 0 -2
BITMAP
8800
4BE0
50A0
F8A0
52A0
51A0
FCE0
50B0
5120
5120
9220
94C0
ENDCHAR
STARTCHAR 5254
ENCODING 21076
SWIDTH 720 0
DWIDTH 12 0
BBX 12 12 0 -2
BITMAP
0020
7CA0
44A0
7CA0
44A0
7CA0
20A0
7EA0
AAA0
4A20
9220
2C60
ENDCHAR
STARTCHAR 5256
ENCODING 21078
SWIDTH 720 0
DWIDTH 12 0
BBX 12 12 0 -2
BITMAP
1020
1120
FF20
4520
2920
FF20
0120
7D20
4520
4420
7C20
4060
ENDCHAR
STARTCHAR 525B
ENCODING 21083
SWIDTH 720 0
DWIDTH 12 0
BBX 12 12 0 -2
BITMAP
0020
FEA0
82A0
C6A0
AAA0
FEA0
92A0
D6A0
D6A0
FE20
8220
8660
ENDCHAR
STARTCHAR 525E
ENCODING 21086
SWIDTH 720 0
DWIDTH 12 0
BBX 12 12 0 -2
BITMAP
1020
FF20
1120
2920
4520
FF20
0520
7520
5520
7420
0420
0C60
ENDCHAR
STARTCHAR 5263
ENCODING 21091
SWIDTH 720 0
DWIDTH 12 0
BBX 12 12 0 -2
BITMAP
1020
2920
4520
BB20
1120
7D20
5520
7D20
1920
1420
2220
C060
ENDCHAR
STARTCHAR 5264
ENCODING 21092
SWIDTH 720 0
DWIDTH 12 0
BBX 12 12 0 -2
BITMAP
1020
FF20
4520
3920
2920
C720
7D20
4520
7D20
4420
4420
8C60
ENDCHAR
STARTCHAR 5265
ENCODING 21093
SWIDTH 720 0
DWIDTH 12 0
BBX 12 12 0 -2
BITMAP
7820
0920
3920
0920
FF20
1320
5520
3920
5820
9620
1020
3060
ENDCHAR
STARTCHAR 5269
ENCODING 21097
SWIDTH 720 0
DWIDTH 12 0
BBX 12 12 0 -2
BITMAP
0C20
70A0
10A0
FFA0
54A0
D6A0
54A0
D6A0
38A0
5420
9020
1060
ENDCHAR
STARTCHAR 526A
ENCODING 21098
SWIDTH 720 0
DWIDTH 12 0
BBX 12 12 0 -2
BITMAP
2080
1100
FFE0
6A40
5A40
6A40
5A40
48C0
FFC0
0440
1840
E180
ENDCHAR
STARTCHAR 526F
ENCODING 21103
SWIDTH 720 0
DWIDTH 12 0
BBX 12 12 0 -2
BITMAP
0020
FD20
0120
7D20
4520
7D20
0120
FD20
9520
FC20
9420
FC60
ENDCHAR
STARTCHAR 5270
ENCODING 21104
SWIDTH 720 0
DWIDTH 12 0
BBX 12 12 0 -2
BITMAP
0C20
7120
1120
FF20
5520
FF20
5520
FF20
3920
5420
9220
1060
ENDCHAR
STARTCHAR 5271
ENCODING 21105
SWIDTH 720 0
DWIDTH 12 0
BBX 12 12 0 -2
BITMAP
2000
37E0
4920
F520
2120
FB20
A9A0
F970
3220
2A20
4420
88C0
ENDCHAR
STARTCHAR 5272
ENCODING 21106
SWIDTH 720 0
DWIDTH 12 0
BBX 12 12 0 -2
BITMAP
1020
FF20
9320
7D20
1120
7D20
1120
FF20
0120
7C20
4420
7C60
ENDCHAR
STARTCHAR 5273
ENCODING 21107
SWIDTH 720 0
DWIDTH 12 0
BBX 12 12 0 -2
BITMAP
4420
FEA0
44A0
10A0
28A0
44A0
BEA0
00A0
7CA0
4420
4420
7C60
ENDCHAR
STARTCHAR 5274
ENCODING 21108
SWIDTH 720 0
DWIDTH 12 0
BBX 12 12 0 -2
BITMAP
1020
5520
7D20
0120
FF20
0120
7D20
4520
7D20
4820
3C20
E060
ENDCHAR
STARTCHAR 5275
ENCODING 21109
SWIDTH 720 0
DWIDTH 12 0
BBX 12 12 0 -2
BITMAP
1020
2820
4520
FD20
4520
7D20
4520
7D20
4120
BC20
A420
3C60
ENDCHAR
STARTCHAR 527D
ENCODING 21117
SWIDTH 720 0
DWIDTH 12 0
BBX 12 12 0 -2
BITMAP
FF20
28A0
FEA0
AAA0
FEA0
00A0
7CA0
00A0
FEA0
5420
9220
3060
ENDCHAR
STARTCHAR 527F
ENCODING 21119
SWIDTH 720 0
DWIDTH 12 0
BBX 12 12 0 -2
BITMAP
5420
A920
5520
7D20
5520
7D20
5520
FF20
3920
5420
9220
1060
ENDCHAR
STARTCHAR 5283
ENCODING 21123
SWIDTH 720 0
DWIDTH 12 0
BBX 12 12 0 -2
BITMAP
1020
7D20
1520
FF20
1520
FF20
5520
7D20
5520
7C20
1E20
E060
ENDCHAR
STARTCHAR 5287
ENCODING 21127
SWIDTH 720 0
DWIDTH 12 0
BBX 12 12 0 -2
BITMAP
1C20
1120
7D20
6520
7920
4120
7D20
5320
6D20
5C20
AA20
1060
ENDCHAR
STARTCHAR 5288
ENCODING 21128
SWIDTH 720 0
DWIDTH 12 0
BBX 12 12 0 -2
BITMAP
7880
4FE0
7940
4140
7FE0
C880
7BE0
0080
7FE0
0820
1020
61C0
ENDCHAR
STARTCHAR 5289
ENCODING 21129
SWIDTH 720 0
DWIDTH 12 0
BBX 12 12 0 -2
BITMAP
2020
DE20
AB20
AB20
F520
2920
FD20
1120
FD20
9020
5C20
F060
ENDCHAR
STARTCHAR 528D
ENCODING 21133
SWIDTH 720 0
DWIDTH 12 0
BBX 12 12 0 -2
BITMAP
2020
3120
4920
B520
0120
FD20
B520
FD20
4920
6D20
B220
9060
ENDCHAR
STARTCHAR 5291
ENCODING 21137
SWIDTH 720 0
DWIDTH 12 0
BBX 12 12 0 -2
BITMAP
1020
FEA0
28A0
F7A0
56A0
B5A0
44A0
7CA0
44A0
7C20
4420
8460
ENDCHAR
STARTCHAR 5292
ENCODING 21138
SWIDTH 720 0
DWIDTH 12 0
BBX 12 12 0 -2
BITMAP
2000
37E0
48A0
F4A0
01A0
FDA0
B6A0
FD20
5120
5A20
A420
88C0
ENDCHAR
STARTCHAR 5294
ENCODING 21140
SWIDTH 720 0
DWIDTH 12 0
BBX 12 12 0 -2
BITMAP
2000
37E0
48A0
F6A0
02A0
FDA0
B4A0
FD60
5130
5A20
A420
88C0
ENDCHAR
STARTCHAR 529B
ENCODING 21147
SWIDTH 720 0
DWIDTH 12 0
BBX 12 12 0 -2
BITMAP
0400
0400
0400
7FC0
0440
0440
0440
0840
0840
1040
2040
4180
ENDCHAR
STARTCHAR 529F
ENCODING 21151
SWIDTH 720 0
DWIDTH 12 0
BBX 12 12 0 -2
BITMAP
0100
0100
F100
2FE0
2120
2120
2120
2920
3220
C220
0420
08C0
ENDCHAR
STARTCHAR 52A0
ENCODING 21152
SWIDTH 720 0
DWIDTH 12 0
BBX 12 12 0 -2
BITMAP
2000
2000
21E0
FD20
2520
2520
2520
2520
2520
4520
45E0
9800
ENDCHAR
STARTCHAR 52A3
ENCODING 21155
SWIDTH 720 0
DWIDTH 12 0
BBX 12 12 0 -2
BITMAP
0400
2480
2440
4D20
8620
1800
E400
7FC0
0440
0840
1040
6180
ENDCHAR
STARTCHAR 52A9
ENCODING 21161
SWIDTH 720 0
DWIDTH 12 0
BBX 12 12 0 -2
BITMAP
0100
7900
4900
4FE0
7920
4920
4920
7920
4920
5E20
E220
04C0
ENDCHAR
STARTCHAR 52AA
ENCODING 21162
SWIDTH 720 0
DWIDTH 12 0
BBX 12 12 0 -2
BITMAP
1000
FBC0
2840
4A80
3100
2E80
C460
7FC0
0440
0440
1840
6180
ENDCHAR
STARTCHAR 52AB
ENCODING 21163
SWIDTH 720 0
DWIDTH 12 0
BBX 12 12 0 -2
BITMAP
1080
1080
7C80
13E0
10A0
FEA0
10A0
1120
2920
3D20
C220
04C0
ENDCHAR
STARTCHAR 52AC
ENCODING 21164
SWIDTH 720 0
DWIDTH 12 0
BBX 12 12 0 -2
BITMAP
2100
2100
3D00
47E0
4520
F520
5520
5520
7520
0620
0420
18C0
ENDCHAR
STARTCHAR 52AD
ENCODING 21165
SWIDTH 720 0
DWIDTH 12 0
BBX 12 12 0 -2
BITMAP
0100
F900
2900
2FE0
4920
5920
8120
7920
4A20
4A20
4C20
78C0
ENDCHAR
STARTCHAR 52B1
ENCODING 21169
SWIDTH 720 0
DWIDTH 12 0
BBX 12 12 0 -2
BITMAP
0C80
7080
4080
7FE0
50A0
5CA0
54A0
54A0
5520
5520
A620
CCC0
ENDCHAR
STARTCHAR 52B4
ENCODING 21172
SWIDTH 720 0
DWIDTH 12 0
BBX 12 12 0 -2
BITMAP
4840
2440
1480
FFE0
8820
8820
7F80
0880
0880
1080
2080
4300
ENDCHAR
STARTCHAR 52B5
ENCODING 21173
SWIDTH 720 0
DWIDTH 12 0
BBX 12 12 0 -2
BITMAP
0400
1500
1480
3FC0
0A00
FFE0
1100
2880
FF60
0900
1100
2600
ENDCHAR
STARTCHAR 52B9
ENCODING 21177
SWIDTH 720 0
DWIDTH 12 0
BBX 12 12 0 -2
BITMAP
1100
1100
FD00
2FE0
4920
8D20
2920
1120
1220
2A20
4420
88C0
ENDCHAR
STARTCHAR 52BC
ENCODING 21180
SWIDTH 720 0
DWIDTH 12 0
BBX 12 12 0 -2
BITMAP
2100
2100
FD00
27E0
2120
F920
0120
7920
4A20
4A20
4C20
78C0
ENDCHAR
STARTCHAR 52BE
ENCODING 21182
SWIDTH 720 0
DWIDTH 12 0
BBX 12 12 0 -2
BITMAP
1100
1100
FD00
27E0
5120
D120
2920
4920
9220
2A20
4420
88C0
ENDCHAR
STARTCHAR 52C1
ENCODING 21185
SWIDTH 720 0
DWIDTH 12 0
BBX 12 12 0 -2
BITMAP
0100
FD00
5500
57E0
A920
5520
0120
FD20
1120
1220
1A20
E4C0
ENDCHAR
STARTCHAR 52C3
ENCODING 21187
SWIDTH 720 0
DWIDTH 12 0
BBX 12 12 0 -2
BITMAP
2100
FD00
2100
FFE0
8520
7920
1120
1D20
F120
1220
1220
34C0
ENDCHAR
STARTCHAR 52C5
ENCODING 21189
SWIDTH 720 0
DWIDTH 12 0
BBX 12 12 0 -2
BITMAP
1100
7D00
1100
7FE0
5520
5520
7D20
3920
3520
5220
9220
14C0
ENDCHAR
STARTCHAR 52C7
ENCODING 21191
SWIDTH 720 0
DWIDTH 12 0
BBX 12 12 0 -2
BITMAP
3F80
0900
3FC0
2440
3FC0
2440
3FC0
0400
7FE0
0820
3020
C0C0
ENDCHAR
STARTCHAR 52C9
ENCODING 21193
SWIDTH 720 0
DWIDTH 12 0
BBX 12 12 0 -2
BITMAP
2080
3C80
4880
FFE0
54A0
54A0
7CA0
1920
2920
2AC0
4810
87F0
ENDCHAR
STARTCHAR 52CD
ENCODING 21197
SWIDTH 720 0
DWIDTH 12 0
BBX 12 12 0 -2
BITMAP
1100
FD00
0100
7FE0
4920
4920
7920
1120
5920
5620
9220
34C0
ENDCHAR
STARTCHAR 52D2
ENCODING 21202
SWIDTH 720 0
DWIDTH 12 0
BBX 12 12 0 -2
BITMAP
5100
F900
5100
77E0
2120
F920
A920
F920
2220
FA20
2420
28C0
ENDCHAR
STARTCHAR 52D5
ENCODING 21205
SWIDTH 720 0
DWIDTH 12 0
BBX 12 12 0 -2
BITMAP
1D00
F100
13E0
FD20
5520
7D20
5520
7D20
1120
7A20
1E20
E4C0
ENDCHAR
STARTCHAR 52D7
ENCODING 21207
SWIDTH 720 0
DWIDTH 12 0
BBX 12 12 0 -2
BITMAP
3F80
2080
3F80
2080
3F80
7900
4FE0
7920
4920
7920
5A20
E4C0
ENDCHAR
STARTCHAR 52D8
ENCODING 21208
SWIDTH 720 0
DWIDTH 12 0
BBX 12 12 0 -2
BITMAP
4900
FD00
4900
7FE0
4920
7920
4920
FD20
A920
CD20
8220
7CC0
ENDCHAR
STARTCHAR 52D9
ENCODING 21209
SWIDTH 720 0
DWIDTH 12 0
BBX 12 12 0 -2
BITMAP
0200
FBE0
0C80
5280
2180
FE60
2900
2FC0
6140
A240
2440
6980
ENDCHAR
STARTCHAR 52DD
ENCODING 21213
SWIDTH 720 0
DWIDTH 12 0
BBX 12 12 0 -2
BITMAP
0100
7540
5FE0
5100
7FE0
5280
5540
7FE0
5250
5240
5440
B980
ENDCHAR
STARTCHAR 52DE
ENCODING 21214
SWIDTH 720 0
DWIDTH 12 0
BBX 12 12 0 -2
BITMAP
1100
5540
2A80
4440
FFE0
8820
0800
7FC0
0840
0840
1040
6180
ENDCHAR
STARTCHAR 52DF
ENCODING 21215
SWIDTH 720 0
DWIDTH 12 0
BBX 12 12 0 -2
BITMAP
1100
FFE0
1100
3F80
2080
3F80
2080
FFE0
2480
7FC0
88A0
3300
ENDCHAR
STARTCHAR 52E0
ENCODING 21216
SWIDTH 720 0
DWIDTH 12 0
BBX 12 12 0 -2
BITMAP
EE80
6680
AA80
67E0
AAA0
10A0
28A0
C4A0
3120
C920
3220
C4C0
ENDCHAR
STARTCHAR 52E2
ENCODING 21218
SWIDTH 720 0
DWIDTH 12 0
BBX 12 12 0 -2
BITMAP
1100
7900
17C0
FD40
5BC0
9560
7E20
0400
7FC0
0440
0840
3180
ENDCHAR
STARTCHAR 52E3
ENCODING 21219
SWIDTH 720 0
DWIDTH 12 0
BBX 12 12 0 -2
BITMAP
2100
F900
2100
7FE0
2120
FD20
4920
7920
4920
7A20
2A20
C4C0
ENDCHAR
STARTCHAR 52E4
ENCODING 21220
SWIDTH 720 0
DWIDTH 12 0
BBX 12 12 0 -2
BITMAP
2900
FD00
2900
7FE0
5520
7D20
1120
7D20
1120
7920
1E20
F4C0
ENDCHAR
STARTCHAR 52E6
ENCODING 21222
SWIDTH 720 0
DWIDTH 12 0
BBX 12 12 0 -2
BITMAP
5500
A900
5500
7FE0
5520
7D20
5520
7D20
1920
3520
5220
94C0
ENDCHAR
STARTCHAR 52E7
ENCODING 21223
SWIDTH 720 0
DWIDTH 12 0
BBX 12 12 0 -2
BITMAP
4100
7D00
4900
7FE0
9120
7D20
D120
7D20
5120
7D20
5220
7CC0
ENDCHAR
STARTCHAR 52F2
ENCODING 21234
SWIDTH 720 0
DWIDTH 12 0
BBX 12 12 0 -2
BITMAP
7D00
1100
FFE0
5520
7D20
5520
7D20
1220
FCC0
4080
5240
8920
ENDCHAR
STARTCHAR 52F3
ENCODING 21235
SWIDTH 720 0
DWIDTH 12 0
BBX 12 12 0 -2
BITMAP
0D00
F100
1100
FFE0
D520
DD20
B520
FD20
1120
FE20
5A20
94C0
ENDCHAR
STARTCHAR 52F5
ENCODING 21237
SWIDTH 720 0
DWIDTH 12 0
BBX 12 12 0 -2
BITMAP
0080
7E80
5480
7FE0
7EA0
6AA0
7EA0
48A0
7EA0
AB20
BE20
26C0
ENDCHAR
STARTCHAR 52F8
ENCODING 21240
SWIDTH 720 0
DWIDTH 12 0
BBX 12 12 0 -2
BITMAP
4880
FE80
4880
EFE0
AAA0
EEA0
50A0
FCA0
5120
7D20
5220
7CC0
ENDCHAR
STARTCHAR 52F9
ENCODING 21241
SWIDTH 720 0
DWIDTH 12 0
BBX 12 12 0 -2
BITMAP
1000
1000
3FE0
2020
4020
8020
0020
0020
0020
0020
0040
0180
ENDCHAR
STARTCHAR 52FA
ENCODING 21242
SWIDTH 720 0
DWIDTH 12 0
BBX 12 12 0 -2
BITMAP
1000
1000
1FC0
2040
4040
9040
0840
0440
0440
0040
0040
0180
ENDCHAR
STARTCHAR 52FE
ENCODING 21246
SWIDTH 720 0
DWIDTH 12 0
BBX 12 12 0 -2
BITMAP
2000
2000
3FE0
2420
4420
4420
8A20
0920
17A0
78A0
0020
00C0
ENDCHAR
STARTCHAR 52FF
ENCODING 21247
SWIDTH 720 0
DWIDTH 12 0
BBX 12 12 0 -2
BITMAP
2000
2000
3FE0
2920
4920
8920
1120
1220
2220
4420
0820
10C0
ENDCHAR
STARTCHAR 5301
ENCODING 21249
SWIDTH 720 0
DWIDTH 12 0
BBX 12 12 0 -2
BITMAP
1000
1000
1FC0
1240
2240
5240
8C40
0640
09C0
1060
2040
0180
ENDCHAR
STARTCHAR 5302
ENCODING 21250
SWIDTH 720 0
DWIDTH 12 0
BBX 12 12 0 -2
BITMAP
1000
1000
1FE0
2020
3020
5320
9C20
1020
1120
0F20
0020
00C0
ENDCHAR
STARTCHAR 5305
ENCODING 21253
SWIDTH 720 0
DWIDTH 12 0
BBX 12 12 0 -2
BITMAP
1000
1000
1FC0
2040
DE40
0240
0240
3E40
2080
2020
2020
1FE0
ENDCHAR
STARTCHAR 5306
ENCODING 21254
SWIDTH 720 0
DWIDTH 12 0
BBX 12 12 0 -2
BITMAP
1000
1000
3FE0
2920
4920
B920
1720
12A0
2220
4420
0840
0180
ENDCHAR
STARTCHAR 5308
ENCODING 21256
SWIDTH 720 0
DWIDTH 12 0
BBX 12 12 0 -2
BITMAP
1000
1000
3FE0
2020
4220
BAA0
24A0
2AA0
30A0
3FA0
0040
0180
ENDCHAR
STARTCHAR 530D
ENCODING 21261
SWIDTH 720 0
DWIDTH 12 0
BBX 12 12 0 -2
BITMAP
1000
1FE0
2520
7FA0
8420
3FA0
24A0
3FA0
24A0
3FA0
24A0
01C0
ENDCHAR
STARTCHAR 530F
ENCODING 21263
SWIDTH 720 0
DWIDTH 12 0
BBX 12 12 0 -2
BITMAP
2100
2100
FBE0
2220
57A0
EAA0
FAA0
23C0
3A00
4A20
0A20
31E0
ENDCHAR
STARTCHAR 5310
ENCODING 21264
SWIDTH 720 0
DWIDTH 12 0
BBX 12 12 0 -2
BITMAP
1000
1FE0
2020
7FA0
9F20
1120
3FA0
24A0
3FA0
24A0
3FA0
01C0
ENDCHAR
STARTCHAR 5315
ENCODING 21269
SWIDTH 720 0
DWIDTH 12 0
BBX 12 12 0 -2
BITMAP
2000
2000
2000
2100
2200
2400
3800
E000
2000
2040
2040
1FC0
ENDCHAR
STARTCHAR 5316
ENCODING 21270
SWIDTH 720 0
DWIDTH 12 0
BBX 12 12 0 -2
BITMAP
1200
1200
1240
2240
2280
6300
A200
2200
2200
2220
2220
21E0
ENDCHAR
STARTCHAR 5317
ENCODING 21271
SWIDTH 720 0
DWIDTH 12 0
BBX 12 12 0 -2
BITMAP
1200
1200
1200
1260
F380
1200
1200
1200
3200
D220
1220
11E0
ENDCHAR
STARTCHAR 5319
ENCODING 21273
SWIDTH 720 0
DWIDTH 12 0
BBX 12 12 0 -2
BITMAP
7A00
4A00
7A00
4A60
7B80
0200
FA00
1220
5E20
71E0
5C00
83F0
ENDCHAR
STARTCHAR 531A
ENCODING 21274
SWIDTH 720 0
DWIDTH 12 0
BBX 12 12 0 -2
BITMAP
0000
7FF0
4000
4000
4000
4000
4000
4000
4000
4000
7FF0
4000
ENDCHAR
STARTCHAR 531D
ENCODING 21277
SWIDTH 720 0
DWIDTH 12 0
BBX 12 12 0 -2
BITMAP
0000
7FE0
4200
4200
5FC0
5240
5240
5240
5280
4200
4200
7FE0
ENDCHAR
STARTCHAR 5320
ENCODING 21280
SWIDTH 720 0
DWIDTH 12 0
BBX 12 12 0 -2
BITMAP
0000
7FE0
4180
4E00
4800
4FC0
4900
4900
5100
6100
4100
7FE0
ENDCHAR
STARTCHAR 5321
ENCODING 21281
SWIDTH 720 0
DWIDTH 12 0
BBX 12 12 0 -2
BITMAP
0000
FFE0
8000
BFC0
8400
8400
9F80
8400
8400
BFC0
8000
FFE0
ENDCHAR
STARTCHAR 5323
ENCODING 21283
SWIDTH 720 0
DWIDTH 12 0
BBX 12 12 0 -2
BITMAP
0000
7FE0
4000
5FC0
5240
5FC0
5240
5FC0
4200
4200
4200
7FE0
ENDCHAR
STARTCHAR 532A
ENCODING 21290
SWIDTH 720 0
DWIDTH 12 0
BBX 12 12 0 -2
BITMAP
0000
FFE0
8A00
8A00
BBC0
8A00
BBC0
8A00
FBE0
9200
A200
FFE0
ENDCHAR
STARTCHAR 532F
ENCODING 21295
SWIDTH 720 0
DWIDTH 12 0
BBX 12 12 0 -2
BITMAP
0000
FFE0
A280
97E0
CD00
A7C0
8500
97C0
9500
A7E0
A000
FFE0
ENDCHAR
STARTCHAR 5331
ENCODING 21297
SWIDTH 720 0
DWIDTH 12 0
BBX 12 12 0 -2
BITMAP
0000
FFE0
8400
9F80
9480
FFE0
9080
9F80
9080
9F80
B040
FFE0
ENDCHAR
STARTCHAR 5333
ENCODING 21299
SWIDTH 720 0
DWIDTH 12 0
BBX 12 12 0 -2
BITMAP
0000
FFE0
8600
8900
B0C0
FB80
AA80
BB80
9100
9A80
A440
FFE0
ENDCHAR
STARTCHAR 5338
ENCODING 21304
SWIDTH 720 0
DWIDTH 12 0
BBX 12 12 0 -2
BITMAP
0000
FFE0
2000
2000
2000
2000
2000
2000
2000
2000
1000
0FC0
ENDCHAR
STARTCHAR 5339
ENCODING 21305
SWIDTH 720 0
DWIDTH 12 0
BBX 12 12 0 -2
BITMAP
0000
FFE0
9200
9200
9240
A240
C1C0
8000
8000
FFE0
8000
0000
ENDCHAR
STARTCHAR 533A
ENCODING 21306
SWIDTH 720 0
DWIDTH 12 0
BBX 12 12 0 -2
BITMAP
0000
7FE0
4080
4080
5900
4500
4200
4500
4880
5000
7FE0
4000
ENDCHAR
STARTCHAR 533B
ENCODING 21307
SWIDTH 720 0
DWIDTH 12 0
BBX 12 12 0 -2
BITMAP
0000
7FE0
4800
4F80
5200
6200
5FC0
4200
4500
4880
5000
7FE0
ENDCHAR
STARTCHAR 533F
ENCODING 21311
SWIDTH 720 0
DWIDTH 12 0
BBX 12 12 0 -2
BITMAP
0000
FFE0
8900
BFC0
8900
FFC0
8800
9F80
A880
CF80
8000
FFE0
ENDCHAR
STARTCHAR 5340
ENCODING 21312
SWIDTH 720 0
DWIDTH 12 0
BBX 12 12 0 -2
BITMAP
0000
FFE0
4000
4F80
4880
4F80
4000
7DE0
6520
7DE0
4000
7FE0
ENDCHAR
STARTCHAR 5341
ENCODING 21313
SWIDTH 720 0
DWIDTH 12 0
BBX 12 12 0 -2
BITMAP
0400
0400
0400
0400
FFE0
0400
0400
0400
0400
0400
0400
0400
ENDCHAR
STARTCHAR 5343
ENCODING 21315
SWIDTH 720 0
DWIDTH 12 0
BBX 12 12 0 -2
BITMAP
0080
0700
7C00
0400
0400
FFE0
0400
0400
0400
0400
0400
0400
ENDCHAR
STARTCHAR 5345
ENCODING 21317
SWIDTH 720 0
DWIDTH 12 0
BBX 12 12 0 -2
BITMAP
2440
2440
2440
2440
2440
FFE0
2440
2440
2440
4440
4440
8040
ENDCHAR
STARTCHAR 5346
ENCODING 21318
SWIDTH 720 0
DWIDTH 12 0
BBX 12 12 0 -2
BITMAP
0800
0800
7F00
1100
1100
2120
44E0
0400
FFE0
0400
0400
0400
ENDCHAR
STARTCHAR 5347
ENCODING 21319
SWIDTH 720 0
DWIDTH 12 0
BBX 12 12 0 -2
BITMAP
0100
0D00
7100
1100
1100
FFE0
1100
1100
1100
2100
2100
4100
ENDCHAR
STARTCHAR 5348
ENCODING 21320
SWIDTH 720 0
DWIDTH 12 0
BBX 12 12 0 -2
BITMAP
1000
1000
1FC0
2200
4200
0200
FFE0
0200
0200
0200
0200
0200
ENDCHAR
STARTCHAR 5349
ENCODING 21321
SWIDTH 720 0
DWIDTH 12 0
BBX 12 12 0 -2
BITMAP
0400
0400
7FC0
0400
1480
1480
1080
FFE0
1080
2080
2080
4080
ENDCHAR
STARTCHAR 534A
ENCODING 21322
SWIDTH 720 0
DWIDTH 12 0
BBX 12 12 0 -2
BITMAP
0400
2480
1480
1500
7FC0
0400
0400
FFE0
0400
0400
0400
0400
ENDCHAR
STARTCHAR 534D
ENCODING 21325
SWIDTH 720 0
DWIDTH 12 0
BBX 12 12 0 -2
BITMAP
0000
7C20
0420
0420
0420
0420
7FE0
4400
4400
4400
4400
47E0
ENDCHAR
STARTCHAR 5351
ENCODING 21329
SWIDTH 720 0
DWIDTH 12 0
BBX 12 12 0 -2
BITMAP
0800
3FC0
2440
3FC0
2440
3FC0
1200
2200
FFF0
0200
0200
0200
ENDCHAR
STARTCHAR 5352
ENCODING 21330
SWIDTH 720 0
DWIDTH 12 0
BBX 12 12 0 -2
BITMAP
0400
0400
7FC0
1100
1100
2A80
4440
FFE0
0400
0400
0400
0400
ENDCHAR
STARTCHAR 5353
ENCODING 21331
SWIDTH 720 0
DWIDTH 12 0
BBX 12 12 0 -2
BITMAP
0400
07C0
0400
3F80
2080
3F80
2080
3F80
0400
FFE0
0400
0400
ENDCHAR
STARTCHAR 5354
ENCODING 21332
SWIDTH 720 0
DWIDTH 12 0
BBX 12 12 0 -2
BITMAP
4200
4FC0
4240
F240
4440
4980
4880
7FE0
54A0
54A0
6520
4E60
ENDCHAR
STARTCHAR 5357
ENCODING 21335
SWIDTH 720 0
DWIDTH 12 0
BBX 12 12 0 -2
BITMAP
0400
FFE0
0400
0400
7FC0
5140
4A40
5F40
4440
5F40
4440
44C0
ENDCHAR
STARTCHAR 5358
ENCODING 21336
SWIDTH 720 0
DWIDTH 12 0
BBX 12 12 0 -2
BITMAP
2440
1280
3F80
2480
3F80
2480
3F80
0400
FFE0
0400
0400
0400
ENDCHAR
STARTCHAR 535A
ENCODING 21338
SWIDTH 720 0
DWIDTH 12 0
BBX 12 12 0 -2
BITMAP
4240
5FE0
4200
5FC0
F240
5FC0
5240
7FE0
4080
4880
4480
4180
ENDCHAR
STARTCHAR 535C
ENCODING 21340
SWIDTH 720 0
DWIDTH 12 0
BBX 12 12 0 -2
BITMAP
0800
0800
0800
0C00
0A00
0900
0880
0880
0800
0800
0800
0800
ENDCHAR
STARTCHAR 535E
ENCODING 21342
SWIDTH 720 0
DWIDTH 12 0
BBX 12 12 0 -2
BITMAP
0400
0400
FFE0
0400
0600
0500
0480
0480
0400
0400
0400
0400
ENDCHAR
STARTCHAR 5360
ENCODING 21344
SWIDTH 720 0
DWIDTH 12 0
BBX 12 12 0 -2
BITMAP
0400
0400
0400
07E0
0400
0400
0400
3F80
2080
2080
2080
3F80
ENDCHAR
STARTCHAR 5366
ENCODING 21350
SWIDTH 720 0
DWIDTH 12 0
BBX 12 12 0 -2
BITMAP
1100
1100
7D00
1100
FD80
1140
1120
7D20
1100
1F00
E100
0100
ENDCHAR
STARTCHAR 5369
ENCODING 21353
SWIDTH 720 0
DWIDTH 12 0
BBX 12 12 0 -2
BITMAP
0000
1FC0
1040
1040
1040
1040
1040
1040
1380
1000
1000
1000
ENDCHAR
STARTCHAR 536E
ENCODING 21358
SWIDTH 720 0
DWIDTH 12 0
BBX 12 12 0 -2
BITMAP
01C0
3E00
2000
3FE0
2000
2F80
2880
2880
2B00
4800
4820
87E0
ENDCHAR
STARTCHAR 536F
ENCODING 21359
SWIDTH 720 0
DWIDTH 12 0
BBX 12 12 0 -2
BITMAP
0C00
71E0
4120
4920
4920
4920
4920
5920
E9C0
0900
1100
2100
ENDCHAR
STARTCHAR 5370
ENCODING 21360
SWIDTH 720 0
DWIDTH 12 0
BBX 12 12 0 -2
BITMAP
0800
73E0
4220
4220
7A20
4220
4220
4220
7AC0
4200
0200
0200
ENDCHAR
STARTCHAR 5371
ENCODING 21361
SWIDTH 720 0
DWIDTH 12 0
BBX 12 12 0 -2
BITMAP
0800
1F00
6200
0400
3FE0
2000
2F80
2880
4880
49A0
8820
07E0
ENDCHAR
STARTCHAR 5373
ENCODING 21363
SWIDTH 720 0
DWIDTH 12 0
BBX 12 12 0 -2
BITMAP
0000
7DE0
4520
7D20
4520
4520
7D20
5120
49C0
7500
C500
0100
ENDCHAR
STARTCHAR 5374
ENCODING 21364
SWIDTH 720 0
DWIDTH 12 0
BBX 12 12 0 -2
BITMAP
2000
21E0
FD20
2120
2120
FD20
2120
2920
4DC0
7500
C500
0100
ENDCHAR
STARTCHAR 5375
ENCODING 21365
SWIDTH 720 0
DWIDTH 12 0
BBX 12 12 0 -2
BITMAP
0C00
71E0
4520
6520
55A0
4560
4520
5920
E9C0
0900
1100
2100
ENDCHAR
STARTCHAR 5377
ENCODING 21367
SWIDTH 720 0
DWIDTH 12 0
BBX 12 12 0 -2
BITMAP
0400
2480
2440
7FC0
0A00
FFE0
1100
3F80
D160
1700
1040
0FC0
ENDCHAR
STARTCHAR 5378
ENCODING 21368
SWIDTH 720 0
DWIDTH 12 0
BBX 12 12 0 -2
BITMAP
2000
3DE0
5120
9120
7F20
1120
5D20
5120
51C0
5D00
E100
0100
ENDCHAR
STARTCHAR 537B
ENCODING 21371
SWIDTH 720 0
DWIDTH 12 0
BBX 12 12 0 -2
BITMAP
1000
29E0
2520
5520
9120
2920
4520
FB20
49C0
4900
4900
7900
ENDCHAR
STARTCHAR 537F
ENCODING 21375
SWIDTH 720 0
DWIDTH 12 0
BBX 12 12 0 -2
BITMAP
2000
CEE0
8AA0
AEA0
AAA0
AAA0
AEA0
A8A0
ECE0
2A80
5D80
8080
ENDCHAR
STARTCHAR 5382
ENCODING 21378
SWIDTH 720 0
DWIDTH 12 0
BBX 12 12 0 -2
BITMAP
0000
3FE0
2000
2000
2000
2000
2000
2000
2000
4000
4000
8000
ENDCHAR
STARTCHAR 5384
ENCODING 21380
SWIDTH 720 0
DWIDTH 12 0
BBX 12 12 0 -2
BITMAP
0000
3FE0
2000
2000
2F80
2880
2880
2880
2B00
4820
4820
87E0
ENDCHAR
STARTCHAR 5396
ENCODING 21398
SWIDTH 720 0
DWIDTH 12 0
BBX 12 12 0 -2
BITMAP
0000
7FE0
4A80
4880
7F40
4A40
4CA0
4D20
4C40
5480
9520
A3E0
ENDCHAR
STARTCHAR 5398
ENCODING 21400
SWIDTH 720 0
DWIDTH 12 0
BBX 12 12 0 -2
BITMAP
0000
7FE0
4000
5FC0
5240
5FC0
5240
5FC0
4200
9FC0
8200
7FE0
ENDCHAR
STARTCHAR 539A
ENCODING 21402
SWIDTH 720 0
DWIDTH 12 0
BBX 12 12 0 -2
BITMAP
0000
7FE0
5080
5F80
5080
5F80
4000
5F80
4100
7FE0
8200
0600
ENDCHAR
STARTCHAR 539F
ENCODING 21407
SWIDTH 720 0
DWIDTH 12 0
BBX 12 12 0 -2
BITMAP
0000
3FE0
2200
2FC0
2840
2FC0
2840
2FC0
4280
5240
A220
0600
ENDCHAR
STARTCHAR 53A0
ENCODING 21408
SWIDTH 720 0
DWIDTH 12 0
BBX 12 12 0 -2
BITMAP
0000
7FE0
4000
5E20
52A0
5EA0
52A0
5EA0
52A0
5EA0
9420
A260
ENDCHAR
STARTCHAR 53A5
ENCODING 21413
SWIDTH 720 0
DWIDTH 12 0
BBX 12 12 0 -2
BITMAP
0000
7FE0
6500
5A00
7FE0
4AA0
6AC0
6A80
7EC0
4940
8920
9210
ENDCHAR
STARTCHAR 53A6
ENCODING 21414
SWIDTH 720 0
DWIDTH 12 0
BBX 12 12 0 -2
BITMAP
0000
7FE0
4000
7FC0
4400
5F80
5F80
5080
5F80
6880
8700
B8E0
ENDCHAR
STARTCHAR 53A8
ENCODING 21416
SWIDTH 720 0
DWIDTH 12 0
BBX 12 12 0 -2
BITMAP
0000
7FE0
4000
7E40
4040
7FF0
6440
7E40
6540
5840
8E40
B0C0
ENDCHAR
STARTCHAR 53A9
ENCODING 21417
SWIDTH 720 0
DWIDTH 12 0
BBX 12 12 0 -2
BITMAP
7FE0
4000
5DE0
5540
5D40
57E0
5C80
5180
5980
5680
9AA0
3460
ENDCHAR
STARTCHAR 53AD
ENCODING 21421
SWIDTH 720 0
DWIDTH 12 0
BBX 12 12 0 -2
BITMAP
0000
7FE0
54C0
5CA0
4080
5FE0
5480
5C80
5540
5D40
9540
9620
ENDCHAR
STARTCHAR 53AE
ENCODING 21422
SWIDTH 720 0
DWIDTH 12 0
BBX 12 12 0 -2
BITMAP
0000
7FE0
5440
7F80
5500
5DE0
5540
5D40
5540
7F40
9A40
2440
ENDCHAR
STARTCHAR 53B0
ENCODING 21424
SWIDTH 720 0
DWIDTH 12 0
BBX 12 12 0 -2
BITMAP
0000
7FE0
5900
7500
51E0
7E40
6540
7D80
6C80
7D80
A640
2C20
ENDCHAR
STARTCHAR 53B3
ENCODING 21427
SWIDTH 720 0
DWIDTH 12 0
BBX 12 12 0 -2
BITMAP
2440
1280
7FE0
4100
5F00
49E0
7E40
5540
5E80
54C0
BD20
0620
ENDCHAR
STARTCHAR 53B6
ENCODING 21430
SWIDTH 720 0
DWIDTH 12 0
BBX 12 12 0 -2
BITMAP
0400
0400
0400
0400
0800
0800
0900
1080
1040
23E0
FC20
0020
ENDCHAR
STARTCHAR 53BB
ENCODING 21435
SWIDTH 720 0
DWIDTH 12 0
BBX 12 12 0 -2
BITMAP
0400
0400
7FC0
0400
0400
FFE0
0400
0900
0880
1380
7C40
0040
ENDCHAR
STARTCHAR 53C2
ENCODING 21442
SWIDTH 720 0
DWIDTH 12 0
BBX 12 12 0 -2
BITMAP
0A00
1100
7E80
0400
FFE0
1300
2C80
7340
8CA0
3100
0600
3800
ENDCHAR
STARTCHAR 53C3
ENCODING 21443
SWIDTH 720 0
DWIDTH 12 0
BBX 12 12 0 -2
BITMAP
0800
1100
7FC0
2080
5120
F5E0
0E00
3980
C660
1900
0600
7800
ENDCHAR
STARTCHAR 53C8
ENCODING 21448
SWIDTH 720 0
DWIDTH 12 0
BBX 12 12 0 -2
BITMAP
0000
3F80
0080
1080
1080
0900
0900
0600
0600
0900
3080
C060
ENDCHAR
STARTCHAR 53C9
ENCODING 21449
SWIDTH 720 0
DWIDTH 12 0
BBX 12 12 0 -2
BITMAP
0000
7FC0
0840
0480
1480
1100
0900
0A00
0400
0A00
3180
C060
ENDCHAR
STARTCHAR 53CA
ENCODING 21450
SWIDTH 720 0
DWIDTH 12 0
BBX 12 12 0 -2
BITMAP
0000
3F80
0880
0900
09C0
1440
1440
1280
2180
2180
4640
9820
ENDCHAR
STARTCHAR 53CB
ENCODING 21451
SWIDTH 720 0
DWIDTH 12 0
BBX 12 12 0 -2
BITMAP
0800
0800
FFE0
0800
0800
1F80
1080
1500
2200
4700
9880
6060
ENDCHAR
STARTCHAR 53CC
ENCODING 21452
SWIDTH 720 0
DWIDTH 12 0
BBX 12 12 0 -2
BITMAP
0000
FBE0
0820
0A20
4940
2940
1080
1880
2540
2240
4420
8810
ENDCHAR
STARTCHAR 53CD
ENCODING 21453
SWIDTH 720 0
DWIDTH 12 0
BBX 12 12 0 -2
BITMAP
0000
3FC0
2000
2000
3F80
2080
2900
2900
4600
4600
9900
60C0
ENDCHAR
STARTCHAR 53CE
ENCODING 21454
SWIDTH 720 0
DWIDTH 12 0
BBX 12 12 0 -2
BITMAP
0800
4FC0
4840
4C40
4C40
4A80
4A80
4900
7900
CA80
0C40
0820
ENDCHAR
STARTCHAR 53D4
ENCODING 21460
SWIDTH 720 0
DWIDTH 12 0
BBX 12 12 0 -2
BITMAP
2000
27C0
3840
2440
2280
FA80
2100
3100
AA80
AA80
A440
6820
ENDCHAR
STARTCHAR 53D6
ENCODING 21462
SWIDTH 720 0
DWIDTH 12 0
BBX 12 12 0 -2
BITMAP
0000
FC00
4BE0
4820
7A20
4940
7940
4880
7980
CA40
0C20
0810
ENDCHAR
STARTCHAR 53D7
ENCODING 21463
SWIDTH 720 0
DWIDTH 12 0
BBX 12 12 0 -2
BITMAP
01C0
7E40
2440
1280
FFE0
8020
BF20
1100
0A00
0600
1900
60C0
ENDCHAR
STARTCHAR 53D9
ENCODING 21465
SWIDTH 720 0
DWIDTH 12 0
BBX 12 12 0 -2
BITMAP
1000
13E0
2820
4A20
7E20
A540
2140
F880
2080
A940
AA20
6410
ENDCHAR
STARTCHAR 53DB
ENCODING 21467
SWIDTH 720 0
DWIDTH 12 0
BBX 12 12 0 -2
BITMAP
2000
ABE0
6A00
7200
FFE0
2220
3A40
E540
4580
4880
8940
0620
ENDCHAR
STARTCHAR 53DF
ENCODING 21471
SWIDTH 720 0
DWIDTH 12 0
BBX 12 12 0 -2
BITMAP
1400
E5E0
8420
F5E0
8420
FFE0
0400
7FC0
1980
0600
1B00
60C0
ENDCHAR
STARTCHAR 53E1
ENCODING 21473
SWIDTH 720 0
DWIDTH 12 0
BBX 12 12 0 -2
BITMAP
3800
23E0
FC20
A520
7140
8D40
2080
7880
CCC0
7940
4A20
7C10
ENDCHAR
STARTCHAR 53E2
ENCODING 21474
SWIDTH 720 0
DWIDTH 12 0
BBX 12 12 0 -2
BITMAP
0A00
2A80
FFE0
1100
7FC0
0400
FFE0
4F80
7A80
4900
FA80
0C60
ENDCHAR
STARTCHAR 53E3
ENCODING 21475
SWIDTH 720 0
DWIDTH 12 0
BBX 12 12 0 -2
BITMAP
0000
0000
7FE0
4020
4020
4020
4020
4020
4020
4020
7FE0
4020
ENDCHAR
STARTCHAR 53E4
ENCODING 21476
SWIDTH 720 0
DWIDTH 12 0
BBX 12 12 0 -2
BITMAP
0400
0400
0400
FFE0
0400
0400
0400
3F80
2080
2080
2080
3F80
ENDCHAR
STARTCHAR 53E5
ENCODING 21477
SWIDTH 720 0
DWIDTH 12 0
BBX 12 12 0 -2
BITMAP
1000
1000
3FE0
2020
5F20
9120
1120
1120
1F20
0020
0020
00C0
ENDCHAR
STARTCHAR 53E8
ENCODING 21480
SWIDTH 720 0
DWIDTH 12 0
BBX 12 12 0 -2
BITMAP
0000
0FE0
F120
9120
9120
9120
9120
9120
9220
F220
0420
08C0
ENDCHAR
STARTCHAR 53E9
ENCODING 21481
SWIDTH 720 0
DWIDTH 12 0
BBX 12 12 0 -2
BITMAP
0000
03E0
7A20
4A20
4A20
4A20
4A20
4A20
7A20
42C0
0200
0200
ENDCHAR
STARTCHAR 53EA
ENCODING 21482
SWIDTH 720 0
DWIDTH 12 0
BBX 12 12 0 -2
BITMAP
0000
7F80
4080
4080
4080
4080
7F80
0000
1100
1080
2040
C040
ENDCHAR
STARTCHAR 53EB
ENCODING 21483
SWIDTH 720 0
DWIDTH 12 0
BBX 12 12 0 -2
BITMAP
0080
F480
9480
9480
9480
9480
9480
94E0
F780
8C80
0080
0080
ENDCHAR
STARTCHAR 53EC
ENCODING 21484
SWIDTH 720 0
DWIDTH 12 0
BBX 12 12 0 -2
BITMAP
0000
7FC0
0840
0840
1040
2180
4000
3F80
2080
2080
2080
3F80
ENDCHAR
STARTCHAR 53ED
ENCODING 21485
SWIDTH 720 0
DWIDTH 12 0
BBX 12 12 0 -2
BITMAP
0780
F080
9480
9480
9480
9480
9480
9480
F880
0840
1040
2020
ENDCHAR
STARTCHAR 53EE
ENCODING 21486
SWIDTH 720 0
DWIDTH 12 0
BBX 12 12 0 -2
BITMAP
0000
0FE0
F100
9100
9100
9100
9100
9100
9100
F100
0100
0300
ENDCHAR
STARTCHAR 53EF
ENCODING 21487
SWIDTH 720 0
DWIDTH 12 0
BBX 12 12 0 -2
BITMAP
0000
FFE0
0080
3E80
2280
2280
2280
3E80
2080
0080
0080
0180
ENDCHAR
STARTCHAR 53F0
ENCODING 21488
SWIDTH 720 0
DWIDTH 12 0
BBX 12 12 0 -2
BITMAP
0400
0400
0880
1040
23C0
FC20
0020
3FC0
2040
2040
2040
3FC0
ENDCHAR
STARTCHAR 53F1
ENCODING 21489
SWIDTH 720 0
DWIDTH 12 0
BBX 12 12 0 -2
BITMAP
0400
0400
F440
9440
9480
9500
9600
9C00
9400
F420
0420
03E0
ENDCHAR
STARTCHAR 53F2
ENCODING 21490
SWIDTH 720 0
DWIDTH 12 0
BBX 12 12 0 -2
BITMAP
0400
0400
7FC0
4440
4440
7FC0
2400
1400
0C00
0A00
3180
C060
ENDCHAR
STARTCHAR 53F3
ENCODING 21491
SWIDTH 720 0
DWIDTH 12 0
BBX 12 12 0 -2
BITMAP
0800
0800
0800
FFE0
0800
0800
1000
1FC0
3040
5040
9040
1FC0
ENDCHAR
STARTCHAR 53F6
ENCODING 21494
SWIDTH 720 0
DWIDTH 12 0
BBX 12 12 0 -2
BITMAP
0100
0100
F100
9100
9FE0
9100
9100
9100
9100
F100
0100
0100
ENDCHAR
STARTCHAR 53F7
ENCODING 21495
SWIDTH 720 0
DWIDTH 12 0
BBX 12 12 0 -2
BITMAP
0000
3F80
2080
3F80
0000
FFE0
1000
1F80
2080
0080
0080
0300
ENDCHAR
STARTCHAR 53F8
ENCODING 21496
SWIDTH 720 0
DWIDTH 12 0
BBX 12 12 0 -2
BITMAP
0000
7FE0
0020
3FA0
0020
1F20
1120
1120
1F20
0020
0020
00C0
ENDCHAR
STARTCHAR 53FA
ENCODING 21498
SWIDTH 720 0
DWIDTH 12 0
BBX 12 12 0 -2
BITMAP
0300
0100
F100
9100
9100
9100
9300
9280
F480
0440
0840
3020
ENDCHAR
STARTCHAR 5401
ENCODING 21505
SWIDTH 720 0
DWIDTH 12 0
BBX 12 12 0 -2
BITMAP
0000
0FC0
F100
9100
9100
9FE0
9100
9100
F100
0100
0100
0300
ENDCHAR
STARTCHAR 5403
ENCODING 21507
SWIDTH 720 0
DWIDTH 12 0
BBX 12 12 0 -2
BITMAP
0400
0400
F7E0
9800
9000
9FC0
9080
9300
F400
0820
0820
07E0
ENDCHAR
STARTCHAR 5404
ENCODING 21508
SWIDTH 720 0
DWIDTH 12 0
BBX 12 12 0 -2
BITMAP
0800
0F80
1080
2900
4600
0900
1080
3FC0
D0A0
1080
1080
1F80
ENDCHAR
STARTCHAR 5408
ENCODING 21512
SWIDTH 720 0
DWIDTH 12 0
BBX 12 12 0 -2
BITMAP
0400
0400
0A00
1100
3F80
C060
0000
3F80
2080
2080
2080
3F80
ENDCHAR
STARTCHAR 5409
ENCODING 21513
SWIDTH 720 0
DWIDTH 12 0
BBX 12 12 0 -2
BITMAP
0400
0400
FFE0
0400
0400
7FC0
0000
3F80
2080
2080
2080
3F80
ENDCHAR
STARTCHAR 540A
ENCODING 21514
SWIDTH 720 0
DWIDTH 12 0
BBX 12 12 0 -2
BITMAP
0000
3F80
2080
2080
3F80
0400
7FC0
4440
4440
4440
4580
0400
ENDCHAR
STARTCHAR 540B
ENCODING 21515
SWIDTH 720 0
DWIDTH 12 0
BBX 12 12 0 -2
BITMAP
0080
0080
F080
9FE0
9080
9480
9280
9280
9080
F080
0080
0180
ENDCHAR
STARTCHAR 540C
ENCODING 21516
SWIDTH 720 0
DWIDTH 12 0
BBX 12 12 0 -2
BITMAP
0000
7FE0
4020
4020
5FA0
4020
5FA0
50A0
50A0
5FA0
4020
4060
ENDCHAR
STARTCHAR 540D
ENCODING 21517
SWIDTH 720 0
DWIDTH 12 0
BBX 12 12 0 -2
BITMAP
0400
0400
0F80
1080
2900
4600
0400
0FE0
3820
C820
0820
0FE0
ENDCHAR
STARTCHAR 540E
ENCODING 21518
SWIDTH 720 0
DWIDTH 12 0
BBX 12 12 0 -2
BITMAP
01C0
3E00
2000
2000
3FE0
2000
2000
2FC0
4840
4840
8840
0FC0
ENDCHAR
STARTCHAR 540F
ENCODING 21519
SWIDTH 720 0
DWIDTH 12 0
BBX 12 12 0 -2
BITMAP
0400
7FE0
0400
3FC0
2440
2440
3FC0
1400
0C00
0A00
3180
C060
ENDCHAR
STARTCHAR 5410
ENCODING 21520
SWIDTH 720 0
DWIDTH 12 0
BBX 12 12 0 -2
BITMAP
0100
0100
F100
9100
9FE0
9100
9100
9100
F100
0100
1FE0
0000
ENDCHAR
STARTCHAR 5411
ENCODING 21521
SWIDTH 720 0
DWIDTH 12 0
BBX 12 12 0 -2
BITMAP
0400
0800
1000
7FE0
4020
4020
4F20
4920
4920
4F20
4020
4060
ENDCHAR
STARTCHAR 541B
ENCODING 21531
SWIDTH 720 0
DWIDTH 12 0
BBX 12 12 0 -2
BITMAP
0000
7F80
0880
FFE0
0880
0880
7F80
1000
3F80
5080
9080
1F80
ENDCHAR
STARTCHAR 541D
ENCODING 21533
SWIDTH 720 0
DWIDTH 12 0
BBX 12 12 0 -2
BITMAP
0400
FFE0
2100
1200
0C00
0A00
3180
C060
3F80
2080
2080
3F80
ENDCHAR
STARTCHAR 541F
ENCODING 21535
SWIDTH 720 0
DWIDTH 12 0
BBX 12 12 0 -2
BITMAP
0200
0300
E500
A480
AFC0
B020
A000
AFC0
A080
E080
0100
0200
ENDCHAR
STARTCHAR 5420
ENCODING 21536
SWIDTH 720 0
DWIDTH 12 0
BBX 12 12 0 -2
BITMAP
0200
E280
A240
A200
BFE0
A200
A200
A500
E500
0880
1040
6020
ENDCHAR
STARTCHAR 5426
ENCODING 21542
SWIDTH 720 0
DWIDTH 12 0
BBX 12 12 0 -2
BITMAP
0000
7FE0
0600
0D80
3440
C420
0400
3FC0
2040
2040
2040
3FC0
ENDCHAR
STARTCHAR 5429
ENCODING 21545
SWIDTH 720 0
DWIDTH 12 0
BBX 12 12 0 -2
BITMAP
0300
0900
E900
A880
B040
BFA0
A480
A480
E480
0880
0880
1300
ENDCHAR
STARTCHAR 542B
ENCODING 21547
SWIDTH 720 0
DWIDTH 12 0
BBX 12 12 0 -2
BITMAP
0400
0A00
1100
2E80
C060
7F80
0200
0400
3F80
2080
2080
3F80
ENDCHAR
STARTCHAR 542C
ENCODING 21548
SWIDTH 720 0
DWIDTH 12 0
BBX 12 12 0 -2
BITMAP
00C0
F700
9400
9400
97E0
9480
9480
9480
F480
0880
0880
1080
ENDCHAR
STARTCHAR 542D
ENCODING 21549
SWIDTH 720 0
DWIDTH 12 0
BBX 12 12 0 -2
BITMAP
0200
F200
9FE0
9000
9780
9480
9480
9480
F480
04A0
08A0
1060
ENDCHAR
STARTCHAR 542E
ENCODING 21550
SWIDTH 720 0
DWIDTH 12 0
BBX 12 12 0 -2
BITMAP
0200
0280
F240
9460
9FA0
9280
9280
9280
9480
F4A0
08A0
1060
ENDCHAR
STARTCHAR 5436
ENCODING 21558
SWIDTH 720 0
DWIDTH 12 0
BBX 12 12 0 -2
BITMAP
0100
0100
EFE0
A920
A920
A920
AAA0
AC60
E820
0820
0820
0860
ENDCHAR
STARTCHAR 5438
ENCODING 21560
SWIDTH 720 0
DWIDTH 12 0
BBX 12 12 0 -2
BITMAP
0000
0FC0
F240
9280
92E0
9220
9320
9540
F480
04C0
0920
1610
ENDCHAR
STARTCHAR 5439
ENCODING 21561
SWIDTH 720 0
DWIDTH 12 0
BBX 12 12 0 -2
BITMAP
0200
0200
F3E0
9420
9540
9900
9100
9100
F280
0280
0440
1820
ENDCHAR
STARTCHAR 543B
ENCODING 21563
SWIDTH 720 0
DWIDTH 12 0
BBX 12 12 0 -2
BITMAP
0400
0400
E7E0
A6A0
AAA0
AAA0
B2A0
A520
A520
E920
0220
04C0
ENDCHAR
STARTCHAR 543C
ENCODING 21564
SWIDTH 720 0
DWIDTH 12 0
BBX 12 12 0 -2
BITMAP
0080
1F80
E280
A480
A480
A780
BC80
A480
A480
E4A0
04A0
0C60
ENDCHAR
STARTCHAR 543D
ENCODING 21565
SWIDTH 720 0
DWIDTH 12 0
BBX 12 12 0 -2
BITMAP
0100
0500
E500
A7E0
A900
B100
BFE0
A100
A100
E100
0100
0100
ENDCHAR
STARTCHAR 543E
ENCODING 21566
SWIDTH 720 0
DWIDTH 12 0
BBX 12 12 0 -2
BITMAP
7FC0
0800
0800
7F80
1080
1080
FFE0
0000
3F80
2080
2080
3F80
ENDCHAR
STARTCHAR 5440
ENCODING 21568
SWIDTH 720 0
DWIDTH 12 0
BBX 12 12 0 -2
BITMAP
0000
0FE0
F480
9480
9480
9FE0
9280
9280
F480
0880
1080
0180
ENDCHAR
STARTCHAR 5442
ENCODING 21570
SWIDTH 720 0
DWIDTH 12 0
BBX 12 12 0 -2
BITMAP
0000
3F80
2080
2080
3F80
0400
0800
7FC0
4040
4040
4040
7FC0
ENDCHAR
STARTCHAR 5446
ENCODING 21574
SWIDTH 720 0
DWIDTH 12 0
BBX 12 12 0 -2
BITMAP
0000
3F80
2080
2080
3F80
0400
FFE0
0E00
3580
C460
0400
0400
ENDCHAR
STARTCHAR 5448
ENCODING 21576
SWIDTH 720 0
DWIDTH 12 0
BBX 12 12 0 -2
BITMAP
0000
3F80
2080
2080
3F80
0000
7FC0
0400
3F80
0400
0400
FFE0
ENDCHAR
STARTCHAR 5449
ENCODING 21577
SWIDTH 720 0
DWIDTH 12 0
BBX 12 12 0 -2
BITMAP
1F80
5080
5080
5F80
4000
7F80
4080
0080
FFE0
1200
2180
C040
ENDCHAR
STARTCHAR 544A
ENCODING 21578
SWIDTH 720 0
DWIDTH 12 0
BBX 12 12 0 -2
BITMAP
0400
2400
2400
3FC0
2400
4400
FFE0
0000
3F80
2080
2080
3F80
ENDCHAR
STARTCHAR 544E
ENCODING 21582
SWIDTH 720 0
DWIDTH 12 0
BBX 12 12 0 -2
BITMAP
0000
07E0
F420
9420
97E0
9600
9500
9500
F880
0880
1040
2020
ENDCHAR
STARTCHAR 5451
ENCODING 21585
SWIDTH 720 0
DWIDTH 12 0
BBX 12 12 0 -2
BITMAP
01C0
7E00
0400
0400
FFE0
0A00
1100
3F80
D160
1100
1100
1F00
ENDCHAR
STARTCHAR 545F
ENCODING 21599
SWIDTH 720 0
DWIDTH 12 0
BBX 12 12 0 -2
BITMAP
0100
0100
EFE0
A100
A100
AA40
A440
A280
A140
E620
1FE0
0020
ENDCHAR
STARTCHAR 5468
ENCODING 21608
SWIDTH 720 0
DWIDTH 12 0
BBX 12 12 0 -2
BITMAP
0000
7FC0
4440
5F40
4440
7FC0
4040
5F40
5140
5F40
8040
80C0
ENDCHAR
STARTCHAR 546A
ENCODING 21610
SWIDTH 720 0
DWIDTH 12 0
BBX 12 12 0 -2
BITMAP
0000
07C0
F440
9440
9440
97C0
9280
9280
F480
04A0
08A0
3060
ENDCHAR
STARTCHAR 5470
ENCODING 21616
SWIDTH 720 0
DWIDTH 12 0
BBX 12 12 0 -2
BITMAP
1200
5260
5F80
5200
5220
5E20
E1E0
0000
3F80
2080
2080
3F80
ENDCHAR
STARTCHAR 5471
ENCODING 21617
SWIDTH 720 0
DWIDTH 12 0
BBX 12 12 0 -2
BITMAP
00C0
0F00
EA80
AA80
AA80
AA80
AA80
AA80
EB40
12C0
1FA0
2090
ENDCHAR
STARTCHAR 5473
ENCODING 21619
SWIDTH 720 0
DWIDTH 12 0
BBX 12 12 0 -2
BITMAP
0200
0200
EFC0
A200
A200
BFE0
A200
A700
AA80
F260
0200
0200
ENDCHAR
STARTCHAR 5475
ENCODING 21621
SWIDTH 720 0
DWIDTH 12 0
BBX 12 12 0 -2
BITMAP
0000
1FE0
E040
AF40
A940
A940
A940
AF40
A840
E040
0040
00C0
ENDCHAR
STARTCHAR 5476
ENCODING 21622
SWIDTH 720 0
DWIDTH 12 0
BBX 12 12 0 -2
BITMAP
0400
05E0
E420
BF20
AAA0
AAA0
AAA0
BA40
A440
EAA0
1120
2210
ENDCHAR
STARTCHAR 5477
ENCODING 21623
SWIDTH 720 0
DWIDTH 12 0
BBX 12 12 0 -2
BITMAP
0000
0FE0
E920
AFE0
A920
A920
AFE0
A900
E100
8100
0100
0100
ENDCHAR
STARTCHAR 547B
ENCODING 21627
SWIDTH 720 0
DWIDTH 12 0
BBX 12 12 0 -2
BITMAP
0100
0100
EFE0
A920
AFE0
A920
A920
AFE0
E900
8100
0100
0100
ENDCHAR
STARTCHAR 547C
ENCODING 21628
SWIDTH 720 0
DWIDTH 12 0
BBX 12 12 0 -2
BITMAP
00C0
1F00
E240
B240
AA80
AA00
BFE0
A200
E200
0200
0200
0600
ENDCHAR
STARTCHAR 547D
ENCODING 21629
SWIDTH 720 0
DWIDTH 12 0
BBX 12 12 0 -2
BITMAP
0400
0A00
1100
3E80
C060
7BC0
4A40
4A40
4A40
7B80
0200
0200
ENDCHAR
STARTCHAR 5480
ENCODING 21632
SWIDTH 720 0
DWIDTH 12 0
BBX 12 12 0 -2
BITMAP
0000
07C0
F440
9440
97C0
9440
9440
97C0
F440
8440
0440
1FE0
ENDCHAR
STARTCHAR 5484
ENCODING 21636
SWIDTH 720 0
DWIDTH 12 0
BBX 12 12 0 -2
BITMAP
0100
0920
E920
A920
A920
AFE0
A100
A920
A920
E920
0920
0FE0
ENDCHAR
STARTCHAR 5486
ENCODING 21638
SWIDTH 720 0
DWIDTH 12 0
BBX 12 12 0 -2
BITMAP
0400
0400
E7E0
A820
AFA0
B4A0
A4A0
A7A0
A440
E400
0420
03E0
ENDCHAR
STARTCHAR 548B
ENCODING 21643
SWIDTH 720 0
DWIDTH 12 0
BBX 12 12 0 -2
BITMAP
0200
0200
F7F0
9500
9500
99E0
9100
9100
91E0
F100
0100
0100
ENDCHAR
STARTCHAR 548C
ENCODING 21644
SWIDTH 720 0
DWIDTH 12 0
BBX 12 12 0 -2
BITMAP
0C00
7000
13E0
1220
FE20
1220
3A20
3620
5220
5220
93E0
1000
ENDCHAR
STARTCHAR 548E
ENCODING 21646
SWIDTH 720 0
DWIDTH 12 0
BBX 12 12 0 -2
BITMAP
2080
3880
2880
6980
9240
2C20
43E0
8000
3F80
2080
2080
3F80
ENDCHAR
STARTCHAR 548F
ENCODING 21647
SWIDTH 720 0
DWIDTH 12 0
BBX 12 12 0 -2
BITMAP
0100
0080
E700
A120
A140
BF80
A380
A340
A520
E910
1100
0300
ENDCHAR
STARTCHAR 5490
ENCODING 21648
SWIDTH 720 0
DWIDTH 12 0
BBX 12 12 0 -2
BITMAP
0440
0440
E440
ABE0
A840
BA40
A940
A940
A840
E840
0840
08C0
ENDCHAR
STARTCHAR 5492
ENCODING 21650
SWIDTH 720 0
DWIDTH 12 0
BBX 12 12 0 -2
BITMAP
0000
7BC0
4A40
4A40
7BC0
0000
1E00
1200
1200
1220
2220
41E0
ENDCHAR
STARTCHAR 54A2
ENCODING 21666
SWIDTH 720 0
DWIDTH 12 0
BBX 12 12 0 -2
BITMAP
7BC0
4A40
4A40
7BC0
0000
3F80
0000
FFE0
0800
1F80
2080
0700
ENDCHAR
STARTCHAR 54A4
ENCODING 21668
SWIDTH 720 0
DWIDTH 12 0
BBX 12 12 0 -2
BITMAP
0200
1FE0
F020
B1A0
AE00
A200
A3E0
BE00
A200
E200
0220
01E0
ENDCHAR
STARTCHAR 54A5
ENCODING 21669
SWIDTH 720 0
DWIDTH 12 0
BBX 12 12 0 -2
BITMAP
0000
1FE0
E200
A480
BFC0
A240
A200
BFC0
A200
E200
0200
3FE0
ENDCHAR
STARTCHAR 54A8
ENCODING 21672
SWIDTH 720 0
DWIDTH 12 0
BBX 12 12 0 -2
BITMAP
0400
0400
E7E0
0940
1100
3280
C440
0820
3F80
2080
2080
3F80
ENDCHAR
STARTCHAR 54AB
ENCODING 21675
SWIDTH 720 0
DWIDTH 12 0
BBX 12 12 0 -2
BITMAP
0000
7BE0
4A20
4A20
7A20
63E0
6080
5140
5120
4A20
8600
81F0
ENDCHAR
STARTCHAR 54AC
ENCODING 21676
SWIDTH 720 0
DWIDTH 12 0
BBX 12 12 0 -2
BITMAP
0200
0200
FFE0
A480
A480
A840
B4A0
A500
E200
8500
0880
3060
ENDCHAR
STARTCHAR 54AF
ENCODING 21679
SWIDTH 720 0
DWIDTH 12 0
BBX 12 12 0 -2
BITMAP
0100
01C0
F240
9640
9980
9140
9220
97D0
9A40
F240
0240
03C0
ENDCHAR
STARTCHAR 54B2
ENCODING 21682
SWIDTH 720 0
DWIDTH 12 0
BBX 12 12 0 -2
BITMAP
0880
0480
E500
AFC0
A200
A200
BFE0
A200
E300
0480
0840
3020
ENDCHAR
STARTCHAR 54B3
ENCODING 21683
SWIDTH 720 0
DWIDTH 12 0
BBX 12 12 0 -2
BITMAP
0100
0100
FFE0
9100
9240
9680
9100
9240
9C80
F380
0640
1820
ENDCHAR
STARTCHAR 54B8
ENCODING 21688
SWIDTH 720 0
DWIDTH 12 0
BBX 12 12 0 -2
BITMAP
0180
0140
7FE0
4100
5D20
4120
5D40
5540
5480
5CA0
8160
8220
ENDCHAR
STARTCHAR 54BC
ENCODING 21692
SWIDTH 720 0
DWIDTH 12 0
BBX 12 12 0 -2
BITMAP
0000
1F80
1080
1780
1480
7FE0
4020
5FA0
50A0
5FA0
5020
4060
ENDCHAR
STARTCHAR 54BD
ENCODING 21693
SWIDTH 720 0
DWIDTH 12 0
BBX 12 12 0 -2
BITMAP
0000
0FE0
E920
A920
AFE0
A920
A920
A9A0
AA60
EA60
0C20
0FE0
ENDCHAR
STARTCHAR 54BE
ENCODING 21694
SWIDTH 720 0
DWIDTH 12 0
BBX 12 12 0 -2
BITMAP
0200
0200
EFC0
A240
A280
BFE0
A200
A4C0
BF00
E400
0440
03C0
ENDCHAR
STARTCHAR 54C0
ENCODING 21696
SWIDTH 720 0
DWIDTH 12 0
BBX 12 12 0 -2
BITMAP
0400
FFE0
0000
3F80
2080
2080
3F80
0840
3480
D200
1D80
7060
ENDCHAR
STARTCHAR 54C1
ENCODING 21697
SWIDTH 720 0
DWIDTH 12 0
BBX 12 12 0 -2
BITMAP
0000
3F00
2100
2100
2100
3F00
0000
FBE0
8A20
8A20
8A20
FBE0
ENDCHAR
STARTCHAR 54C2
ENCODING 21698
SWIDTH 720 0
DWIDTH 12 0
BBX 12 12 0 -2
BITMAP
0000
0FE0
E280
A280
AFE0
AAA0
AAA0
ACE0
E820
8820
0FE0
0800
ENDCHAR
STARTCHAR 54C4
ENCODING 21700
SWIDTH 720 0
DWIDTH 12 0
BBX 12 12 0 -2
BITMAP
0480
0480
E480
AFC0
A480
A480
A480
BFE0
A500
E480
0840
1040
ENDCHAR
STARTCHAR 54C7
ENCODING 21703
SWIDTH 720 0
DWIDTH 12 0
BBX 12 12 0 -2
BITMAP
0100
0100
EFC0
A100
A100
BFE0
A100
A100
AFC0
E100
0100
1FE0
ENDCHAR
STARTCHAR 54C8
ENCODING 21704
SWIDTH 720 0
DWIDTH 12 0
BBX 12 12 0 -2
BITMAP
0100
0100
F280
9280
9440
9BA0
9000
97C0
F440
0440
0440
07C0
ENDCHAR
STARTCHAR 54C9
ENCODING 21705
SWIDTH 720 0
DWIDTH 12 0
BBX 12 12 0 -2
BITMAP
1100
7D80
1140
1100
FFE0
0100
7940
4940
4880
49A0
7A60
0420
ENDCHAR
STARTCHAR 54D8
ENCODING 21720
SWIDTH 720 0
DWIDTH 12 0
BBX 12 12 0 -2
BITMAP
0400
05E0
E800
B400
A5F0
A840
B840
A840
A840
E840
0840
08C0
ENDCHAR
STARTCHAR 54E1
ENCODING 21729
SWIDTH 720 0
DWIDTH 12 0
BBX 12 12 0 -2
BITMAP
1F80
1080
1F80
3FC0
2040
3FC0
2040
3FC0
2040
3FC0
1980
6060
ENDCHAR
STARTCHAR 54E2
ENCODING 21730
SWIDTH 720 0
DWIDTH 12 0
BBX 12 12 0 -2
BITMAP
0000
1FE0
E100
AFC0
A100
BFE0
A480
A480
BFE0
E480
0880
1080
ENDCHAR
STARTCHAR 54E5
ENCODING 21733
SWIDTH 720 0
DWIDTH 12 0
BBX 12 12 0 -2
BITMAP
0000
7FC0
3E80
2280
3E80
0080
FFE0
0080
3E80
2280
3E80
0180
ENDCHAR
STARTCHAR 54E6
ENCODING 21734
SWIDTH 720 0
DWIDTH 12 0
BBX 12 12 0 -2
BITMAP
0280
1CC0
E4A0
A480
BFE0
A4A0
A6A0
ACC0
B480
E5A0
0660
0C20
ENDCHAR
STARTCHAR 54E8
ENCODING 21736
SWIDTH 720 0
DWIDTH 12 0
BBX 12 12 0 -2
BITMAP
0200
1240
EA80
AFC0
A840
A840
AFC0
A840
AFC0
E840
0840
08C0
ENDCHAR
STARTCHAR 54E9
ENCODING 21737
SWIDTH 720 0
DWIDTH 12 0
BBX 12 12 0 -2
BITMAP
0000
EFE0
A920
AFE0
A920
A920
AFE0
A100
EFE0
8100
0100
1FF0
ENDCHAR
STARTCHAR 54ED
ENCODING 21741
SWIDTH 720 0
DWIDTH 12 0
BBX 12 12 0 -2
BITMAP
0000
FBE0
8A20
8A20
FBE0
0480
0440
FFE0
0400
0A00
3180
C060
ENDCHAR
STARTCHAR 54EE
ENCODING 21742
SWIDTH 720 0
DWIDTH 12 0
BBX 12 12 0 -2
BITMAP
0200
0280
FFC0
A280
BFE0
A200
A7C0
A980
B100
EFE0
0100
0300
ENDCHAR
STARTCHAR 54F2
ENCODING 21746
SWIDTH 720 0
DWIDTH 12 0
BBX 12 12 0 -2
BITMAP
2060
2780
F400
27E0
3480
E480
2880
6080
3F80
2080
2080
3F80
ENDCHAR
STARTCHAR 54FA
ENCODING 21754
SWIDTH 720 0
DWIDTH 12 0
BBX 12 12 0 -2
BITMAP
0140
0120
FFF0
A100
AFE0
A920
AFE0
A920
AFE0
E920
0920
0960
ENDCHAR
STARTCHAR 54FD
ENCODING 21757
SWIDTH 720 0
DWIDTH 12 0
BBX 12 12 0 -2
BITMAP
0000
1FE0
E100
AFC0
A940
AFC0
A940
AFC0
A500
E200
0D80
3060
ENDCHAR
STARTCHAR 5504
ENCODING 21764
SWIDTH 720 0
DWIDTH 12 0
BBX 12 12 0 -2
BITMAP
0000
07C0
F440
9440
97C0
9440
97C0
9440
9440
F7C0
0240
0C20
ENDCHAR
STARTCHAR 5506
ENCODING 21766
SWIDTH 720 0
DWIDTH 12 0
BBX 12 12 0 -2
BITMAP
0100
0240
FFA0
9280
92A0
94E0
9A00
93C0
9640
F980
06C0
1820
ENDCHAR
STARTCHAR 5507
ENCODING 21767
SWIDTH 720 0
DWIDTH 12 0
BBX 12 12 0 -2
BITMAP
0000
7FE0
4000
5FE0
4A40
4980
4A80
9C60
3FC0
2040
2040
3FC0
ENDCHAR
STARTCHAR 550F
ENCODING 21775
SWIDTH 720 0
DWIDTH 12 0
BBX 12 12 0 -2
BITMAP
0640
0180
EE40
A100
BFF0
A500
A7E0
AD20
F520
2520
0560
0100
ENDCHAR
STARTCHAR 5510
ENCODING 21776
SWIDTH 720 0
DWIDTH 12 0
BBX 12 12 0 -2
BITMAP
0200
7FE0
4200
5FC0
4240
7FE0
4240
5FC0
4000
5FC0
9040
1FC0
ENDCHAR
STARTCHAR 5514
ENCODING 21780
SWIDTH 720 0
DWIDTH 12 0
BBX 12 12 0 -2
BITMAP
0000
0FE0
F100
97C0
9240
9240
9FF0
9000
97C0
F440
0440
07C0
ENDCHAR
STARTCHAR 5516
ENCODING 21782
SWIDTH 720 0
DWIDTH 12 0
BBX 12 12 0 -2
BITMAP
0000
1FE0
E280
A280
AFE0
AAA0
AAA0
AAA0
AFE0
E280
0280
1FE0
ENDCHAR
STARTCHAR 552E
ENCODING 21806
SWIDTH 720 0
DWIDTH 12 0
BBX 12 12 0 -2
BITMAP
1100
1200
3FE0
6200
BFC0
2200
3FC0
2200
3FE0
2040
2040
3FC0
ENDCHAR
STARTCHAR 552F
ENCODING 21807
SWIDTH 720 0
DWIDTH 12 0
BBX 12 12 0 -2
BITMAP
0480
E900
AFE0
B900
A900
AFC0
A900
A900
AFC0
E900
0900
0FE0
ENDCHAR
STARTCHAR 5531
ENCODING 21809
SWIDTH 720 0
DWIDTH 12 0
BBX 12 12 0 -2
BITMAP
0000
07C0
E440
A7C0
A440
A7C0
A000
AFE0
E820
0FE0
0820
0FE0
ENDCHAR
STARTCHAR 5533
ENCODING 21811
SWIDTH 720 0
DWIDTH 12 0
BBX 12 12 0 -2
BITMAP
0000
1FE0
E000
AFE0
A820
AFE0
A900
AFE0
F100
1280
2440
1820
ENDCHAR
STARTCHAR 5538
ENCODING 21816
SWIDTH 720 0
DWIDTH 12 0
BBX 12 12 0 -2
BITMAP
0200
E300
A480
AF40
B020
AFC0
A080
A300
F500
1440
24A0
0380
ENDCHAR
STARTCHAR 5539
ENCODING 21817
SWIDTH 720 0
DWIDTH 12 0
BBX 12 12 0 -2
BITMAP
0880
0880
FEC0
A8C0
A920
AE90
AA40
AA20
EA80
1240
2220
0C20
ENDCHAR
STARTCHAR 553E
ENCODING 21822
SWIDTH 720 0
DWIDTH 12 0
BBX 12 12 0 -2
BITMAP
00C0
0F00
E100
AFE0
A540
BFF0
A540
A540
AFE0
E100
0100
1FE0
ENDCHAR
STARTCHAR 5540
ENCODING 21824
SWIDTH 720 0
DWIDTH 12 0
BBX 12 12 0 -2
BITMAP
0000
0FE0
E880
ABC0
A880
AFE0
A880
A880
EBC0
1080
1080
27E0
ENDCHAR
STARTCHAR 5544
ENCODING 21828
SWIDTH 720 0
DWIDTH 12 0
BBX 12 12 0 -2
BITMAP
0000
1FE0
E200
A600
B920
A2C0
A480
B9C0
E2A0
8C90
3080
0300
ENDCHAR
STARTCHAR 5545
ENCODING 21829
SWIDTH 720 0
DWIDTH 12 0
BBX 12 12 0 -2
BITMAP
0200
03E0
E200
AFC0
A840
AFC0
A840
AFC0
A200
FFE0
0200
0200
ENDCHAR
STARTCHAR 5546
ENCODING 21830
SWIDTH 720 0
DWIDTH 12 0
BBX 12 12 0 -2
BITMAP
0400
FFF0
1080
0900
7FE0
4920
5120
6FE0
4920
4920
4F20
4060
ENDCHAR
STARTCHAR 554C
ENCODING 21836
SWIDTH 720 0
DWIDTH 12 0
BBX 12 12 0 -2
BITMAP
0200
1FE0
F520
B520
A500
A8E0
B000
AFC0
A200
E200
0200
1FE0
ENDCHAR
STARTCHAR 554F
ENCODING 21839
SWIDTH 720 0
DWIDTH 12 0
BBX 12 12 0 -2
BITMAP
FBE0
8A20
FBE0
8A20
FBE0
8020
9F20
9120
9120
9F20
8020
8060
ENDCHAR
STARTCHAR 5553
ENCODING 21843
SWIDTH 720 0
DWIDTH 12 0
BBX 12 12 0 -2
BITMAP
FA00
03E0
7A40
4D40
7880
4140
4620
8000
3F80
2080
2080
3F80
ENDCHAR
STARTCHAR 5556
ENCODING 21846
SWIDTH 720 0
DWIDTH 12 0
BBX 12 12 0 -2
BITMAP
0200
0240
EA80
B300
A480
BA60
A200
A240
EA80
1300
0C80
3060
ENDCHAR
STARTCHAR 5557
ENCODING 21847
SWIDTH 720 0
DWIDTH 12 0
BBX 12 12 0 -2
BITMAP
0200
03E0
F220
9420
98C0
9100
96E0
9420
9760
F420
0420
07E0
ENDCHAR
STARTCHAR 555C
ENCODING 21852
SWIDTH 720 0
DWIDTH 12 0
BBX 12 12 0 -2
BITMAP
0000
1FE0
EAA0
A640
A5A0
A910
AFE0
A120
AAA0
E440
0AA0
1110
ENDCHAR
STARTCHAR 555D
ENCODING 21853
SWIDTH 720 0
DWIDTH 12 0
BBX 12 12 0 -2
BITMAP
0300
1C00
E4E0
A4A0
BFA0
A4A0
AEA0
AEE0
F580
2460
0400
0400
ENDCHAR
STARTCHAR 5563
ENCODING 21859
SWIDTH 720 0
DWIDTH 12 0
BBX 12 12 0 -2
BITMAP
0800
08E0
EFA0
B2A0
AFA0
A2A0
ABA0
AAA0
AAA0
EBC0
1C80
0080
ENDCHAR
STARTCHAR 557B
ENCODING 21883
SWIDTH 720 0
DWIDTH 12 0
BBX 12 12 0 -2
BITMAP
0400
7FC0
1100
FFE0
8420
3F80
2480
2700
0400
7FC0
4040
7FC0
ENDCHAR
STARTCHAR 557C
ENCODING 21884
SWIDTH 720 0
DWIDTH 12 0
BBX 12 12 0 -2
BITMAP
0200
1FC0
E880
A500
BFE0
B220
BFE0
AA40
AA40
EA40
0AC0
0200
ENDCHAR
STARTCHAR 557E
ENCODING 21886
SWIDTH 720 0
DWIDTH 12 0
BBX 12 12 0 -2
BITMAP
0680
1C80
E4A0
BFA0
A4C0
AE80
AD80
B480
A540
E540
0620
0410
ENDCHAR
STARTCHAR 5580
ENCODING 21888
SWIDTH 720 0
DWIDTH 12 0
BBX 12 12 0 -2
BITMAP
0100
1FE0
F220
B3A0
A480
AB00
A280
A440
BFE0
E440
0440
07C0
ENDCHAR
STARTCHAR 5583
ENCODING 21891
SWIDTH 720 0
DWIDTH 12 0
BBX 12 12 0 -2
BITMAP
0100
0100
FFE0
A100
AFE0
ACA0
AB20
AFE0
A920
EFE0
0920
0960
ENDCHAR
STARTCHAR 5584
ENCODING 21892
SWIDTH 720 0
DWIDTH 12 0
BBX 12 12 0 -2
BITMAP
1100
7FC0
0400
3F80
0400
7FC0
2480
FFE0
0000
3F80
2080
3F80
ENDCHAR
STARTCHAR 5587
ENCODING 21895
SWIDTH 720 0
DWIDTH 12 0
BBX 12 12 0 -2
BITMAP
0820
0820
FEA0
A8A0
BEA0
AAA0
AAA0
BEA0
ECA0
9A20
2820
0860
ENDCHAR
STARTCHAR 5589
ENCODING 21897
SWIDTH 720 0
DWIDTH 12 0
BBX 12 12 0 -2
BITMAP
0400
07C0
E440
AFE0
A900
BBE0
AA80
AC80
AFE0
E980
0A40
0C20
ENDCHAR
STARTCHAR 558A
ENCODING 21898
SWIDTH 720 0
DWIDTH 12 0
BBX 12 12 0 -2
BITMAP
00C0
00A0
EFE0
A880
AFA0
A8A0
AFA0
A9C0
EF40
10E0
1120
2220
ENDCHAR
STARTCHAR 558B
ENCODING 21899
SWIDTH 720 0
DWIDTH 12 0
BBX 12 12 0 -2
BITMAP
0A80
0A80
FFE0
AA80
AB80
A800
AFE0
A200
FFE0
0E80
3260
0200
ENDCHAR
STARTCHAR 5598
ENCODING 21912
SWIDTH 720 0
DWIDTH 12 0
BBX 12 12 0 -2
BITMAP
0100
0920
E920
AFE0
A000
BFF0
A200
AFE0
AAA0
EAA0
0AA0
0860
ENDCHAR
STARTCHAR 5599
ENCODING 21913
SWIDTH 720 0
DWIDTH 12 0
BBX 12 12 0 -2
BITMAP
07E0
E440
AFC0
A100
AFF0
A300
AD80
A2B0
EDC0
82A0
0C90
0100
ENDCHAR
STARTCHAR 559A
ENCODING 21914
SWIDTH 720 0
DWIDTH 12 0
BBX 12 12 0 -2
BITMAP
0200
03C0
E480
AFE0
AAA0
AAA0
ACE0
A920
FFF0
0280
0460
1810
ENDCHAR
STARTCHAR 559C
ENCODING 21916
SWIDTH 720 0
DWIDTH 12 0
BBX 12 12 0 -2
BITMAP
0400
FFE0
0400
7FC0
2080
3F80
1100
FFE0
0000
3F80
2080
3F80
ENDCHAR
STARTCHAR 559D
ENCODING 21917
SWIDTH 720 0
DWIDTH 12 0
BBX 12 12 0 -2
BITMAP
0FC0
E840
AFC0
A840
AFC0
A400
A7E0
E920
1E20
28A0
07A0
00C0
ENDCHAR
STARTCHAR 559E
ENCODING 21918
SWIDTH 720 0
DWIDTH 12 0
BBX 12 12 0 -2
BITMAP
0400
04E0
EFA0
A9A0
AFA0
A9A0
AFA0
A8A0
AEA0
E8C0
0E80
0880
ENDCHAR
STARTCHAR 559F
ENCODING 21919
SWIDTH 720 0
DWIDTH 12 0
BBX 12 12 0 -2
BITMAP
0000
0FE0
E920
AFE0
A920
AFE0
A440
A7C0
A440
E7C0
0440
04C0
ENDCHAR
STARTCHAR 55A7
ENCODING 21927
SWIDTH 720 0
DWIDTH 12 0
BBX 12 12 0 -2
BITMAP
0100
FFE0
B020
AFC0
A000
AFC0
A840
AFC0
E840
0FC0
0000
1FE0
ENDCHAR
STARTCHAR 55A8
ENCODING 21928
SWIDTH 720 0
DWIDTH 12 0
BBX 12 12 0 -2
BITMAP
0100
1FE0
E000
A780
A480
A780
BFE0
B020
E500
0500
0920
30E0
ENDCHAR
STARTCHAR 55A9
ENCODING 21929
SWIDTH 720 0
DWIDTH 12 0
BBX 12 12 0 -2
BITMAP
0200
0300
E480
BB60
A000
AEA0
AAA0
AF40
AB40
EF40
8AA0
0AA0
ENDCHAR
STARTCHAR 55AA
ENCODING 21930
SWIDTH 720 0
DWIDTH 12 0
BBX 12 12 0 -2
BITMAP
0400
FFE0
0400
75C0
5540
75C0
0400
FFE0
2840
2580
2300
F8C0
ENDCHAR
STARTCHAR 55AB
ENCODING 21931
SWIDTH 720 0
DWIDTH 12 0
BBX 12 12 0 -2
BITMAP
0400
FFE0
A4A0
BEA0
A520
BE40
AF80
A200
FFE0
0500
0880
3060
ENDCHAR
STARTCHAR 55AC
ENCODING 21932
SWIDTH 720 0
DWIDTH 12 0
BBX 12 12 0 -2
BITMAP
0380
3C00
0400
FFC0
1F00
3180
DF60
7FC0
5F40
5140
5F40
40C0
ENDCHAR
STARTCHAR 55AE
ENCODING 21934
SWIDTH 720 0
DWIDTH 12 0
BBX 12 12 0 -2
BITMAP
7BC0
4A40
7BC0
3F80
2480
3F80
2480
3F80
0400
FFE0
0400
0400
ENDCHAR
STARTCHAR 55B0
ENCODING 21936
SWIDTH 720 0
DWIDTH 12 0
BBX 12 12 0 -2
BITMAP
0200
0500
EF80
B040
AFA0
A880
AF80
AF80
AA40
E980
0CC0
3820
ENDCHAR
STARTCHAR 55B6
ENCODING 21942
SWIDTH 720 0
DWIDTH 12 0
BBX 12 12 0 -2
BITMAP
2880
1500
FFE0
8020
BF20
2100
3F00
0800
7F80
4080
4080
7F80
ENDCHAR
STARTCHAR 55C4
ENCODING 21956
SWIDTH 720 0
DWIDTH 12 0
BBX 12 12 0 -2
BITMAP
0000
1FE0
E200
AFC0
A840
AFC0
A840
AFC0
A3C0
EC80
0780
3860
ENDCHAR
STARTCHAR 55C5
ENCODING 21957
SWIDTH 720 0
DWIDTH 12 0
BBX 12 12 0 -2
BITMAP
0200
EFC0
A840
AFC0
A840
AFC0
A840
AFC0
E140
3FE0
0680
1860
ENDCHAR
STARTCHAR 55C7
ENCODING 21959
SWIDTH 720 0
DWIDTH 12 0
BBX 12 12 0 -2
BITMAP
0400
7FC0
2480
2480
5540
FFE0
0000
7FC0
5140
5F40
4040
7FC0
ENDCHAR
STARTCHAR 55D4
ENCODING 21972
SWIDTH 720 0
DWIDTH 12 0
BBX 12 12 0 -2
BITMAP
0460
0780
E420
A3E0
AA40
ABC0
AA40
ABC0
AA40
EFF0
0440
1820
ENDCHAR
STARTCHAR 55DA
ENCODING 21978
SWIDTH 720 0
DWIDTH 12 0
BBX 12 12 0 -2
BITMAP
0200
EF80
A880
A880
AF80
A800
AFE0
E800
0FE0
1520
12A0
20C0
ENDCHAR
STARTCHAR 55DC
ENCODING 21980
SWIDTH 720 0
DWIDTH 12 0
BBX 12 12 0 -2
BITMAP
0100
0FE0
E140
BFE0
A240
A780
BA20
AFE0
A840
EFC0
0840
0FC0
ENDCHAR
STARTCHAR 55DF
ENCODING 21983
SWIDTH 720 0
DWIDTH 12 0
BBX 12 12 0 -2
BITMAP
0440
0280
EFE0
A100
AFC0
A100
BFF0
A400
EFC0
1100
2100
0FE0
ENDCHAR
STARTCHAR 55E3
ENCODING 21987
SWIDTH 720 0
DWIDTH 12 0
BBX 12 12 0 -2
BITMAP
0000
FFE0
8820
FBA0
0020
FBA0
AAA0
AAA0
FAA0
ABA0
A820
A860
ENDCHAR
STARTCHAR 55E4
ENCODING 21988
SWIDTH 720 0
DWIDTH 12 0
BBX 12 12 0 -2
BITMAP
0200
1240
FFC0
A400
BFE0
A200
AFC0
AA40
AFC0
E280
03C0
1C20
ENDCHAR
STARTCHAR 55F7
ENCODING 22007
SWIDTH 720 0
DWIDTH 12 0
BBX 12 12 0 -2
BITMAP
0480
0480
FE80
A4F0
BF20
A520
BEA0
A8A0
AE40
EAC0
1320
2610
ENDCHAR
STARTCHAR 55F9
ENCODING 22009
SWIDTH 720 0
DWIDTH 12 0
BBX 12 12 0 -2
BITMAP
1080
0BE0
E080
B3E0
AAA0
A3E0
BAA0
ABE0
A880
EBE0
1680
21F0
ENDCHAR
STARTCHAR 55FD
ENCODING 22013
SWIDTH 720 0
DWIDTH 12 0
BBX 12 12 0 -2
BITMAP
0900
1F00
E9C0
BF40
AAC0
AA80
BE80
AC80
FB80
2940
4A40
0C20
ENDCHAR
STARTCHAR 55FE
ENCODING 22014
SWIDTH 720 0
DWIDTH 12 0
BBX 12 12 0 -2
BITMAP
0480
0480
FEE0
A940
AAE0
AF40
AA40
ABF0
EA40
1240
22A0
0D10
ENDCHAR
STARTCHAR 5606
ENCODING 22022
SWIDTH 720 0
DWIDTH 12 0
BBX 12 12 0 -2
BITMAP
0480
1FE0
E480
AFE0
A920
AFE0
A100
AFE0
E100
8FE0
06C0
1830
ENDCHAR
STARTCHAR 5609
ENCODING 22025
SWIDTH 720 0
DWIDTH 12 0
BBX 12 12 0 -2
BITMAP
0400
FFE0
0400
3F80
2080
7FC0
0900
FFE0
1000
FBE0
2A20
DBE0
ENDCHAR
STARTCHAR 5614
ENCODING 22036
SWIDTH 720 0
DWIDTH 12 0
BBX 12 12 0 -2
BITMAP
0000
0FE0
E800
ABC0
AA40
ABC0
A800
AFE0
ADA0
EFE0
0800
0FE0
ENDCHAR
STARTCHAR 5616
ENCODING 22038
SWIDTH 720 0
DWIDTH 12 0
BBX 12 12 0 -2
BITMAP
0200
1FC0
E200
AFC0
A200
BFE0
A880
AF80
A880
EF80
0480
1840
ENDCHAR
STARTCHAR 5617
ENCODING 22039
SWIDTH 720 0
DWIDTH 12 0
BBX 12 12 0 -2
BITMAP
2480
1500
FFE0
9120
DFA0
7E00
4020
3FE0
2080
3F80
2080
3F80
ENDCHAR
STARTCHAR 5618
ENCODING 22040
SWIDTH 720 0
DWIDTH 12 0
BBX 12 12 0 -2
BITMAP
0200
03C0
E200
AFE0
AA00
AFE0
AA40
A9C0
AAA0
EAC0
1680
2FE0
ENDCHAR
STARTCHAR 561B
ENCODING 22043
SWIDTH 720 0
DWIDTH 12 0
BBX 12 12 0 -2
BITMAP
0200
3FE0
E000
A880
BFE0
A880
AAA0
EAA0
2AA0
5AA0
6880
8880
ENDCHAR
STARTCHAR 5629
ENCODING 22057
SWIDTH 720 0
DWIDTH 12 0
BBX 12 12 0 -2
BITMAP
0880
3FE0
E880
BFC0
AA80
BFE0
AA80
BFC0
E200
3FE0
0200
0200
ENDCHAR
STARTCHAR 562F
ENCODING 22063
SWIDTH 720 0
DWIDTH 12 0
BBX 12 12 0 -2
BITMAP
0200
0FC0
E240
AFE0
A240
AFC0
AAA0
BAE0
FFE0
1220
1AE0
2AA0
ENDCHAR
STARTCHAR 5631
ENCODING 22065
SWIDTH 720 0
DWIDTH 12 0
BBX 12 12 0 -2
BITMAP
0000
0FF0
E810
AFF0
A8E0
ABE0
AAA0
AFF0
ED50
15D0
1750
2470
ENDCHAR
STARTCHAR 5632
ENCODING 22066
SWIDTH 720 0
DWIDTH 12 0
BBX 12 12 0 -2
BITMAP
0400
FFE0
A4A0
AFA0
A9E0
AFA0
A9A0
AFE0
E4A0
9F20
0520
0660
ENDCHAR
STARTCHAR 5634
ENCODING 22068
SWIDTH 720 0
DWIDTH 12 0
BBX 12 12 0 -2
BITMAP
0500
17E0
F500
BEE0
A3C0
A480
AFE0
A920
AFE0
E920
0FE0
1020
ENDCHAR
STARTCHAR 5636
ENCODING 22070
SWIDTH 720 0
DWIDTH 12 0
BBX 12 12 0 -2
BITMAP
0A20
0AC0
FF80
AA80
AEF0
AAA0
AEA0
AAA0
BFA0
E6A0
0920
1220
ENDCHAR
STARTCHAR 5638
ENCODING 22072
SWIDTH 720 0
DWIDTH 12 0
BBX 12 12 0 -2
BITMAP
0800
0800
EFE0
BB40
AB40
BFE0
AB40
AB40
BFE0
E000
1540
24A0
ENDCHAR
STARTCHAR 5642
ENCODING 22082
SWIDTH 720 0
DWIDTH 12 0
BBX 12 12 0 -2
BITMAP
0880
1FE0
E500
BFC0
B540
B9C0
BFC0
A080
BFE0
E880
0480
0180
ENDCHAR
ENDFONT
